<svg width="192" height="192" viewBox="0 0 192 192" fill="none" xmlns="http://www.w3.org/2000/svg">
<circle cx="96" cy="96" r="96" fill="#800080"/>
<g clip-path="url(#clip0_101_9)">
<path d="M146.591 102.693C146.591 99.5634 144.05 97.0267 140.92 97.0267H51.076C47.9461 97.0267 45.4095 99.5634 45.4095 102.693V106.296H52.4012V143.844C52.4012 148.491 56.1671 152.25 60.8033 152.25H131.367C136.014 152.25 139.769 148.481 139.769 143.844V106.292H146.591V102.693Z" fill="#F5F5F5"/>
<path d="M117.405 81.6471H122.507C126.251 81.6471 129.292 78.5704 129.292 74.8294V45.2212C129.292 42.2014 126.816 39.75 123.789 39.75C120.762 39.75 118.279 42.2014 118.279 45.2212V70.6372H113.458C112.133 69.7633 110.555 69.241 108.85 69.241H83.2138C78.4709 69.241 74.5878 73.1561 74.5878 77.899V91.4348H117.405V81.6471Z" fill="#F5F5F5"/>
<path d="M96.0391 64.3525C102.832 64.3525 108.339 58.8458 108.339 52.053C108.339 45.2602 102.832 39.7535 96.0391 39.7535C89.2463 39.7535 83.7396 45.2602 83.7396 52.053C83.7396 58.8458 89.2463 64.3525 96.0391 64.3525Z" fill="#F5F5F5"/>
</g>
<defs>
<clipPath id="clip0_101_9">
<rect width="112.5" height="112.5" fill="white" transform="translate(39.75 39.75)"/>
</clipPath>
</defs>
</svg>
