<svg width="372" height="372" viewBox="0 0 372 372" fill="none" xmlns="http://www.w3.org/2000/svg">
<circle cx="186" cy="186" r="186" fill="#ECA5C1"/>
<path d="M338.159 144.062C299.96 106.892 324.03 228.199 270.511 235.667C229.813 241.346 232.692 159.18 191.732 160.989C152.068 162.74 163.474 248.611 121.516 257.572C84.4662 265.485 65 160.989 65 160.989M354 214.259C322.087 245.712 301.641 148.768 259.807 149.04C219.257 149.304 232.274 249.61 191.732 248.611C157.859 247.776 132.647 179.409 132.647 179.409" stroke="#C2C5EB" stroke-opacity="0.83" stroke-width="5"/>
<path d="M15 185.727V139.182H26.25V176.591H45.6136V185.727H15Z" fill="#DB4F7D"/>
<path d="M61.2784 186.318C59.0511 186.318 57.0739 185.947 55.3466 185.205C53.6345 184.447 52.2784 183.311 51.2784 181.795C50.2936 180.265 49.8011 178.348 49.8011 176.045C49.8011 174.106 50.142 172.47 50.8239 171.136C51.5057 169.803 52.4451 168.72 53.642 167.886C54.839 167.053 56.2178 166.424 57.7784 166C59.339 165.561 61.0057 165.265 62.7784 165.114C64.7633 164.932 66.3617 164.742 67.5739 164.545C68.786 164.333 69.6648 164.038 70.2102 163.659C70.7708 163.265 71.0511 162.712 71.0511 162V161.886C71.0511 160.72 70.6496 159.818 69.8466 159.182C69.0436 158.545 67.9602 158.227 66.5966 158.227C65.1269 158.227 63.9451 158.545 63.0511 159.182C62.1572 159.818 61.589 160.697 61.3466 161.818L51.0966 161.455C51.3996 159.333 52.1799 157.439 53.4375 155.773C54.7102 154.091 56.4527 152.773 58.6648 151.818C60.892 150.848 63.5663 150.364 66.6875 150.364C68.9148 150.364 70.9678 150.629 72.8466 151.159C74.7254 151.674 76.3617 152.432 77.7557 153.432C79.1496 154.417 80.2254 155.629 80.983 157.068C81.7557 158.508 82.142 160.152 82.142 162V185.727H71.6875V180.864H71.4148C70.7936 182.045 69.9981 183.045 69.0284 183.864C68.0739 184.682 66.9451 185.295 65.642 185.705C64.3542 186.114 62.8996 186.318 61.2784 186.318ZM64.7102 179.045C65.9072 179.045 66.983 178.803 67.9375 178.318C68.9072 177.833 69.6799 177.167 70.2557 176.318C70.8314 175.455 71.1193 174.455 71.1193 173.318V170C70.8011 170.167 70.4148 170.318 69.9602 170.455C69.5208 170.591 69.036 170.72 68.5057 170.841C67.9754 170.962 67.4299 171.068 66.8693 171.159C66.3087 171.25 65.7708 171.333 65.2557 171.409C64.2102 171.576 63.3163 171.833 62.5739 172.182C61.8466 172.53 61.286 172.985 60.892 173.545C60.5133 174.091 60.3239 174.742 60.3239 175.5C60.3239 176.652 60.733 177.53 61.5511 178.136C62.3845 178.742 63.4375 179.045 64.7102 179.045Z" fill="#DB4F7D"/>
<path d="M102.688 185.727V139.182H121.915C125.4 139.182 128.407 139.864 130.938 141.227C133.483 142.576 135.445 144.462 136.824 146.886C138.203 149.295 138.892 152.098 138.892 155.295C138.892 158.508 138.188 161.318 136.778 163.727C135.384 166.121 133.392 167.977 130.801 169.295C128.21 170.614 125.134 171.273 121.574 171.273H109.71V162.409H119.483C121.18 162.409 122.597 162.114 123.733 161.523C124.884 160.932 125.756 160.106 126.347 159.045C126.938 157.97 127.233 156.72 127.233 155.295C127.233 153.856 126.938 152.614 126.347 151.568C125.756 150.508 124.884 149.689 123.733 149.114C122.581 148.538 121.165 148.25 119.483 148.25H113.938V185.727H102.688Z" fill="#DB4F7D"/>
<path d="M144.438 185.727V150.818H155.233V157.182H155.597C156.233 154.879 157.271 153.167 158.71 152.045C160.15 150.909 161.824 150.341 163.733 150.341C164.248 150.341 164.778 150.379 165.324 150.455C165.869 150.515 166.377 150.614 166.847 150.75V160.409C166.316 160.227 165.619 160.083 164.756 159.977C163.907 159.871 163.15 159.818 162.483 159.818C161.165 159.818 159.975 160.114 158.915 160.705C157.869 161.28 157.044 162.091 156.438 163.136C155.847 164.167 155.551 165.379 155.551 166.773V185.727H144.438Z" fill="#DB4F7D"/>
<path d="M185.858 186.386C182.191 186.386 179.04 185.636 176.403 184.136C173.782 182.621 171.759 180.515 170.335 177.818C168.926 175.106 168.222 171.962 168.222 168.386C168.222 164.795 168.926 161.652 170.335 158.955C171.759 156.242 173.782 154.136 176.403 152.636C179.04 151.121 182.191 150.364 185.858 150.364C189.525 150.364 192.669 151.121 195.29 152.636C197.926 154.136 199.949 156.242 201.358 158.955C202.782 161.652 203.494 164.795 203.494 168.386C203.494 171.962 202.782 175.106 201.358 177.818C199.949 180.515 197.926 182.621 195.29 184.136C192.669 185.636 189.525 186.386 185.858 186.386ZM185.926 178C187.259 178 188.388 177.591 189.312 176.773C190.237 175.955 190.941 174.818 191.426 173.364C191.926 171.909 192.176 170.227 192.176 168.318C192.176 166.379 191.926 164.682 191.426 163.227C190.941 161.773 190.237 160.636 189.312 159.818C188.388 159 187.259 158.591 185.926 158.591C184.547 158.591 183.381 159 182.426 159.818C181.487 160.636 180.767 161.773 180.267 163.227C179.782 164.682 179.54 166.379 179.54 168.318C179.54 170.227 179.782 171.909 180.267 173.364C180.767 174.818 181.487 175.955 182.426 176.773C183.381 177.591 184.547 178 185.926 178Z" fill="#DB4F7D"/>
<path d="M229.028 150.818V159H206.574V150.818H229.028ZM211.256 185.727V149.045C211.256 146.348 211.763 144.114 212.778 142.341C213.794 140.553 215.203 139.22 217.006 138.341C218.809 137.447 220.892 137 223.256 137C224.801 137 226.256 137.121 227.619 137.364C228.998 137.591 230.021 137.795 230.688 137.977L228.915 146.114C228.506 145.977 228.006 145.864 227.415 145.773C226.839 145.682 226.294 145.636 225.778 145.636C224.475 145.636 223.581 145.924 223.097 146.5C222.612 147.076 222.369 147.864 222.369 148.864V185.727H211.256Z" fill="#DB4F7D"/>
<path d="M249.568 186.386C245.917 186.386 242.765 185.667 240.114 184.227C237.477 182.773 235.447 180.705 234.023 178.023C232.614 175.326 231.909 172.121 231.909 168.409C231.909 164.803 232.621 161.652 234.045 158.955C235.47 156.242 237.477 154.136 240.068 152.636C242.659 151.121 245.712 150.364 249.227 150.364C251.712 150.364 253.985 150.75 256.045 151.523C258.106 152.295 259.886 153.439 261.386 154.955C262.886 156.47 264.053 158.341 264.886 160.568C265.72 162.78 266.136 165.318 266.136 168.182V170.955H235.795V164.5H255.795C255.78 163.318 255.5 162.265 254.955 161.341C254.409 160.417 253.659 159.697 252.705 159.182C251.765 158.652 250.682 158.386 249.455 158.386C248.212 158.386 247.098 158.667 246.114 159.227C245.129 159.773 244.348 160.523 243.773 161.477C243.197 162.417 242.894 163.485 242.864 164.682V171.25C242.864 172.674 243.144 173.924 243.705 175C244.265 176.061 245.061 176.886 246.091 177.477C247.121 178.068 248.348 178.364 249.773 178.364C250.758 178.364 251.652 178.227 252.455 177.955C253.258 177.682 253.947 177.28 254.523 176.75C255.098 176.22 255.53 175.568 255.818 174.795L266.023 175.091C265.598 177.379 264.667 179.371 263.227 181.068C261.803 182.75 259.932 184.061 257.614 185C255.295 185.924 252.614 186.386 249.568 186.386Z" fill="#DB4F7D"/>
<path d="M123.477 243.318V196.773H142.886C146.371 196.773 149.288 197.265 151.636 198.25C154 199.235 155.773 200.614 156.955 202.386C158.152 204.159 158.75 206.212 158.75 208.545C158.75 210.318 158.379 211.902 157.636 213.295C156.894 214.674 155.871 215.818 154.568 216.727C153.265 217.636 151.758 218.273 150.045 218.636V219.091C151.924 219.182 153.659 219.689 155.25 220.614C156.856 221.538 158.144 222.826 159.114 224.477C160.083 226.114 160.568 228.053 160.568 230.295C160.568 232.795 159.932 235.03 158.659 237C157.386 238.955 155.545 240.5 153.136 241.636C150.727 242.758 147.803 243.318 144.364 243.318H123.477ZM134.727 234.25H141.682C144.121 234.25 145.917 233.788 147.068 232.864C148.235 231.939 148.818 230.652 148.818 229C148.818 227.803 148.538 226.773 147.977 225.909C147.417 225.03 146.621 224.356 145.591 223.886C144.561 223.402 143.326 223.159 141.886 223.159H134.727V234.25ZM134.727 215.909H140.955C142.182 215.909 143.273 215.705 144.227 215.295C145.182 214.886 145.924 214.295 146.455 213.523C147 212.75 147.273 211.818 147.273 210.727C147.273 209.167 146.72 207.939 145.614 207.045C144.508 206.152 143.015 205.705 141.136 205.705H134.727V215.909Z" fill="#DB4F7D"/>
<path d="M165.977 243.318V208.409H177.091V243.318H165.977ZM171.545 204.341C169.985 204.341 168.644 203.826 167.523 202.795C166.402 201.75 165.841 200.492 165.841 199.023C165.841 197.568 166.402 196.326 167.523 195.295C168.644 194.25 169.985 193.727 171.545 193.727C173.121 193.727 174.462 194.25 175.568 195.295C176.689 196.326 177.25 197.568 177.25 199.023C177.25 200.492 176.689 201.75 175.568 202.795C174.462 203.826 173.121 204.341 171.545 204.341Z" fill="#DB4F7D"/>
<path d="M200.46 243.977C196.794 243.977 193.642 243.227 191.006 241.727C188.384 240.212 186.362 238.106 184.938 235.409C183.528 232.697 182.824 229.553 182.824 225.977C182.824 222.386 183.528 219.242 184.938 216.545C186.362 213.833 188.384 211.727 191.006 210.227C193.642 208.712 196.794 207.955 200.46 207.955C204.127 207.955 207.271 208.712 209.892 210.227C212.528 211.727 214.551 213.833 215.96 216.545C217.384 219.242 218.097 222.386 218.097 225.977C218.097 229.553 217.384 232.697 215.96 235.409C214.551 238.106 212.528 240.212 209.892 241.727C207.271 243.227 204.127 243.977 200.46 243.977ZM200.528 235.591C201.862 235.591 202.991 235.182 203.915 234.364C204.839 233.545 205.544 232.409 206.028 230.955C206.528 229.5 206.778 227.818 206.778 225.909C206.778 223.97 206.528 222.273 206.028 220.818C205.544 219.364 204.839 218.227 203.915 217.409C202.991 216.591 201.862 216.182 200.528 216.182C199.15 216.182 197.983 216.591 197.028 217.409C196.089 218.227 195.369 219.364 194.869 220.818C194.384 222.273 194.142 223.97 194.142 225.909C194.142 227.818 194.384 229.5 194.869 230.955C195.369 232.409 196.089 233.545 197.028 234.364C197.983 235.182 199.15 235.591 200.528 235.591ZM196.619 203.977L201.21 193.727H211.051L204.188 203.977H196.619Z" fill="#DB4F7D"/>
<path d="M234.903 196.773V243.318H223.79V196.773H234.903Z" fill="#DB4F7D"/>
<path d="M258.273 243.977C254.606 243.977 251.455 243.227 248.818 241.727C246.197 240.212 244.174 238.106 242.75 235.409C241.341 232.697 240.636 229.553 240.636 225.977C240.636 222.386 241.341 219.242 242.75 216.545C244.174 213.833 246.197 211.727 248.818 210.227C251.455 208.712 254.606 207.955 258.273 207.955C261.939 207.955 265.083 208.712 267.705 210.227C270.341 211.727 272.364 213.833 273.773 216.545C275.197 219.242 275.909 222.386 275.909 225.977C275.909 229.553 275.197 232.697 273.773 235.409C272.364 238.106 270.341 240.212 267.705 241.727C265.083 243.227 261.939 243.977 258.273 243.977ZM258.341 235.591C259.674 235.591 260.803 235.182 261.727 234.364C262.652 233.545 263.356 232.409 263.841 230.955C264.341 229.5 264.591 227.818 264.591 225.909C264.591 223.97 264.341 222.273 263.841 220.818C263.356 219.364 262.652 218.227 261.727 217.409C260.803 216.591 259.674 216.182 258.341 216.182C256.962 216.182 255.795 216.591 254.841 217.409C253.902 218.227 253.182 219.364 252.682 220.818C252.197 222.273 251.955 223.97 251.955 225.909C251.955 227.818 252.197 229.5 252.682 230.955C253.182 232.409 253.902 233.545 254.841 234.364C255.795 235.182 256.962 235.591 258.341 235.591Z" fill="#DB4F7D"/>
<path d="M297.875 257.136C294.557 257.136 291.716 256.674 289.352 255.75C286.989 254.826 285.133 253.561 283.784 251.955C282.436 250.348 281.625 248.53 281.352 246.5L291.875 245.909C292.072 246.621 292.436 247.242 292.966 247.773C293.511 248.303 294.216 248.712 295.08 249C295.958 249.288 296.989 249.432 298.17 249.432C300.034 249.432 301.572 248.977 302.784 248.068C304.011 247.174 304.625 245.606 304.625 243.364V237.227H304.239C303.799 238.303 303.133 239.265 302.239 240.114C301.345 240.962 300.231 241.629 298.898 242.114C297.58 242.598 296.064 242.841 294.352 242.841C291.807 242.841 289.473 242.25 287.352 241.068C285.246 239.871 283.557 238.023 282.284 235.523C281.027 233.008 280.398 229.773 280.398 225.818C280.398 221.742 281.049 218.386 282.352 215.75C283.655 213.098 285.36 211.136 287.466 209.864C289.587 208.591 291.867 207.955 294.307 207.955C296.14 207.955 297.708 208.273 299.011 208.909C300.33 209.53 301.413 210.333 302.261 211.318C303.11 212.303 303.754 213.326 304.193 214.386H304.511V208.409H315.58V243.455C315.58 246.409 314.837 248.902 313.352 250.932C311.867 252.962 309.792 254.5 307.125 255.545C304.458 256.606 301.375 257.136 297.875 257.136ZM298.216 234.75C299.564 234.75 300.716 234.394 301.67 233.682C302.625 232.97 303.36 231.947 303.875 230.614C304.39 229.28 304.648 227.682 304.648 225.818C304.648 223.924 304.39 222.295 303.875 220.932C303.375 219.553 302.64 218.492 301.67 217.75C300.716 217.008 299.564 216.636 298.216 216.636C296.837 216.636 295.67 217.015 294.716 217.773C293.761 218.53 293.034 219.598 292.534 220.977C292.049 222.341 291.807 223.955 291.807 225.818C291.807 227.682 292.057 229.28 292.557 230.614C293.057 231.947 293.777 232.97 294.716 233.682C295.67 234.394 296.837 234.75 298.216 234.75Z" fill="#DB4F7D"/>
<path d="M332.506 243.909C330.278 243.909 328.301 243.538 326.574 242.795C324.862 242.038 323.506 240.902 322.506 239.386C321.521 237.856 321.028 235.939 321.028 233.636C321.028 231.697 321.369 230.061 322.051 228.727C322.733 227.394 323.672 226.311 324.869 225.477C326.066 224.644 327.445 224.015 329.006 223.591C330.566 223.152 332.233 222.856 334.006 222.705C335.991 222.523 337.589 222.333 338.801 222.136C340.013 221.924 340.892 221.629 341.438 221.25C341.998 220.856 342.278 220.303 342.278 219.591V219.477C342.278 218.311 341.877 217.409 341.074 216.773C340.271 216.136 339.188 215.818 337.824 215.818C336.354 215.818 335.172 216.136 334.278 216.773C333.384 217.409 332.816 218.288 332.574 219.409L322.324 219.045C322.627 216.924 323.407 215.03 324.665 213.364C325.938 211.682 327.68 210.364 329.892 209.409C332.119 208.439 334.794 207.955 337.915 207.955C340.142 207.955 342.195 208.22 344.074 208.75C345.953 209.265 347.589 210.023 348.983 211.023C350.377 212.008 351.453 213.22 352.21 214.659C352.983 216.098 353.369 217.742 353.369 219.591V243.318H342.915V238.455H342.642C342.021 239.636 341.225 240.636 340.256 241.455C339.301 242.273 338.172 242.886 336.869 243.295C335.581 243.705 334.127 243.909 332.506 243.909ZM335.938 236.636C337.134 236.636 338.21 236.394 339.165 235.909C340.134 235.424 340.907 234.758 341.483 233.909C342.059 233.045 342.347 232.045 342.347 230.909V227.591C342.028 227.758 341.642 227.909 341.188 228.045C340.748 228.182 340.263 228.311 339.733 228.432C339.203 228.553 338.657 228.659 338.097 228.75C337.536 228.841 336.998 228.924 336.483 229C335.438 229.167 334.544 229.424 333.801 229.773C333.074 230.121 332.513 230.576 332.119 231.136C331.741 231.682 331.551 232.333 331.551 233.091C331.551 234.242 331.96 235.121 332.778 235.727C333.612 236.333 334.665 236.636 335.938 236.636Z" fill="#DB4F7D"/>
</svg>
