<svg width="32" height="32" viewBox="0 0 32 32" fill="none" xmlns="http://www.w3.org/2000/svg">
<g clip-path="url(#clip0_131_11)">
<path fill-rule="evenodd" clip-rule="evenodd" d="M22.5 1.37544C20.5138 0.491354 18.3143 0 16 0C7.16344 0 0 7.16344 0 16C0 24.8366 7.16344 32 16 32C18.3143 32 20.5139 31.5086 22.5 30.6246C16.9026 28.133 13 22.5222 13 16C13 9.47775 16.9026 3.86699 22.5 1.37544Z" fill="#FF831D"/>
<path fill-rule="evenodd" clip-rule="evenodd" d="M22.5 30.6246C28.0974 28.133 32 22.5222 32 16C32 9.47775 28.0974 3.867 22.5 1.37544C16.9026 3.867 13 9.47775 13 16C13 22.5222 16.9026 28.133 22.5 30.6246Z" fill="#FB923C"/>
<path d="M6.75 8.81467C7.03903 8.81467 8.39265 8.40521 9.71539 8.43954C10.7114 8.46539 11.1732 9.48734 10.874 10.4377C10.2999 12.2615 9.56233 14.4557 9.78865 15.2478C10.0358 16.1127 10.7375 17.0121 11.4037 17.8808C11.8423 18.4529 12.5188 18.8066 13.2397 18.8066H23.75" stroke="white" stroke-width="1.31401" stroke-linecap="round"/>
<path d="M10.7468 10.9013H22.0552C22.678 10.9013 23.1591 11.4486 23.0791 12.0662V12.0662C23.0702 12.1351 23.0543 12.2029 23.0318 12.2685L22.0367 15.1704C21.7332 16.0556 20.9008 16.6501 19.9651 16.6501H10.7468" stroke="white" stroke-width="1.31401" stroke-linecap="round"/>
<circle cx="21.4778" cy="21.7966" r="1.20451" stroke="white" stroke-width="1.09501"/>
<circle cx="12.4166" cy="21.8179" r="1.20451" stroke="white" stroke-width="1.09501"/>
</g>
<defs>
<clipPath id="clip0_131_11">
<rect width="32" height="32" fill="white"/>
</clipPath>
</defs>
</svg>
