<svg width="220" height="220" viewBox="0 0 220 220" fill="none" xmlns="http://www.w3.org/2000/svg">
<circle cx="110" cy="110" r="110" fill="#E20719"/>
<path d="M47.1718 153.471H42.8253V141.991L42.0973 141.814C40.5026 144.941 38.7423 147.994 37.3759 151.213C36.5229 153.221 35.2651 153.981 33.3201 153.517C32.4182 153.302 31.3234 152.702 30.8752 151.952C29.411 149.434 28.2293 146.755 26.8792 144.169C26.4447 143.337 25.7395 142.678 24.8798 142.3V153.438H20.5333V137.954C23.0787 137.954 25.6105 137.785 28.0962 138.06C28.8052 138.136 29.5468 139.418 29.9706 140.285C31.2256 142.789 32.3123 145.386 33.6705 148.467C35.3466 145.172 36.8272 142.507 38.0632 139.733C38.7097 138.28 39.5437 137.774 41.1003 137.883C43.0426 138.019 45.0012 137.916 47.1772 137.916L47.1718 153.471Z" fill="white"/>
<path d="M179.397 137.918C184.993 137.918 190.418 137.782 195.827 138.032C196.929 138.084 198.752 139.494 198.866 140.439C199.138 142.713 199.986 145.356 197.932 146.986C198.453 149.159 198.926 151.115 199.467 153.37H194.408C194.384 153.345 194.188 153.231 194.175 153.098C193.843 149.496 193.846 149.496 190.228 149.496H184.474C184.355 150.882 184.249 152.093 184.135 153.427H179.397V137.918ZM184.412 145.484C187.424 145.484 190.22 145.565 193.001 145.41C193.545 145.381 194.531 144.291 194.433 143.935C194.218 143.148 193.471 141.988 192.86 141.941C190.095 141.73 187.305 141.849 184.403 141.849L184.412 145.484Z" fill="white"/>
<path d="M131.072 143.919V146.907H119.06V149.534H131.485V153.557H114.583V138.054H131.485V141.276H119.163C119.054 142.191 118.967 142.906 118.845 143.919H131.072Z" fill="white"/>
<path d="M71.5745 153.495C68.9503 153.446 66.4756 154.435 65.0168 151.577C64.7968 151.145 63.6748 151.034 62.9658 151.009C60.1678 150.947 57.367 150.985 54.3652 150.985C53.8219 154.954 50.7604 153.221 48.0656 153.653C48.9783 151.751 49.7199 150.121 50.5104 148.545C51.4748 146.609 52.4799 144.691 53.4552 142.759C55.987 137.715 55.9897 137.652 61.613 137.986C62.5067 138.038 63.7319 138.72 64.1529 139.472C66.6657 143.963 68.9857 148.548 71.5745 153.495ZM63.2972 147.38L59.7114 140.741C58.4427 143.316 57.5028 145.218 56.4352 147.38H63.2972Z" fill="white"/>
<path d="M150.18 149.097V138.087H154.967V153.546C152.46 153.546 149.936 153.644 147.434 153.479C146.771 153.435 146.005 152.683 145.56 152.061C143.617 149.344 141.797 146.56 139.885 143.832C139.371 143.104 138.679 142.498 137.763 141.504V153.381H132.974V137.929C135.478 137.929 137.934 137.812 140.363 138.002C141.085 138.057 141.906 138.85 142.395 139.513C144.799 142.773 147.105 146.106 149.458 149.412L150.18 149.097Z" fill="white"/>
<path d="M167.2 153.563C164.91 153.563 162.619 153.563 160.329 153.563C158.498 153.563 157.021 152.734 156.871 150.982C156.604 147.846 156.582 144.695 156.806 141.556C156.985 139.084 158.471 137.772 161.218 137.872C165.293 138.021 169.367 137.905 173.442 137.913C176.028 137.913 178.06 139.798 178.147 142.349C178.221 144.707 178.212 147.07 178.147 149.431C178.085 152.044 176.517 153.506 173.82 153.549C171.611 153.585 169.405 153.563 167.2 153.563ZM167.422 141.841C160.965 141.841 160.927 141.912 161.234 147.578C161.307 148.966 161.799 149.578 163.198 149.553C165.314 149.515 167.433 149.553 169.552 149.553C173.084 149.553 173.084 149.553 173.105 146.166C173.122 141.846 173.122 141.846 168.694 141.844L167.422 141.841Z" fill="white"/>
<path d="M76.5702 153.43H72.1232V137.924C74.4404 137.924 76.8038 137.75 79.1183 138.013C79.9985 138.111 80.9248 139.1 81.5632 139.885C83.8832 142.824 86.0863 145.861 88.3546 148.85C88.485 149.023 88.7566 149.091 89.2728 149.393V138.07H93.6926V153.555C91.1798 153.555 88.5828 153.658 86.0048 153.481C85.3718 153.438 84.6872 152.569 84.2282 151.936C81.8457 148.646 79.5313 145.31 76.5865 142.156L76.5702 153.43Z" fill="white"/>
<path d="M106.708 153.557C105.306 153.557 104.377 153.557 103.448 153.557C102.948 153.557 102.448 153.503 101.655 153.457V141.95H94.6515V138.035H113.61V141.743H106.708V153.557Z" fill="white"/>
<path d="M88.3987 76.8705C89.2543 68.8185 95.4051 61.5605 103.027 59.8494C110.648 58.1384 117.229 61.6947 118.722 70.2164C120.12 78.2125 116.128 87.2151 109.373 91.4647C106.933 93.0744 104.059 93.8979 101.137 93.8244C95.7686 93.6175 92.0165 90.9391 89.7743 86.1191C88.4989 83.2141 88.024 80.0209 88.3987 76.8705Z" fill="white"/>
<path d="M115.032 111.572C112.545 111.299 110.266 110.056 108.69 108.113C107.113 106.17 106.366 103.684 106.611 101.194C106.766 99.3769 107.586 97.6805 108.914 96.43C110.241 95.1796 111.984 94.4629 113.807 94.4171C119.159 94.1376 123.967 98.8905 123.688 104.203C123.663 105.276 123.412 106.332 122.951 107.301C122.489 108.27 121.828 109.131 121.011 109.827C120.194 110.523 119.239 111.038 118.208 111.339C117.178 111.64 116.095 111.719 115.032 111.572Z" fill="white"/>
<path d="M123.403 119.591C122.268 119.468 121.228 118.902 120.508 118.016C119.789 117.13 119.448 115.996 119.561 114.86C119.632 114.031 120.006 113.258 120.612 112.687C121.217 112.117 122.012 111.79 122.843 111.768C123.437 111.753 124.027 111.858 124.578 112.077C125.13 112.296 125.631 112.624 126.052 113.042C126.473 113.46 126.805 113.959 127.028 114.509C127.252 115.059 127.361 115.648 127.35 116.241C127.338 116.73 127.222 117.21 127.011 117.651C126.8 118.092 126.498 118.483 126.126 118.799C125.753 119.115 125.318 119.349 124.849 119.486C124.379 119.622 123.887 119.658 123.403 119.591Z" fill="white"/>
<path d="M128.15 125.518C127.533 125.45 126.967 125.141 126.576 124.659C126.186 124.176 126.002 123.558 126.064 122.94C126.103 122.49 126.306 122.07 126.635 121.76C126.964 121.451 127.396 121.273 127.848 121.263C128.17 121.254 128.49 121.311 128.79 121.43C129.089 121.549 129.362 121.727 129.59 121.953C129.819 122.18 130 122.451 130.121 122.749C130.243 123.048 130.303 123.367 130.297 123.689C130.291 123.956 130.229 124.218 130.114 124.458C130 124.698 129.836 124.912 129.633 125.085C129.43 125.257 129.193 125.385 128.938 125.46C128.682 125.534 128.414 125.554 128.15 125.518Z" fill="white"/>
<path d="M137.41 66.9341C136.912 71.4522 134.139 74.6227 130.459 75.1315C125.567 75.8081 121.87 71.9275 122.804 67.0851C123.526 63.3387 127.568 59.8159 131.354 59.6594C134.955 59.4972 137.399 61.9743 137.449 65.8437C137.46 66.3023 137.415 66.7608 137.41 66.9341Z" fill="white"/>
<path d="M149.32 64.0096C149.024 66.7104 147.363 68.606 145.16 68.9135C144.511 69.0338 143.842 68.9902 143.214 68.7866C142.587 68.583 142.02 68.226 141.565 67.7478C141.11 67.2696 140.782 66.6855 140.61 66.0483C140.438 65.4112 140.428 64.7412 140.58 64.0991C141.016 61.8624 143.432 59.7544 145.697 59.6258C147.849 59.5307 149.314 61.0125 149.348 63.3275C149.32 63.6015 149.32 63.8754 149.32 64.0096Z" fill="white"/>
<path d="M157.78 62.1141C157.629 63.4617 156.802 64.4123 155.7 64.5632C155.376 64.6245 155.041 64.6036 154.727 64.5024C154.412 64.4013 154.128 64.2231 153.9 63.9841C153.672 63.7451 153.508 63.4529 153.422 63.1341C153.336 62.8153 153.331 62.48 153.407 62.1588C153.557 61.5701 153.882 61.0408 154.339 60.6413C154.797 60.2417 155.365 59.9909 155.968 59.9222C156.215 59.9052 156.462 59.9416 156.692 60.029C156.923 60.1164 157.132 60.2527 157.305 60.4285C157.479 60.6043 157.612 60.8155 157.696 61.0476C157.779 61.2796 157.812 61.5271 157.791 61.773C157.791 61.924 157.78 62.0638 157.78 62.1141Z" fill="white"/>
<path d="M86.6933 102.531C85.821 100.137 85.424 98.1523 86.9841 96.486C88.5441 94.8196 90.5963 94.8085 92.6149 95.4515C96.9596 96.827 99.8841 99.6732 100.84 104.186C101.623 107.938 98.967 110.46 95.2038 109.57C91.0492 108.592 88.3149 105.835 86.6933 102.531Z" fill="white"/>
<path d="M85.575 113.982C85.0885 112.657 84.8704 111.556 85.7371 110.627C86.6038 109.699 87.7389 109.705 88.8573 110.068C91.2729 110.834 92.9 112.411 93.4201 114.916C93.8562 116.996 92.3856 118.4 90.2943 117.902C89.2619 117.649 88.3005 117.165 87.4828 116.486C86.6652 115.807 86.0128 114.951 85.575 113.982Z" fill="white"/>
<path d="M84.6635 121.822C84.3895 121.078 84.2665 120.458 84.753 119.938C84.9791 119.715 85.2669 119.566 85.579 119.509C85.8911 119.452 86.2131 119.49 86.5032 119.619C87.1433 119.783 87.7237 120.126 88.177 120.607C88.6303 121.088 88.9379 121.688 89.0641 122.336C89.1401 122.577 89.1471 122.835 89.0842 123.08C89.0213 123.325 88.8911 123.547 88.7083 123.722C88.5256 123.896 88.2975 124.016 88.0501 124.068C87.8027 124.119 87.5457 124.101 87.3084 124.014C86.7298 123.874 86.1909 123.603 85.7326 123.224C85.2743 122.844 84.9087 122.364 84.6635 121.822Z" fill="white"/>
<path d="M85.821 84.7827C85.4855 86.8908 85.2618 89.0268 84.781 91.1069C84.5014 92.3203 83.8192 93.5057 82.3877 93.6567C80.9563 93.8076 80.179 92.7955 79.5639 91.7387C78.315 89.6356 77.5205 87.2942 77.2316 84.8653C76.9427 82.4364 77.1657 79.974 77.8864 77.6365C77.9601 77.3999 78.0575 77.1714 78.1772 76.9544C79.2955 74.7177 81.3197 74.3878 82.7232 76.4343C83.6671 77.9532 84.4184 79.5836 84.9599 81.2879C85.2648 82.4046 85.4706 83.546 85.575 84.6988L85.821 84.7827Z" fill="white"/>
<path d="M75.2583 88.613C75.18 89.8152 75.1577 91.0286 75.0067 92.2196C75.0031 92.5758 74.8831 92.921 74.6651 93.2027C74.447 93.4843 74.1428 93.687 73.7989 93.7797C73.0328 93.9306 72.5072 93.4106 72.1214 92.8515C71.3117 91.7356 70.7441 90.4627 70.4553 89.1146C70.1664 87.7665 70.1625 86.3728 70.4439 85.0231C70.4732 84.8868 70.5163 84.7537 70.5725 84.6261C71.0366 83.3121 72.155 83.0213 73.072 84.1005C73.6846 84.9029 74.1955 85.7782 74.5929 86.7062C74.8235 87.3252 74.9994 87.9632 75.1185 88.613H75.2583Z" fill="white"/>
<path d="M68.8391 91.9345C68.9229 92.5608 69.0348 93.1814 69.0739 93.8077C69.1097 93.9898 69.0841 94.1785 69.0011 94.3444C68.9181 94.5104 68.7825 94.6441 68.6154 94.7247C68.4473 94.7724 68.2689 94.7691 68.1027 94.7154C67.9365 94.6616 67.79 94.5598 67.6816 94.4228C67.1497 93.9372 66.7255 93.3453 66.4366 92.6856C66.1476 92.0258 66.0003 91.3128 66.0041 90.5925C65.9986 90.5199 65.9986 90.447 66.0041 90.3744C66.1327 89.6475 66.6751 89.3847 67.2454 89.8488C67.6394 90.1956 67.9888 90.5901 68.2855 91.0231C68.4741 91.3228 68.635 91.6391 68.7664 91.9681L68.8391 91.9345Z" fill="white"/>
<path d="M113.226 57.4898C112.219 56.7181 111.202 55.6054 111.381 53.8832C111.47 53.1239 111.78 52.4073 112.271 51.8221C112.763 51.2368 113.416 50.8083 114.148 50.5897C116.122 49.8347 118.246 49.5576 120.347 49.7812C122.449 50.0047 124.467 50.7225 126.238 51.8758C128.15 53.0556 128.273 54.4591 126.914 56.008C123.99 59.3127 117.14 60.1738 113.226 57.4898Z" fill="white"/>
<path d="M121.736 48.4257C121.382 48.2035 121.095 47.8898 120.905 47.5176C120.715 47.1455 120.629 46.7289 120.657 46.312C120.705 45.8637 120.884 45.4397 121.173 45.0933C121.462 44.747 121.846 44.4939 122.279 44.3661C123.434 43.9244 124.677 43.7625 125.906 43.8937C127.136 44.0249 128.316 44.4455 129.352 45.121C130.47 45.8088 130.543 46.6363 129.749 47.5366C128.038 49.4713 124.029 49.9969 121.736 48.4257Z" fill="white"/>
<path d="M128.547 42.3867C128.365 42.2754 128.217 42.1166 128.118 41.9275C128.02 41.7383 127.975 41.5259 127.988 41.3131C128.013 41.0863 128.104 40.8719 128.25 40.6968C128.396 40.5217 128.591 40.3937 128.81 40.3289C129.396 40.105 130.026 40.0227 130.65 40.0888C131.274 40.1549 131.873 40.3674 132.4 40.7092C132.519 40.7529 132.624 40.8274 132.705 40.9251C132.785 41.0229 132.839 41.1404 132.859 41.2655C132.88 41.3906 132.867 41.519 132.821 41.6374C132.776 41.7558 132.7 41.86 132.601 41.9393C132.062 42.4383 131.377 42.751 130.648 42.8316C129.918 42.9121 129.181 42.7561 128.547 42.3867Z" fill="white"/>
<path d="M105.588 48.7779C105.893 48.8704 106.194 48.9787 106.488 49.1022C107.875 49.7397 108.165 50.6567 107.483 52.0099C107.428 52.1395 107.356 52.2616 107.271 52.3734C103.882 56.3546 99.7107 58.7758 94.3483 58.7479C93.7492 58.7188 93.161 58.5765 92.6149 58.3285C92.2948 58.2238 92.0002 58.0531 91.7503 57.8273C91.5004 57.6015 91.3008 57.3258 91.1642 57.0179C91.0277 56.7101 90.9574 56.377 90.9578 56.0402C90.9582 55.7034 91.0293 55.3705 91.1666 55.063C91.4646 54.2737 91.9021 53.5445 92.4583 52.9102C95.1199 49.8739 101.455 47.8721 105.588 48.7779Z" fill="white"/>
<path d="M100.242 42.4649C100.331 42.4985 100.527 42.5544 100.712 42.6383C100.866 42.678 101.008 42.7555 101.125 42.8638C101.242 42.972 101.33 43.1077 101.382 43.2585C101.433 43.4093 101.447 43.5706 101.42 43.7278C101.394 43.885 101.329 44.0333 101.232 44.1592C101.203 44.2274 101.166 44.2913 101.12 44.3493C99.3472 46.4294 97.1665 47.7043 94.3594 47.7043C94.0464 47.6897 93.739 47.6157 93.4536 47.4862C93.2846 47.4332 93.1287 47.3448 92.9963 47.227C92.8639 47.1093 92.758 46.9648 92.6856 46.8031C92.6132 46.6413 92.576 46.4661 92.5763 46.2889C92.5766 46.1117 92.6145 45.9366 92.6875 45.7752C92.8424 45.364 93.0718 44.9849 93.3641 44.6569C94.7676 43.0409 98.0779 41.9952 100.242 42.4649Z" fill="white"/>
<path d="M98.2736 38.9031C98.35 38.9235 98.4248 38.9497 98.4973 38.9814C98.5694 38.9999 98.6358 39.0361 98.6904 39.0867C98.745 39.1373 98.7861 39.2008 98.81 39.2713C98.8339 39.3418 98.8398 39.4172 98.8272 39.4906C98.8145 39.564 98.7838 39.633 98.7377 39.6915C98.7256 39.7237 98.7086 39.7539 98.6874 39.781C98.3138 40.2652 97.8344 40.6575 97.2858 40.9279C96.7373 41.1983 96.1341 41.3397 95.5225 41.3411C95.3701 41.3371 95.2199 41.3029 95.0808 41.2404C95.0018 41.2147 94.929 41.1727 94.8673 41.1171C94.8056 41.0614 94.7563 40.9934 94.7225 40.9175C94.6888 40.8416 94.6714 40.7594 94.6714 40.6763C94.6715 40.5932 94.689 40.5111 94.7229 40.4352C94.8089 40.2395 94.9302 40.0613 95.0808 39.9096C95.5054 39.5162 96.0121 39.2218 96.5642 39.0478C97.1163 38.8737 97.7001 38.8243 98.2736 38.9031Z" fill="white"/>
</svg>
