<svg width="423" height="240" viewBox="0 0 423 240" fill="none" xmlns="http://www.w3.org/2000/svg">
<rect width="420" height="240" fill="#9BCA85"/>
<rect x="2.5" y="160.5" width="415" height="27" fill="#FFBF85" stroke="#FFA553" stroke-width="5"/>
<rect x="2.5" y="192.5" width="415" height="45" fill="#C181E9" stroke="#B262E3" stroke-width="5"/>
<path d="M219.48 185.741C221.372 195.577 209.452 196.714 209.452 196.714C209.452 196.714 192.662 199.593 193.654 182.447C193.654 172.126 202.282 177.372 207.185 177.372C210.584 177.372 216.912 172.385 219.48 185.741Z" fill="white"/>
<path d="M219.48 185.741C221.372 195.577 209.452 196.714 209.452 196.714C209.452 196.714 192.662 199.593 193.654 182.447C193.654 172.126 202.282 177.372 207.185 177.372C210.584 177.372 216.912 172.385 219.48 185.741Z" fill="white"/>
<path d="M211.432 186.467C214.303 188.995 214.168 191.426 213.101 192.885" stroke="#D9D9D9" stroke-width="0.7" stroke-linecap="round"/>
<path d="M205.344 187.771C207.951 191.682 204.343 193.633 203.68 194.357" stroke="#D9D9D9" stroke-width="0.7" stroke-linecap="round"/>
<path d="M136.879 188.396C149.567 193.199 150.716 191.002 148.816 184.583C148.063 173.547 153.3 174.839 140.207 174.839C124.494 173.547 123.185 164.496 121.875 169.668C121.165 172.473 124.192 183.593 136.879 188.396Z" fill="#EAEAEA"/>
<path d="M136.879 188.396C149.567 193.199 150.716 191.002 148.816 184.583C148.063 173.547 153.3 174.839 140.207 174.839C124.494 173.547 123.185 164.496 121.875 169.668C121.165 172.473 124.192 183.593 136.879 188.396Z" fill="#EAEAEA"/>
<path fill-rule="evenodd" clip-rule="evenodd" d="M139.326 167.57C139.407 167.219 139.492 166.864 139.582 166.506C142.064 156.592 144.967 149.663 148.121 144.869C153.688 145.62 158.844 151.918 157.377 156.789C153.798 168.669 143.357 169.599 140.608 169.515C140.099 169.5 139.643 168.985 139.326 167.57Z" fill="#EAEAEA"/>
<path fill-rule="evenodd" clip-rule="evenodd" d="M139.535 168.409C133.551 202.743 175.719 193.017 175.719 193.017C175.719 193.017 227.728 194.754 218.611 147.767C215.836 126.227 201.273 131.106 187.895 135.587C183.564 137.038 179.358 138.448 175.716 138.905C173.488 139.185 170.988 138.733 168.343 138.255C161.493 137.016 153.68 135.604 147.154 146.29C151.549 147.223 155.486 152.659 154.321 156.892C151.394 167.531 142.301 168.527 140.052 168.452C139.862 168.446 139.69 168.432 139.535 168.409Z" fill="white"/>
<path d="M212 136C192.446 152.947 171.451 153.878 151.897 143.449" stroke="#23CBB7" stroke-width="4" stroke-linecap="square"/>
<path fill-rule="evenodd" clip-rule="evenodd" d="M172.488 63.9415C172.865 62.4853 174.134 60.8484 176.809 58.8206C177.553 58.2569 178.265 57.7106 178.945 57.1889L178.946 57.1884L178.946 57.1882C183.91 53.3804 187.163 50.8848 188.457 52.4994C189.076 53.2709 189.496 56.2238 188.123 59.9932C188.235 59.905 188.351 59.8158 188.47 59.7257C189.06 59.2781 189.625 58.8445 190.165 58.4303C194.104 55.4087 196.686 53.4284 197.713 54.7096C198.464 55.6466 198.847 60.6377 194.323 65.8009C210.036 70.7026 222.072 83.078 224.419 98.9348C227.804 121.804 209.752 143.255 184.098 146.846C158.444 150.437 134.903 134.809 131.518 111.94C128.133 89.0702 146.186 67.6195 171.84 64.0283C172.056 63.998 172.272 63.9691 172.488 63.9415Z" fill="white"/>
<ellipse cx="181.84" cy="132.334" rx="13.0359" ry="9.12516" transform="rotate(-8.97326 181.84 132.334)" fill="#D9D9D9"/>
<path d="M186.204 122.559C186.479 124.702 184.387 126.736 181.531 127.103C178.675 127.47 176.136 126.032 175.86 123.889C175.585 121.747 177.677 119.713 180.533 119.346C183.39 118.978 185.928 120.417 186.204 122.559Z" fill="#383838"/>
<ellipse cx="163.629" cy="104.341" rx="3.91078" ry="3.91078" fill="#383838"/>
<circle cx="194.915" cy="99.1266" r="16.9467" fill="#D9D9D9"/>
<path d="M238.618 97.985C244.066 115.252 240.813 115.369 228.12 117.196C215.427 119.023 206.057 118.905 203.386 100.349C200.715 81.7918 197.758 69.2513 205.282 68.1684C210.496 67.4179 231.221 74.54 238.618 97.985Z" fill="#EAEAEA"/>
<path d="M238.618 97.985C244.066 115.252 240.813 115.369 228.12 117.196C215.427 119.023 206.057 118.905 203.386 100.349C200.715 81.7918 197.758 69.2513 205.282 68.1684C210.496 67.4179 231.221 74.54 238.618 97.985Z" fill="#EAEAEA"/>
<ellipse cx="194.915" cy="99.1266" rx="3.91078" ry="3.91078" fill="#383838"/>
<path d="M118.39 117.618C117.882 136.866 123.218 136.931 134.95 130.413C147.986 130.413 155.478 130.152 152.958 110.343C150.438 90.5335 149.843 76.8293 142.303 77.7885C137.077 78.4534 119.079 91.4824 118.39 117.618Z" fill="#EAEAEA"/>
<path d="M118.39 117.618C117.882 136.866 123.218 136.931 134.95 130.413C147.986 130.413 155.478 130.152 152.958 110.343C150.438 90.5335 149.843 76.8293 142.303 77.7885C137.077 78.4534 119.079 91.4824 118.39 117.618Z" fill="#EAEAEA"/>
<path d="M181.88 126.502C181.88 135.888 175.796 135.627 172.754 134.324" stroke="#383838" stroke-width="1.5" stroke-linecap="round"/>
<path d="M181.636 125.973C184.065 135.039 189.167 133.402 191.415 131.45" stroke="#383838" stroke-width="1.5" stroke-linecap="round"/>
<circle cx="184.487" cy="153.878" r="6.01797" fill="#FFE39B" stroke="#FFD233"/>
<path d="M162.098 166L162.098 158.274C162.098 156.525 161.443 154.84 160.263 153.55L157.137 150.133C153.752 146.433 155.242 140.479 159.969 138.808L167.914 136" stroke="#3D3D3D" stroke-width="3" stroke-linecap="round"/>
<path d="M165.136 193.563C163.245 203.399 175.164 204.536 175.164 204.536C175.164 204.536 191.955 207.415 190.962 190.269C190.962 179.948 182.335 185.193 177.431 185.193C174.033 185.193 167.705 180.207 165.136 193.563Z" fill="white"/>
<path d="M165.136 193.563C163.245 203.399 175.164 204.536 175.164 204.536C175.164 204.536 191.955 207.415 190.962 190.269C190.962 179.948 182.335 185.193 177.431 185.193C174.033 185.193 167.705 180.207 165.136 193.563Z" fill="white"/>
<path d="M183.039 194.291C185.11 197.42 184.17 200.158 183.039 200.807" stroke="#D9D9D9" stroke-width="0.7" stroke-linecap="round"/>
<path d="M173.906 194.289C174.587 197.34 172.192 200.308 171.451 200.807" stroke="#D9D9D9" stroke-width="0.7" stroke-linecap="round"/>
<rect x="23" y="110" width="30" height="30" rx="4" fill="white"/>
<rect x="27" y="114" width="22" height="22" rx="3" fill="white" stroke="#D9D9D9" stroke-width="2"/>
<circle cx="38.5" cy="124.5" r="7.5" fill="#EDEDED"/>
<circle cx="42.5" cy="124.5" r="1.5" fill="#505050"/>
<circle cx="42.5" cy="124.5" r="1.5" fill="#505050"/>
<circle cx="34.5" cy="124.5" r="1.5" fill="#505050"/>
<circle cx="34.5" cy="124.5" r="1.5" fill="#505050"/>
<path d="M421 140C410.752 124.438 378.082 136.61 363.236 139.602C361.78 139.896 360.43 140.562 359.372 141.605L325.5 175L303.229 199.841C301.048 202.274 297.473 202.874 294.617 201.287L277.689 191.883C274.696 190.22 273.345 186.635 274.497 183.41L281.659 163.354C283.287 158.796 279.908 154 275.067 154H253.134C250.325 154 247.787 152.32 246.69 149.734L245.043 145.852C243.363 141.891 246.27 137.5 250.573 137.5V137.5C255.088 137.5 257.989 142.294 255.894 146.294L247.021 163.233C245.318 166.483 241.394 167.867 238.029 166.404L211.464 154.854C210.184 154.297 209.099 153.371 208.35 152.193L195.5 132" stroke="#3D3D3D" stroke-width="3" stroke-linecap="round"/>
<path d="M154 173C154 169.134 157.134 166 161 166H163C166.866 166 170 169.134 170 173V178C170 180.209 168.209 182 166 182H158C155.791 182 154 180.209 154 178V173Z" fill="#61698E"/>
<line x1="159" y1="182" x2="159" y2="189" stroke="#FFB629" stroke-width="2"/>
<line x1="165" y1="182" x2="165" y2="189" stroke="#FFB629" stroke-width="2"/>
<g clip-path="url(#clip0_2_2)">
<path d="M314.034 25.8966V35.5517H338.172V110.379H314.034V120.034H405.759V25.8966H314.034Z" fill="#6C4127"/>
<path d="M413 9H273V25.8966H413V9Z" fill="#7383BF"/>
<path d="M314.034 25.8966H275.414V149H314.034V25.8966Z" fill="#DD352E"/>
<path d="M282.655 25.8966V149" stroke="#B02721" stroke-width="2" stroke-miterlimit="10"/>
<path d="M292.31 25.8966V149" stroke="#B02721" stroke-width="2" stroke-miterlimit="10"/>
<path d="M299.552 25.8966V149" stroke="#B02721" stroke-width="2" stroke-miterlimit="10"/>
<path d="M306.793 25.8966V149" stroke="#B02721" stroke-width="2" stroke-miterlimit="10"/>
<path d="M396.103 110.379H347.828V76.5862H345.414V69.3448H347.828V35.5517H396.103V110.379Z" fill="#7FABDA"/>
<path d="M338.172 35.5517H314.034V110.379H338.172V35.5517Z" fill="#7FABDA"/>
<path d="M384.034 35.5517L347.828 69.3448V98.3103L396.103 54.8621V35.5517H384.034Z" fill="#A1C8EC"/>
<path d="M364.724 69.3448H345.414V76.5862H364.724V69.3448Z" fill="#BFA380"/>
<path d="M328.517 35.5517L314.034 50.0345V76.5862L338.172 52.4483V35.5517H328.517Z" fill="#A1C8EC"/>
</g>
<g clip-path="url(#clip1_2_2)">
<path d="M89.3876 33.8607L72.8792 22.9583L61.0952 38.8497L57.3559 36.2314L70.449 18.4705C71.1722 17.4377 72.5948 17.1869 73.6277 17.91L92.0058 30.1216L89.3876 33.8607Z" fill="#884E00"/>
<path d="M116.298 80.787L51.8574 92.1496C50.6156 92.3685 49.432 91.5398 49.213 90.298L40.4929 40.8436C40.2739 39.6018 41.1027 38.4182 42.3445 38.1992L106.785 26.8366C108.027 26.6176 109.211 27.4464 109.43 28.6882L118.15 78.1426C118.369 79.3844 117.54 80.568 116.298 80.787Z" fill="#FF9811"/>
<path d="M106.785 26.8366L74.5648 32.5179L84.0777 86.4683L116.298 80.787C117.54 80.568 118.369 79.3844 118.15 78.1426L109.429 28.6882C109.21 27.4464 108.027 26.6176 106.785 26.8366Z" fill="#EE8700"/>
<path d="M105.721 73.3807L59.2635 81.5724C58.0217 81.7913 56.8381 80.9626 56.6192 79.7207L51.07 48.2497C50.851 47.0079 51.6798 45.8243 52.9216 45.6054L99.3788 37.4137C100.621 37.1948 101.804 38.0235 102.023 39.2653L107.572 70.7363C107.791 71.9781 106.963 73.1617 105.721 73.3807Z" fill="white"/>
<path d="M99.3789 37.4138L76.1503 41.5097L82.4922 77.4765L105.721 73.3807C106.963 73.1617 107.791 71.9781 107.572 70.7363L102.023 39.2653C101.804 38.0237 100.621 37.1949 99.3789 37.4138Z" fill="#E1E3FA"/>
<path d="M107.572 70.7363L105.294 57.8165L89.535 46.7818C88.5022 46.0586 87.0795 46.3095 86.3562 47.3423L76.1496 61.9193L95.4178 75.1974L105.721 73.3807C106.963 73.1617 107.791 71.9781 107.572 70.7363Z" fill="#5EAC24"/>
<path d="M107.572 70.7363L105.294 57.8165L89.535 46.7818C89.0185 46.4201 88.4046 46.302 87.8295 46.4034L92.5825 73.3592L95.4178 75.1974L105.721 73.3807C106.963 73.1617 107.791 71.9781 107.572 70.7363Z" fill="#4E901E"/>
<path d="M72.873 57.4461C71.8402 56.7229 70.4175 56.9737 69.6942 58.0066L56.1909 77.2912L56.6193 79.7207C56.8383 80.9625 58.0219 81.7913 59.2637 81.5723L97.66 74.802L72.873 57.4461Z" fill="#7ED63E"/>
<path d="M74.9991 78.7977L97.6598 74.802L72.873 57.4461C72.3565 57.0844 71.7426 56.9662 71.1675 57.0676L74.9991 78.7977Z" fill="#6DC82A"/>
<path d="M62.3692 61.8641C66.8665 61.0711 69.866 56.7632 69.0689 52.2421C68.2717 47.7209 63.9796 44.6987 59.4823 45.4917C54.9849 46.2847 51.9854 50.5926 52.7826 55.1138C53.5798 59.6349 57.8718 62.6571 62.3692 61.8641Z" fill="#FFDA44"/>
</g>
<defs>
<clipPath id="clip0_2_2">
<rect width="140" height="140" fill="white" transform="translate(273 9)"/>
</clipPath>
<clipPath id="clip1_2_2">
<rect width="70" height="70" fill="white" transform="translate(37.454 23.6094) rotate(-10)"/>
</clipPath>
</defs>
</svg>
