<svg width="130" height="153" viewBox="0 0 130 153" fill="none" xmlns="http://www.w3.org/2000/svg">
<path d="M106.48 133.741C108.372 143.577 96.4522 144.714 96.4522 144.714C96.4522 144.714 79.6617 147.593 80.6542 130.447C80.6542 120.126 89.2817 125.372 94.1851 125.372C97.5837 125.372 103.912 120.385 106.48 133.741Z" fill="white"/>
<path d="M106.48 133.741C108.372 143.577 96.4522 144.714 96.4522 144.714C96.4522 144.714 79.6617 147.593 80.6542 130.447C80.6542 120.126 89.2817 125.372 94.1851 125.372C97.5837 125.372 103.912 120.385 106.48 133.741Z" fill="white"/>
<path d="M98.432 134.467C101.303 136.995 101.168 139.426 100.101 140.885" stroke="#D9D9D9" stroke-width="0.7" stroke-linecap="round"/>
<path d="M92.3442 135.771C94.9514 139.682 91.3431 141.633 90.68 142.357" stroke="#D9D9D9" stroke-width="0.7" stroke-linecap="round"/>
<path d="M23.8794 136.396C36.5667 141.199 37.7155 139.002 35.8156 132.583C35.063 121.547 40.3004 122.839 27.2067 122.839C11.4941 121.547 10.1848 112.496 8.87534 117.668C8.16521 120.473 11.192 131.593 23.8794 136.396Z" fill="#EAEAEA"/>
<path d="M23.8794 136.396C36.5667 141.199 37.7155 139.002 35.8156 132.583C35.063 121.547 40.3004 122.839 27.2067 122.839C11.4941 121.547 10.1848 112.496 8.87534 117.668C8.16521 120.473 11.192 131.593 23.8794 136.396Z" fill="#EAEAEA"/>
<path fill-rule="evenodd" clip-rule="evenodd" d="M26.3264 115.57C26.4067 115.219 26.4918 114.864 26.5816 114.506C29.064 104.592 31.9674 97.6635 35.1206 92.8692C40.6881 93.6203 45.8442 99.9179 44.3767 104.789C40.7979 116.669 30.3568 117.599 27.6078 117.515C27.0995 117.5 26.6431 116.985 26.3264 115.57Z" fill="#EAEAEA"/>
<path fill-rule="evenodd" clip-rule="evenodd" d="M26.5349 116.409C20.551 150.743 62.7187 141.017 62.7187 141.017C62.7187 141.017 114.728 142.754 105.611 95.7666C102.836 74.2267 88.2725 79.1058 74.8954 83.5873C70.5643 85.0382 66.3576 86.4475 62.7157 86.905C60.4881 87.1848 57.9875 86.7327 55.3433 86.2547C48.4934 85.0162 40.68 83.6036 34.1542 94.2901C38.5493 95.2231 42.4857 100.659 41.321 104.892C38.3939 115.531 29.3006 116.527 27.0522 116.452C26.8616 116.446 26.6897 116.432 26.5349 116.409Z" fill="white"/>
<path d="M100.166 83.6273C80.6119 100.574 58.4508 101.878 38.8968 91.4488" stroke="#23CBB7" stroke-width="2" stroke-linecap="square"/>
<path fill-rule="evenodd" clip-rule="evenodd" d="M59.4885 11.9415C59.8654 10.4853 61.1342 8.84837 63.8091 6.8206C64.5527 6.25687 65.2649 5.71057 65.945 5.18889L65.9457 5.18837L65.9458 5.18824C70.9099 1.38037 74.1632 -1.11524 75.4574 0.499361C76.0758 1.2709 76.4964 4.22383 75.1232 7.99324C75.2352 7.90499 75.3506 7.81581 75.4695 7.72565C76.0599 7.27813 76.6252 6.84446 77.1651 6.43035C81.1041 3.4087 83.6858 1.42836 84.7127 2.70959C85.4637 3.64656 85.8472 8.63775 81.3232 13.8009C97.0356 18.7026 109.072 31.078 111.419 46.9348C114.804 69.8043 96.7519 91.2549 71.0979 94.8461C45.4439 98.4373 21.9031 82.8092 18.5181 59.9397C15.1331 37.0702 33.1856 15.6195 58.8396 12.0283C59.0561 11.998 59.2723 11.9691 59.4885 11.9415Z" fill="white"/>
<ellipse cx="68.8397" cy="80.3345" rx="13.0359" ry="9.12516" transform="rotate(-8.97326 68.8397 80.3345)" fill="#D9D9D9"/>
<path d="M73.2039 70.5594C73.4793 72.7016 71.3871 74.736 68.5308 75.1032C65.6745 75.4705 63.1357 74.0316 62.8603 71.8894C62.5848 69.7471 64.677 67.7128 67.5333 67.3455C70.3897 66.9783 72.9284 68.4171 73.2039 70.5594Z" fill="#383838"/>
<ellipse cx="50.6292" cy="52.341" rx="3.91078" ry="3.91078" fill="#383838"/>
<circle cx="81.9155" cy="47.1266" r="16.9467" fill="#D9D9D9"/>
<path d="M125.618 45.985C131.066 63.2517 127.813 63.3688 115.12 65.1959C102.427 67.023 93.057 66.9054 90.3859 48.3486C87.7147 29.7918 84.7584 17.2514 92.2818 16.1684C97.4962 15.4179 118.221 22.54 125.618 45.985Z" fill="#EAEAEA"/>
<path d="M125.618 45.985C131.066 63.2517 127.813 63.3688 115.12 65.1959C102.427 67.023 93.057 66.9054 90.3859 48.3486C87.7147 29.7918 84.7584 17.2514 92.2818 16.1684C97.4962 15.4179 118.221 22.54 125.618 45.985Z" fill="#EAEAEA"/>
<ellipse cx="81.9155" cy="47.1266" rx="3.91078" ry="3.91078" fill="#383838"/>
<path d="M5.38981 65.6182C4.88236 84.8665 10.2178 84.9309 21.9501 78.4129C34.9861 78.4129 42.4775 78.1525 39.9575 58.343C37.4376 38.5335 36.8429 24.8293 29.3027 25.7885C24.0767 26.4534 6.07884 39.4824 5.38981 65.6182Z" fill="#EAEAEA"/>
<path d="M5.38981 65.6182C4.88236 84.8665 10.2178 84.9309 21.9501 78.4129C34.9861 78.4129 42.4775 78.1525 39.9575 58.343C37.4376 38.5335 36.8429 24.8293 29.3027 25.7885C24.0767 26.4534 6.07884 39.4824 5.38981 65.6182Z" fill="#EAEAEA"/>
<path d="M68.8795 74.5021C68.8795 83.888 62.7961 83.6273 59.7543 82.3237" stroke="#383838" stroke-width="0.7" stroke-linecap="round"/>
<path d="M68.6357 73.9727C71.065 83.0388 76.1671 81.4017 78.4145 79.45" stroke="#383838" stroke-width="0.7" stroke-linecap="round"/>
<circle cx="71.4867" cy="101.878" r="6.01797" fill="#FFE39B" stroke="#FFD233"/>
<path d="M52.1363 141.563C50.2446 151.399 62.1644 152.536 62.1644 152.536C62.1644 152.536 78.9549 155.415 77.9624 138.269C77.9624 127.948 69.3349 133.193 64.4314 133.193C61.0329 133.193 54.705 128.207 52.1363 141.563Z" fill="white"/>
<path d="M52.1363 141.563C50.2446 151.399 62.1644 152.536 62.1644 152.536C62.1644 152.536 78.9549 155.415 77.9624 138.269C77.9624 127.948 69.3349 133.193 64.4314 133.193C61.0329 133.193 54.705 128.207 52.1363 141.563Z" fill="white"/>
<path d="M70.0393 142.291C72.1102 145.42 71.1696 148.158 70.0393 148.807" stroke="#D9D9D9" stroke-width="0.7" stroke-linecap="round"/>
<path d="M60.9064 142.289C61.5872 145.34 59.1919 148.308 58.4508 148.807" stroke="#D9D9D9" stroke-width="0.7" stroke-linecap="round"/>
</svg>
