<svg width="320" height="320" viewBox="0 0 320 320" fill="none" xmlns="http://www.w3.org/2000/svg">
<rect width="320" height="320" rx="80" fill="#CACACA"/>
<g clip-path="url(#clip0_1_20)">
<path d="M10 214.325C10 251.92 40.5854 282.507 78.182 282.507C85.7131 282.507 91.8186 276.401 91.8186 268.871V159.78C91.8186 152.248 85.7131 146.143 78.182 146.143C73.5127 146.143 68.9541 146.616 64.5455 147.515C54.4744 149.568 45.2055 153.848 37.273 159.817C20.7238 172.268 10 192.066 10 214.325Z" fill="#EE8700"/>
<path d="M282.728 159.817C274.795 153.849 265.526 149.568 255.455 147.516C251.047 146.617 246.488 146.144 241.819 146.144C234.287 146.144 228.182 152.248 228.182 159.78V268.871C228.182 276.401 234.287 282.508 241.819 282.508C279.414 282.508 310.001 251.921 310.001 214.326C310 192.066 299.276 172.268 282.728 159.817Z" fill="#FFB655"/>
<path d="M160 17.4926C92.3271 17.4926 37.2725 72.5479 37.2725 140.22V159.817C45.2055 153.849 54.4744 149.568 64.5449 147.516V140.221C64.5449 87.5871 107.365 44.7662 159.999 44.7662C212.634 44.7662 255.454 87.5871 255.454 140.221V147.515C265.525 149.568 274.794 153.848 282.726 159.817V140.22C282.728 72.5484 227.673 17.4926 160 17.4926Z" fill="#6E76E5"/>
<path d="M37.2725 140.22V159.817C45.2055 153.849 54.4744 149.568 64.5449 147.516V140.221C64.5449 87.5871 107.365 44.7662 159.999 44.7662V17.4937C92.3271 17.4926 37.2725 72.5484 37.2725 140.22Z" fill="#424EDE"/>
<g clip-path="url(#clip1_1_20)">
<path d="M179.66 219.661C179.66 208.82 170.841 200 159.999 200C149.159 200 140.34 208.82 140.34 219.649L140.278 243.914C140.278 254.789 149.125 263.636 159.999 263.636C170.875 263.636 179.722 254.789 179.722 243.903L179.66 219.661Z" fill="#6E76E5"/>
<path d="M159.999 263.636V200C149.159 200 140.34 208.82 140.34 219.649L140.278 243.914C140.278 254.789 149.125 263.636 159.999 263.636Z" fill="#424EDE"/>
<path d="M194.874 246.957C194.874 244.447 192.839 242.412 190.329 242.412C187.818 242.412 185.783 244.447 185.783 246.957C185.783 261.118 174.305 272.646 160.163 272.735C160.109 272.734 160.055 272.727 160 272.727C160 272.727 159.999 272.727 159.999 272.727C159.944 272.727 159.89 272.734 159.836 272.735C145.695 272.646 134.217 261.119 134.217 246.957C134.217 244.447 132.182 242.412 129.671 242.412C127.161 242.412 125.126 244.447 125.126 246.957C125.126 264.646 138.364 279.3 155.454 281.534V290.909H145.454C142.944 290.909 140.909 292.944 140.909 295.454C140.909 297.965 142.944 300 145.454 300H159.999H160H174.546C177.056 300 179.091 297.965 179.091 295.454C179.091 292.944 177.056 290.909 174.546 290.909H164.545V281.534C181.635 279.3 194.874 264.646 194.874 246.957Z" fill="#FFB655"/>
<path d="M159.999 272.727C159.944 272.727 159.89 272.734 159.836 272.736C145.695 272.647 134.217 261.119 134.217 246.957C134.217 244.447 132.182 242.412 129.671 242.412C127.161 242.412 125.126 244.447 125.126 246.957C125.126 264.646 138.364 279.3 155.454 281.534V290.909H145.454C142.944 290.909 140.909 292.944 140.909 295.455C140.909 297.965 142.944 300 145.454 300H159.999H160V272.727C160 272.727 159.999 272.727 159.999 272.727Z" fill="#EE8700"/>
</g>
<path d="M118.415 168.17C117.962 168.17 117.31 168.113 116.46 168C115.667 167.887 114.958 167.632 114.335 167.235C113.768 166.838 113.513 166.187 113.57 165.28L119.18 111.9C119.407 109.633 120.653 108.5 122.92 108.5H151.395C152.302 108.5 152.925 108.868 153.265 109.605C153.662 110.342 153.775 111.673 153.605 113.6L153.52 114.535C153.35 116.462 152.982 117.793 152.415 118.53C151.848 119.267 151.112 119.635 150.205 119.635H131.59L130.06 133.745H148.165C149.072 133.745 149.695 134.113 150.035 134.85C150.432 135.587 150.545 136.918 150.375 138.845L150.29 139.78C150.12 141.707 149.752 143.038 149.185 143.775C148.618 144.512 147.882 144.88 146.975 144.88H128.955L126.745 165.45C126.575 167.263 124.79 168.17 121.39 168.17H118.415Z" fill="#424EDE"/>
<path d="M167.055 168.17C165.355 168.17 164.137 167.972 163.4 167.575C162.663 167.122 162.352 166.413 162.465 165.45L168.16 111.05C168.273 110.087 168.727 109.407 169.52 109.01C170.313 108.557 171.588 108.33 173.345 108.33H175.81C177.17 108.33 178.218 108.528 178.955 108.925C179.692 109.265 180.258 109.86 180.655 110.71L189.155 130.685C189.438 131.422 189.835 132.782 190.345 134.765C190.798 133.348 191.45 131.988 192.3 130.685L204.88 110.71C205.447 109.86 206.127 109.265 206.92 108.925C207.77 108.528 208.875 108.33 210.235 108.33H213.04C214.797 108.33 216.043 108.557 216.78 109.01C217.517 109.407 217.828 110.087 217.715 111.05L212.02 165.45C211.907 166.413 211.425 167.122 210.575 167.575C209.782 167.972 208.507 168.17 206.75 168.17H203.86C202.16 168.17 200.942 167.972 200.205 167.575C199.468 167.122 199.157 166.413 199.27 165.45L202.33 136.04C202.5 134.68 202.868 133.122 203.435 131.365L203.095 131.28C202.358 132.753 201.593 134.085 200.8 135.275L193.235 147.005C192.725 147.742 192.215 148.28 191.705 148.62C191.195 148.903 190.515 149.045 189.665 149.045H188.22C187.313 149.045 186.605 148.903 186.095 148.62C185.642 148.28 185.273 147.742 184.99 147.005L179.975 135.275C179.635 134.425 179.182 133.093 178.615 131.28L178.275 131.365C178.332 131.932 178.36 132.838 178.36 134.085C178.36 134.935 178.332 135.587 178.275 136.04L175.215 165.45C175.102 166.413 174.62 167.122 173.77 167.575C172.977 167.972 171.702 168.17 169.945 168.17H167.055Z" fill="#6E76E5"/>
</g>
<defs>
<clipPath id="clip0_1_20">
<rect width="300" height="300" fill="white" transform="translate(10)"/>
</clipPath>
<clipPath id="clip1_1_20">
<rect width="100" height="100" fill="white" transform="translate(110 200)"/>
</clipPath>
</defs>
</svg>
