<svg width="120" height="120" viewBox="0 0 120 120" fill="none" xmlns="http://www.w3.org/2000/svg">
<g clip-path="url(#clip0_1_2)">
<path d="M57.1089 0.151116C39.9585 0.951116 23.8221 9.24445 13.0496 22.7733C0.426951 38.64 -3.30025 59.6533 3.0778 78.9245C5.33725 85.7245 8.9844 92.3289 13.5656 97.9111C16.1631 101.076 19.401 104.284 22.5411 106.791C35.2883 116.987 51.4959 121.538 67.6946 119.458C79.7035 117.92 90.8762 112.791 100.03 104.613C102.165 102.711 104.949 99.7689 106.808 97.4667C113.124 89.6178 117.411 80.1156 119.11 70.2133C121.094 58.56 119.644 46.6667 114.912 35.92C114.173 34.2311 112.599 31.1733 111.638 29.5556C101.862 13.1289 84.9963 2.32001 66.1378 0.400005C63.4158 0.124449 59.7776 0.0266716 57.1089 0.151116ZM65.0259 7.33334C75.0066 8.34667 83.9911 11.8311 91.8458 17.7511C97.4944 22.0089 102.173 27.2622 105.812 33.4667C106.799 35.1378 108.427 38.4622 109.147 40.2667C112.635 48.9511 113.755 58.4178 112.394 67.7689C110.98 77.4578 106.95 86.3911 100.492 94.1333C99.149 95.7422 95.8843 99.0222 94.292 100.356C90.8139 103.28 86.6063 106.009 82.8258 107.796C72.3736 112.729 60.7828 114.16 49.5033 111.902C35.9377 109.182 23.8576 101.111 16.0563 89.5556C11.057 82.1422 8.12154 73.8489 7.24089 64.6667C7.05408 62.7289 7.0274 57.7333 7.18751 55.9111C7.46327 52.8445 7.94363 49.8933 8.57521 47.3333C12.934 29.68 26.206 15.3867 43.49 9.74223C47.911 8.29334 52.2253 7.47556 57.0645 7.16445C58.3276 7.08445 63.7094 7.20001 65.0259 7.33334Z" fill="#D81D26"/>
<path d="M35.0926 45.4489L16.5011 54.0978L16.4744 60.0089L16.4566 65.9289L35.0659 74.5778C45.3046 79.3334 53.7376 83.2445 53.7998 83.2622C53.8799 83.2978 53.9066 82.0889 53.9066 77.3956V71.4934L49.0407 69.2267C46.3543 67.9822 40.8124 65.4045 36.7116 63.5022C31.739 61.2 29.2928 60.0178 29.3728 59.9734C29.4351 59.9289 34.977 57.3511 41.6753 54.2311L53.8621 48.5778L53.8888 42.6845C53.9066 38.0089 53.8888 36.8 53.7998 36.8089C53.7376 36.8089 45.3224 40.7022 35.0926 45.4489Z" fill="#D81D26"/>
<path d="M66.1824 42.6933V48.5955L78.3959 54.2578C85.1031 57.3778 90.6271 59.9555 90.6627 59.9911C90.6983 60.0267 85.2276 62.6133 78.4937 65.7333C71.7598 68.8622 66.2357 71.4578 66.218 71.5111C66.2002 71.5555 66.1913 74.2222 66.2002 77.4311L66.2269 83.2622L78.5471 77.5467C85.3254 74.4 93.7228 70.4978 97.2098 68.88L103.543 65.9289L103.526 60.0089L103.499 54.0889L84.9074 45.4489C74.6865 40.6933 66.2891 36.8089 66.2535 36.8C66.2091 36.8 66.1824 39.4578 66.1824 42.6933Z" fill="#D81D26"/>
</g>
<defs>
<clipPath id="clip0_1_2">
<rect width="120" height="120" fill="white"/>
</clipPath>
</defs>
</svg>
