<svg width="512" height="512" viewBox="0 0 512 512" fill="none" xmlns="http://www.w3.org/2000/svg">
<path fill-rule="evenodd" clip-rule="evenodd" d="M256.303 237.077C353.611 237.077 432.494 189.072 432.494 129.856C432.494 123.996 431.721 118.245 430.234 112.639C465.86 151.483 487.424 202.201 487.424 257.688C487.424 379.915 382.788 479 253.712 479C124.636 479 20 379.915 20 257.688C20 198.211 44.7764 144.215 85.0887 104.448C81.8361 112.593 80.1122 121.102 80.1122 129.856C80.1122 189.072 158.996 237.077 256.303 237.077Z" fill="#FF914D"/>
<path fill-rule="evenodd" clip-rule="evenodd" d="M430.423 113.365C431.786 118.741 432.494 124.248 432.494 129.856C432.494 189.072 353.611 237.077 256.303 237.077C158.996 237.077 80.1122 189.072 80.1122 129.856C80.1122 121.603 81.6447 113.567 84.5459 105.848C125.62 63.6793 186.303 37 254 37C325.637 37 389.419 66.8746 430.423 113.365Z" fill="white"/>
<path d="M241.664 21.0944C219.034 23.8592 202.957 27.2384 187.699 32.3584C173.466 37.1712 169.984 39.6288 169.984 45.1584C169.984 50.176 173.568 54.272 177.971 54.272C179.61 54.272 185.958 52.6336 192.102 50.688C215.552 43.1104 236.237 39.8336 260.608 39.8336C283.341 39.8336 300.032 42.0864 320 47.8208C407.757 72.9088 468.378 148.378 477.184 243.2C482.611 301.875 464.077 354.509 420.147 404.787C405.094 421.99 392.704 430.694 376.832 435.098C348.57 442.982 310.477 434.586 287.846 415.744C274.637 404.582 264.499 388.403 259.994 371.2C257.229 360.755 256.102 333.722 258.253 329.728C260.096 326.246 262.554 326.144 275.763 328.806C290.099 331.776 311.501 331.981 324.096 329.216C351.232 323.482 371.302 312.73 388.301 295.117C398.336 284.774 403.456 277.504 409.907 264.602C423.629 237.158 429.568 204.902 427.008 171.725C425.677 155.238 424.243 150.733 418.509 145.715C413.389 141.21 404.275 138.65 384.512 136.294C363.52 133.632 346.112 130.867 323.379 126.362C296.243 121.037 293.581 119.808 289.178 109.875C283.136 96.3584 262.451 81.5104 238.899 73.8304C211.354 64.8192 169.677 64.8192 137.728 73.728C105.062 82.944 79.7696 98.2016 55.808 122.982C42.5984 136.704 33.4848 149.606 24.576 167.424C16.4864 183.603 11.6736 197.427 7.57759 216.064C5.11999 227.226 4.81279 231.117 4.71039 246.784C4.71039 263.475 4.91519 265.318 7.57759 273.92C11.1616 285.594 16.0768 294.81 24.576 305.562C30.8224 313.446 31.6416 315.187 36.352 329.216C42.2912 347.341 54.1696 372.019 64.2048 387.174C99.4304 440.32 155.341 477.491 217.293 488.858C269.722 498.586 318.874 491.622 365.568 467.866C389.837 455.578 409.907 440.934 431.104 419.84C486.912 364.442 507.802 292.045 491.93 209.408C481.28 154.317 449.536 103.219 404.89 69.632C363.52 38.4 316.314 22.016 264.704 20.992C254.054 20.7872 243.61 20.8896 241.664 21.0944ZM220.672 88.1664C238.694 91.7504 259.277 102.093 267.981 112.026C270.234 114.586 273.203 119.398 274.432 122.675C279.859 136.397 282.317 137.318 334.438 146.842C351.334 150.016 365.978 152.781 366.899 153.19C368.742 153.907 368.845 154.112 370.688 165.478C371.302 169.472 372.941 175.104 374.374 178.074C377.958 185.856 387.277 194.662 396.698 199.066C408.474 204.698 408.371 204.595 404.173 223.437C399.667 243.405 395.571 253.85 388.096 265.114C381.542 274.944 367.309 289.178 358.093 295.322C349.184 301.158 336.384 306.79 325.018 309.965C315.904 312.422 313.242 312.73 299.008 312.73C280.166 312.627 272.077 310.886 257.331 303.616C240.333 295.219 228.352 283.546 219.546 266.854C216.883 261.837 213.914 256.922 212.89 255.898C210.432 253.44 206.131 253.44 202.035 256C199.066 257.741 198.656 258.56 198.656 262.349C198.656 267.571 202.65 276.582 209.51 286.72C213.914 293.376 224.358 304.128 235.008 312.934C240.742 317.645 240.742 317.542 238.899 336.691C236.749 357.99 239.923 377.549 248.32 394.957C258.048 415.027 275.149 432.845 293.888 442.368C303.821 447.386 319.693 452.506 330.854 454.246C336.998 455.168 341.709 456.294 341.299 456.704C338.842 458.957 320.614 465.51 308.941 468.48C223.027 490.086 125.542 449.741 77.824 372.941C73.0112 365.158 65.3312 350.515 63.3856 345.395C62.464 342.938 62.5664 342.938 67.2768 346.317C85.7088 359.526 90.624 362.906 97.3824 366.49C121.242 379.392 135.27 379.085 148.07 365.466C154.317 358.707 157.389 353.69 163.942 338.842C172.749 318.976 176.538 294.298 176.64 257.536V233.984L172.134 215.552C168.55 200.499 162.816 182.272 158.208 170.701C157.798 169.677 156.058 168.141 154.419 167.322C148.89 164.454 141.312 168.858 141.312 174.899C141.312 176.23 143.872 185.651 147.046 195.789C155.341 222.515 157.696 234.598 158.413 255.488C159.232 280.474 156.979 298.086 149.402 323.584C145.408 336.998 140.186 347.853 135.578 352.358C132.198 355.635 131.482 355.84 125.133 355.84C117.248 355.84 112.333 353.792 99.1232 345.088C79.872 332.39 46.8992 303.923 38.1952 292.454C32.0512 284.262 27.0336 273.613 25.088 264.704C21.6064 248.013 24.2688 221.901 31.744 199.27C48.9472 147.763 85.0944 110.899 134.963 94.208C161.075 85.504 194.867 83.1488 220.672 88.1664Z" fill="black"/>
<path d="M246.272 153.6C237.978 155.546 230.707 160.563 225.075 168.346C220.262 175.104 221.594 182.374 228.352 185.856C232.448 188.006 236.954 186.778 240.64 182.682C244.429 178.278 249.651 175.104 252.928 175.104C254.362 175.104 257.638 176.23 260.301 177.664C262.963 179.098 265.933 180.224 266.957 180.224C271.872 180.122 277.504 173.875 277.504 168.55C277.504 166.298 276.275 164.352 272.998 161.178C266.445 154.931 254.874 151.654 246.272 153.6Z" fill="black"/>
<path d="M269.926 257.946C267.162 261.018 268.083 267.264 271.565 269.21C277.299 272.486 283.955 266.65 281.498 260.506C280.986 258.867 279.859 257.229 279.245 256.819C276.89 255.386 271.667 256 269.926 257.946Z" fill="black"/>
<path d="M326.656 267.264C323.994 269.926 323.994 275.558 326.451 277.811C328.602 279.757 333.005 280.064 335.872 278.528C339.558 276.582 339.354 268.595 335.462 266.035C333.312 264.602 328.704 265.216 326.656 267.264Z" fill="black"/>
<path d="M296.448 286.208C293.376 289.178 293.171 292.762 295.731 296.038C299.827 301.056 308.224 297.574 308.224 290.918C308.224 287.642 307.405 286.413 304.435 284.774C301.056 283.034 299.213 283.341 296.448 286.208Z" fill="black"/>
</svg>
