<svg width="209" height="204" viewBox="0 0 209 204" fill="none" xmlns="http://www.w3.org/2000/svg">
<path d="M182 157.296C193 141.295 169.5 127.795 160.5 139.295C160.5 139.295 148.5 161 120 168.5C91.0004 176.132 55.0004 171 55.0004 171C55.0004 171 72.5002 187.743 95.0004 191.296C114 194.295 127.376 194.312 145.5 186.296C171.5 174.795 182 157.296 182 157.296Z" fill="#EBC8A7"/>
<path d="M55.0002 171C55.0002 171 125 181 150 152C150 152 102 187 66 141C33.5 88 83.5002 56.9999 83.5002 56.9999C83.5002 56.9999 54.5837 44.7699 43.5002 57C29.0002 73 25.6446 95.5 27.5 119C30.0235 150.963 55.0002 171 55.0002 171Z" fill="#90CAF9"/>
<path d="M152.5 31C159.5 36.5 154.5 58.0001 139.467 54.5268C124.434 51.0535 117.227 45.0972 103 39C89.0005 33 64.5005 36 64.5005 36C64.5005 36 80.4995 22.9999 107.5 21C136.5 19.5 152.5 31 152.5 31Z" fill="#F2B9B9"/>
</svg>
