<svg width="473" height="450" viewBox="0 0 473 450" fill="none" xmlns="http://www.w3.org/2000/svg">
<circle cx="417.5" cy="91.5" r="55.5" fill="#F2B9B9"/>
<circle cx="64" cy="386" r="64" fill="#90CAF9"/>
<circle cx="225" cy="225" r="225" fill="#009BAA"/>
<path fill-rule="evenodd" clip-rule="evenodd" d="M264 321.5C287.442 312.725 303.122 294.164 314.743 272.286C318.834 267.883 323.549 265.222 328.373 264.024C335.948 262.141 343.836 263.848 350.07 268.143C356.302 272.437 360.872 279.31 361.819 287.751C362.224 291.369 361.965 295.285 360.878 299.417C334.41 347.455 283.279 380 224.544 380C164.014 380 114.207 358.465 88.5 308C157.997 333.397 173.5 334 191.5 334C207.915 334 223.556 332.062 234 330.5C242.803 329.184 258.736 324.519 264 321.5ZM150.5 294.5C144.5 287.751 122.482 254.722 122.482 224.5C122.482 168.148 168.176 122.467 224.544 122.467C251.976 122.467 275.025 128.924 293.364 146.527L332.585 113.11C304.111 81.4335 270.497 69 224.544 69C138.639 69 69 138.62 69 224.5C69 240.851 69.7533 262.073 77 268.143C88 277.357 150.5 294.5 150.5 294.5Z" fill="white"/>
<path d="M314.743 272.286C303.122 294.164 287.442 312.725 264 321.5C258.736 324.519 242.803 329.184 234 330.5C223.556 332.062 207.915 334 191.5 334C173.5 334 157.997 333.397 88.5 308C114.207 358.465 164.014 380 224.544 380C283.279 380 334.41 347.455 360.878 299.417C361.965 295.285 362.224 291.369 361.819 287.751C360.872 279.31 356.302 272.437 350.07 268.143C343.836 263.848 335.948 262.141 328.373 264.024C323.549 265.222 318.834 267.883 314.743 272.286Z" fill="white"/>
<path d="M122.482 224.5C122.482 254.722 144.5 287.751 150.5 294.5C150.5 294.5 88 277.357 77 268.143C69.7533 262.073 69 240.851 69 224.5C69 138.62 138.639 69 224.544 69C270.497 69 304.111 81.4335 332.585 113.11L293.364 146.527C275.025 128.924 251.976 122.467 224.544 122.467C168.176 122.467 122.482 168.148 122.482 224.5Z" fill="white"/>
<path d="M264 321.5C287.442 312.725 303.122 294.164 314.743 272.286C318.834 267.883 323.549 265.222 328.373 264.024C335.948 262.141 343.836 263.848 350.07 268.143C356.302 272.437 360.872 279.31 361.819 287.751C362.224 291.369 361.965 295.285 360.878 299.417C334.41 347.455 283.279 380 224.544 380C164.014 380 114.207 358.465 88.5 308C157.997 333.397 173.5 334 191.5 334C207.915 334 223.556 332.062 234 330.5C242.803 329.184 258.736 324.519 264 321.5ZM150.5 294.5C144.5 287.751 122.482 254.722 122.482 224.5C122.482 168.148 168.176 122.467 224.544 122.467C251.976 122.467 275.025 128.924 293.364 146.527L332.585 113.11C304.111 81.4335 270.497 69 224.544 69C138.639 69 69 138.62 69 224.5C69 240.851 69.7533 262.073 77 268.143C88 277.357 150.5 294.5 150.5 294.5Z" stroke="white" stroke-width="5"/>
</svg>
