<svg width="209" height="203" viewBox="0 0 209 203" fill="none" xmlns="http://www.w3.org/2000/svg">
<path d="M182 157.295C187 137.5 160 127 150 134.5C140 142 139 156 113 164.5C85 172.5 55.0004 171 55.0004 171C55.0004 171 72.5002 187.743 95.0004 191.296C114 194.296 127.376 194.312 145.5 186.296C171.5 174.796 182 157.295 182 157.295Z" fill="#EBC8A7"/>
<path d="M55.0002 171C55.0002 171 125.5 181 145.5 139C145.5 139 104.5 169.5 75.5 132C52.5 88.9999 92 66.9999 92 66.9999C92 66.9999 54.5837 44.7699 43.5002 57C29.0002 73 25.6446 95.5 27.4999 119C30.0235 150.963 55.0002 171 55.0002 171Z" fill="#90CAF9"/>
<path d="M152.5 31C159.5 36.5 150.033 70.4733 135 67C119.967 63.5267 114.227 50.5972 100 44.5C86 38.5 64.5005 36 64.5005 36C64.5005 36 80.4995 22.9998 107.5 20.9999C136.5 19.4999 152.5 31 152.5 31Z" fill="#F2B9B9"/>
</svg>
