<svg width="512" height="512" viewBox="0 0 512 512" fill="none" xmlns="http://www.w3.org/2000/svg">
<path d="M212.881 400.803L212.892 400.811L212.903 400.819C232.054 413.954 254.064 420.5 278.845 420.5C295.862 420.5 310.817 418.541 323.67 414.571L323.689 414.565L323.707 414.559C336.684 410.333 348.218 405.187 358.292 399.107L359.997 398.078L359.375 396.186L347.752 360.832L346.757 357.806L344.054 359.492C335.105 365.076 325.904 369.624 316.449 373.143C307.174 376.595 296.127 378.356 283.254 378.356C266.433 378.356 251.474 373.315 238.291 363.216C225.342 353.092 215.03 338.862 207.416 320.398C200.08 301.961 196.377 280.363 196.377 255.552C196.377 229.532 200.218 207.504 207.806 189.391C215.415 171.228 225.714 157.457 238.636 147.931C251.827 138.404 266.673 133.644 283.254 133.644C294.831 133.644 304.719 134.967 312.965 137.556L312.976 137.56L312.986 137.563C321.641 140.198 330.037 143.713 338.177 148.111L340.816 149.537L341.743 146.684L353.366 110.882L354.016 108.881L352.154 107.899C342.357 102.733 331.888 98.7862 320.753 96.0546C309.558 93.0093 297.186 91.5 283.655 91.5C257.258 91.5 234.028 98.6501 214.064 113C194.407 127.025 179.177 146.653 168.336 171.772L168.331 171.783C157.755 196.612 152.5 225.149 152.5 257.343C152.5 290.714 157.75 319.707 168.335 344.255L168.34 344.266C178.918 368.493 193.752 387.377 212.881 400.803Z" fill="#D89150" stroke="#D89150" stroke-width="5"/>
<path d="M255.388 251.161C260.377 252.458 260.377 259.542 255.388 260.839L91.1944 303.529C86.3074 304.8 82.8319 298.851 86.3388 295.218L120.844 259.473C122.714 257.535 122.714 254.465 120.844 252.527L86.3388 216.782C82.8319 213.149 86.3074 207.2 91.1944 208.471L255.388 251.161Z" fill="#92CFFF"/>
</svg>
