<svg width="512" height="512" viewBox="0 0 512 512" fill="none" xmlns="http://www.w3.org/2000/svg">
<g clip-path="url(#clip0_1_2)">
<path fill-rule="evenodd" clip-rule="evenodd" d="M261.246 131.656L144.229 248.674C142.228 250.676 141.104 253.39 141.104 256.22C141.105 259.05 142.229 261.764 144.23 263.765L261.111 380.646L140.323 501.435L-97.2135 263.899C-98.2048 262.908 -98.9912 261.731 -99.5277 260.436C-100.064 259.142 -100.341 257.754 -100.341 256.352C-100.341 254.951 -100.065 253.563 -99.5286 252.268C-98.9923 250.973 -98.2061 249.796 -97.215 248.805L140.59 11L261.246 131.656Z" fill="#8E75FF"/>
<path opacity="0.405" fill-rule="evenodd" clip-rule="evenodd" d="M140.322 501.435L261.111 380.646L372.665 492.2C373.411 492.946 373.919 493.897 374.125 494.932C374.331 495.967 374.225 497.039 373.822 498.014C373.418 498.989 372.735 499.822 371.858 500.409C370.981 500.996 369.95 501.309 368.895 501.31L140.322 501.435ZM372.918 19.9847L261.246 131.656L140.59 10.9999L369.143 10.8766C370.198 10.8768 371.229 11.1898 372.107 11.776C372.984 12.3621 373.668 13.1952 374.072 14.17C374.476 15.1447 374.582 16.2173 374.377 17.2523C374.171 18.2873 373.664 19.2381 372.918 19.9847Z" fill="#8E75FF"/>
<path d="M491.213 381.03L373.862 498.176L261.325 381.03H491.213Z" fill="#D9D9D9"/>
<path d="M491.213 381.03L373.862 498.176L261.325 381.03H491.213Z" fill="#D9D9D9"/>
<path d="M306.971 131.107L399.942 36.0976L491.256 128.948L306.971 131.107Z" fill="#D9D9D9"/>
<path d="M306.971 131.107L399.942 36.0976L491.256 128.948L306.971 131.107Z" fill="#D9D9D9"/>
</g>
<defs>
<clipPath id="clip0_1_2">
<rect width="512" height="512" fill="white"/>
</clipPath>
</defs>
</svg>
