<svg width="513" height="512" viewBox="0 0 513 512" fill="none" xmlns="http://www.w3.org/2000/svg">
<path d="M258.719 291.57C264.065 289.79 267.418 296.679 262.834 299.985L184.342 356.595C183.967 356.865 183.631 357.186 183.343 357.549L131.135 423.266C127.58 427.74 120.591 423.748 122.602 418.392L128.966 401.444C130.501 397.355 126.503 393.405 122.48 395.036L42.1448 427.611C36.9224 429.728 33.0339 423.233 37.412 419.657C70.3462 392.754 132.838 344.342 183.777 320.283C206.011 309.782 236.602 298.934 258.719 291.57Z" fill="#92CFFF"/>
<path d="M219.848 400.794L219.859 400.802L219.87 400.81C238.769 413.95 260.492 420.5 284.952 420.5C301.744 420.5 316.504 418.54 329.19 414.568L329.209 414.562L329.227 414.556C342.032 410.329 353.414 405.181 363.355 399.099L365.036 398.071L364.428 396.196L352.963 360.842L351.969 357.779L349.248 359.5C340.423 365.082 331.349 369.63 322.026 373.147C312.884 376.596 301.994 378.356 289.302 378.356C272.724 378.356 257.98 373.32 244.982 363.227C232.211 353.106 222.038 338.877 214.525 320.409C207.287 301.969 203.633 280.367 203.633 255.552C203.633 229.529 207.423 207.496 214.91 189.38C222.417 171.214 232.577 157.444 245.32 147.922C258.326 138.399 272.96 133.644 289.302 133.644C300.717 133.644 310.465 134.966 318.592 137.553L318.602 137.557L318.613 137.56C327.146 140.194 335.426 143.708 343.453 148.104L346.111 149.56L347.035 146.674L358.501 110.873L359.136 108.888L357.298 107.906C347.63 102.738 337.298 98.7895 326.31 96.0567C315.261 93.0098 303.05 91.5 289.697 91.5C263.643 91.5 240.715 98.6546 221.014 113.01C201.618 127.038 186.595 146.668 175.901 171.783L175.897 171.794C165.465 196.62 160.282 225.153 160.282 257.343C160.282 290.71 165.46 319.699 175.901 344.244L175.905 344.254C186.339 368.479 200.972 387.364 219.848 400.794Z" fill="#D89150" stroke="#D89150" stroke-width="5"/>
</svg>
