<svg width="512" height="512" viewBox="0 0 512 512" fill="none" xmlns="http://www.w3.org/2000/svg">
<path d="M212.881 355.803L212.892 355.811L212.903 355.819C232.054 368.954 254.064 375.5 278.845 375.5C295.862 375.5 310.817 373.541 323.67 369.571L323.689 369.565L323.707 369.559C336.684 365.333 348.218 360.187 358.292 354.107L359.997 353.078L359.375 351.186L347.752 315.832L346.757 312.806L344.054 314.492C335.105 320.076 325.904 324.624 316.449 328.143C307.174 331.595 296.127 333.356 283.254 333.356C266.433 333.356 251.474 328.315 238.291 318.216C225.342 308.092 215.03 293.862 207.416 275.398C200.08 256.961 196.377 235.363 196.377 210.552C196.377 184.532 200.218 162.504 207.806 144.391C215.415 126.228 225.714 112.457 238.636 102.931C251.827 93.404 266.673 88.6436 283.254 88.6436C294.831 88.6436 304.719 89.9669 312.965 92.5564L312.976 92.5597L312.986 92.5628C321.641 95.1984 330.037 98.7135 338.177 103.111L340.816 104.537L341.743 101.684L353.366 65.8825L354.016 63.8807L352.154 62.899C342.357 57.7332 331.888 53.7862 320.753 51.0546C309.558 48.0093 297.186 46.5 283.655 46.5C257.258 46.5 234.028 53.6501 214.064 68.0005C194.407 82.0246 179.177 101.653 168.336 126.772L168.331 126.783C157.755 151.612 152.5 180.149 152.5 212.343C152.5 245.714 157.75 274.707 168.335 299.255L168.34 299.266C178.918 323.493 193.752 342.377 212.881 355.803Z" fill="#D89150" stroke="#D89150" stroke-width="5"/>
<path d="M268.485 493.073C266.544 494.959 263.456 494.959 261.515 493.073L178.57 412.45C175.351 409.322 177.566 403.865 182.055 403.865H347.945C352.434 403.865 354.649 409.322 351.43 412.45L268.485 493.073Z" fill="#92CFFF"/>
</svg>
