<svg width="512" height="512" viewBox="0 0 512 512" fill="none" xmlns="http://www.w3.org/2000/svg">
<path d="M292.647 447C263.914 447 238.497 439.437 216.396 424.312C194.294 408.835 177.086 387.027 164.772 358.887C104.943 267.201 11 306.245 11 267.201C11 229.563 106.125 267.201 164.772 157.862C177.402 128.667 195.083 105.979 217.816 89.7983C240.865 73.2661 267.703 65 298.33 65C314.117 65 328.483 66.7587 341.428 70.2762C354.373 73.442 366.529 78.0147 377.896 83.9945V126.204H351C341.212 120.928 344.27 116.707 333.85 113.541C323.747 110.376 311.749 108.793 297.856 108.793C277.649 108.793 259.494 114.597 243.391 126.204C227.604 137.812 227.246 181.722 227.246 181.722C227.246 181.722 227.246 236.247 227.246 267.201C227.246 296.748 227.246 333.225 227.246 333.225C227.246 333.225 227.131 372.429 242.918 384.74C259.02 397.052 277.333 403.207 297.856 403.207C313.327 403.207 326.746 401.097 338.113 396.876C349.479 392.655 340.265 387.203 351 380.519H385V422.202C373.318 429.237 359.899 435.216 344.743 440.141C329.904 444.714 312.538 447 292.647 447Z" fill="#D89150"/>
</svg>
