<svg width="512" height="512" viewBox="0 0 512 512" fill="none" xmlns="http://www.w3.org/2000/svg">
<rect width="512" height="512" fill="white"/>
<rect x="179" y="333" width="154" height="154" fill="#90CAF9"/>
<path d="M179 25H323C328.523 25 333 29.4772 333 35V169C333 174.523 328.523 179 323 179H179V25Z" fill="#90CAF9"/>
<rect x="383" y="10" width="120" height="120" rx="10" fill="#D89150"/>
<rect x="25" y="179" width="154" height="154" fill="#90CAF9"/>
<path d="M15 343C15 337.477 19.4772 333 25 333H179V487C179 492.523 174.523 497 169 497V497C83.9482 497 15 428.052 15 343V343Z" fill="#2196F3"/>
<path d="M343 497C337.477 497 333 492.523 333 487L333 310C333 304.477 337.477 300 343 300L487 300C492.523 300 497 304.477 497 310L497 343C497 428.052 428.052 497 343 497V497Z" fill="#2196F3"/>
<path d="M15 169C15 83.9482 83.9482 15 169 15V15C174.523 15 179 19.4772 179 25V179H25C19.4772 179 15 174.523 15 169V169Z" fill="#2196F3"/>
</svg>
