<svg width="512" height="512" viewBox="0 0 512 512" fill="none" xmlns="http://www.w3.org/2000/svg">
<rect width="512" height="512" fill="white"/>
<path d="M409.991 161.662H328.315C327.226 153.277 324.994 145.708 321.618 138.956C318.242 132.204 313.777 126.432 308.223 121.641C302.669 116.849 296.08 113.201 288.457 110.696C280.943 108.082 272.612 106.776 263.464 106.776C247.238 106.776 233.244 110.75 221.483 118.7C209.83 126.65 200.846 138.139 194.53 153.168C188.322 168.196 185.219 186.383 185.219 207.727C185.219 229.943 188.377 248.565 194.693 263.594C201.118 278.513 210.103 289.785 221.646 297.408C233.299 304.922 247.075 308.679 262.974 308.679C271.904 308.679 280.018 307.536 287.314 305.249C294.719 302.962 301.199 299.64 306.753 295.284C312.416 290.819 317.044 285.429 320.638 279.112C324.34 272.687 326.9 265.445 328.315 257.386L409.991 257.876C408.576 272.687 404.274 287.28 397.087 301.655C390.008 316.03 380.261 329.152 367.847 341.023C355.432 352.784 340.295 362.15 322.435 369.119C304.684 376.089 284.319 379.574 261.341 379.574C231.066 379.574 203.95 372.931 179.991 359.645C156.142 346.25 137.302 326.757 123.472 301.165C109.641 275.573 102.726 244.427 102.726 207.727C102.726 170.919 109.75 139.718 123.798 114.126C137.847 88.5346 156.85 69.0956 180.808 55.8097C204.767 42.5237 231.611 35.8807 261.341 35.8807C281.597 35.8807 300.328 38.7121 317.534 44.375C334.741 49.929 349.878 58.0966 362.946 68.8778C376.014 79.5502 386.632 92.6728 394.8 108.246C402.967 123.819 408.031 141.624 409.991 161.662Z" fill="#D89150"/>
<path d="M92.554 309.909L110.523 345.847L129.131 309.909H164.145L133.676 364.455L165.281 419H130.551L110.523 382.778L90.9915 419H55.7642L87.4403 364.455L57.3267 309.909H92.554Z" fill="#D89150" fill-opacity="0.5"/>
<path d="M470.832 309.909L433.403 419H393.631L356.273 309.909H392.849L412.949 385.051H414.085L434.256 309.909H470.832Z" fill="#D89150" fill-opacity="0.5"/>
<path d="M256.182 419C289.293 419 319.732 423.292 347.499 431.876C375.354 440.548 400.976 452.899 424.364 468.929V496.259C415.692 489.952 405.005 484.039 392.304 478.521C379.69 473.09 365.807 468.316 350.653 464.199C335.586 460.082 319.995 456.841 303.877 454.476C287.76 452.198 271.861 451.06 256.182 451.06C235.334 451.06 214.18 453.074 192.719 457.104C171.259 461.133 151.331 466.564 132.936 473.396C114.541 480.229 99.5625 487.849 88 496.259V468.929C111.388 452.899 136.965 440.548 164.733 431.876C192.588 423.292 223.071 419 256.182 419Z" fill="#92CFFF"/>
</svg>
