<svg width="512" height="512" viewBox="0 0 512 512" fill="none" xmlns="http://www.w3.org/2000/svg">
<g clip-path="url(#clip0_1_28)">
<path fill-rule="evenodd" clip-rule="evenodd" d="M261.246 131.656L144.228 248.674C142.228 250.676 141.104 253.39 141.104 256.22C141.105 259.05 142.229 261.764 144.23 263.765L261.111 380.646L140.322 501.435L4.99988 366.112C4.99988 366.112 5.00879 147.491 5.99987 146.5L140.59 10.9998L261.246 131.656Z" fill="#2196F3"/>
<path opacity="0.405" fill-rule="evenodd" clip-rule="evenodd" d="M140.322 501.435L261.111 380.646L374 501.434L140.322 501.435ZM372.918 19.9846L261.246 131.656L140.59 10.9998L369.143 10.8765C370.198 10.8767 371.229 11.1897 372.107 11.7758C372.984 12.362 373.668 13.1951 374.072 14.1699C374.476 15.1446 374.582 16.2172 374.377 17.2522C374.171 18.2872 373.664 19.238 372.918 19.9846Z" fill="#81C8FF"/>
<path d="M491 381L373.592 501L261 381H491Z" fill="#B1DDFF"/>
<path d="M491 381L373.592 501L261 381H491Z" fill="#B1DDFF"/>
<path d="M301.1 133.127L396.711 38.0865L490.556 130.907L301.1 133.127Z" fill="#D89150"/>
<path d="M301.1 133.127L396.711 38.0865L490.556 130.907L301.1 133.127Z" fill="#D89150"/>
</g>
<defs>
<clipPath id="clip0_1_28">
<rect width="512" height="512" fill="white"/>
</clipPath>
</defs>
</svg>
