<svg width="512" height="512" viewBox="0 0 512 512" fill="none" xmlns="http://www.w3.org/2000/svg">
<path d="M48.75 124H159L151.085 148H40L48.75 124Z" fill="#EF9A9A" fill-opacity="0.5"/>
<path d="M42.1364 388H171L164.864 412H36L42.1364 388Z" fill="#B7ABE6" fill-opacity="0.5"/>
<path d="M153.045 322H259L253.955 346H148L153.045 322Z" fill="#2196F3" fill-opacity="0.5"/>
<path d="M67.3333 256H126L119.714 280H60L67.3333 256Z" fill="#00838F" fill-opacity="0.5"/>
<path d="M68.2222 322H134L126.952 346H60L68.2222 322Z" fill="#E57373" fill-opacity="0.5"/>
<path d="M145.864 256H290L283.136 280H139L145.864 256Z" fill="#9F8AE7" fill-opacity="0.5"/>
<path d="M69.5909 190H271L261.409 214H60L69.5909 190Z" fill="#90CAF9"/>
<path d="M290 190H388.5L380 214H281L290 190Z" fill="#66BB6A" fill-opacity="0.5"/>
<path d="M272.227 447.446C245.846 445.137 223.165 435.601 204.183 418.837C185.232 401.724 171.324 378.73 162.457 349.855C153.622 320.631 150.896 286.673 154.281 247.981C157.544 210.684 166.079 178.238 179.886 150.644C194.013 122.726 212.215 101.664 234.49 87.4552C257.086 72.9236 282.444 66.8879 310.564 69.348C325.059 70.6162 338.097 73.5131 349.678 78.0387C361.289 82.2158 372.054 87.7237 381.972 94.5626L365.701 135.288C357.172 129.274 348.261 124.279 338.969 120.305C329.967 116.356 319.088 113.824 306.332 112.708C287.779 111.085 270.607 115.378 254.815 125.587C239.314 135.822 226.415 151.378 216.117 172.254C205.819 193.13 199.328 218.906 196.644 249.58C194.083 278.861 195.9 304.836 202.096 327.507C208.581 350.202 218.538 368.285 231.966 381.753C245.683 395.246 261.963 402.818 280.807 404.466C295.012 405.709 307.515 404.695 318.318 401.426C329.12 398.156 339.739 393.641 350.175 387.88L359.172 430.29C347.836 436.323 334.997 441.17 320.655 444.833C306.633 448.173 290.49 449.043 272.227 447.446Z" fill="#D89150"/>
</svg>
