<svg width="512" height="512" viewBox="0 0 512 512" fill="none" xmlns="http://www.w3.org/2000/svg">
<rect width="512" height="512" fill="white"/>
<path d="M448 162.971H346.192C344.835 153.773 342.052 145.47 337.844 138.064C333.636 130.658 328.071 124.327 321.148 119.071C314.225 113.815 306.012 109.813 296.51 107.066C287.144 104.199 276.76 102.765 265.357 102.765C245.131 102.765 227.688 107.125 213.028 115.846C198.504 124.566 187.305 137.168 179.432 153.653C171.694 170.138 167.826 190.087 167.826 213.5C167.826 237.869 171.762 258.296 179.635 274.78C187.644 291.146 198.843 303.509 213.232 311.871C227.756 320.114 244.928 324.235 264.746 324.235C275.877 324.235 285.99 322.981 295.085 320.472C304.316 317.963 312.392 314.32 319.315 309.542C326.374 304.644 332.143 298.731 336.623 291.803C341.238 284.755 344.428 276.811 346.192 267.971L448 268.509C446.235 284.755 440.873 300.762 431.914 316.53C423.091 332.298 410.942 346.692 395.467 359.713C379.993 372.614 361.124 382.887 338.862 390.532C316.736 398.177 291.352 402 262.71 402C224.974 402 191.174 394.713 161.31 380.14C131.582 365.447 108.099 344.064 90.8591 315.992C73.6197 287.92 65 253.756 65 213.5C65 173.124 73.7554 138.9 91.2663 110.828C108.777 82.7565 132.464 61.4338 162.328 46.8603C192.192 32.2868 225.652 25 262.71 25C287.959 25 311.306 28.1058 332.754 34.3175C354.201 40.4097 373.07 49.3688 389.359 61.1949C405.648 72.9015 418.883 87.2958 429.064 104.378C439.245 121.46 445.557 140.991 448 162.971Z" fill="#D89150"/>
<path d="M256.182 419C289.293 419 319.732 423.292 347.499 431.876C375.354 440.548 400.976 452.899 424.364 468.929V496.259C415.692 489.952 405.005 484.039 392.304 478.521C379.69 473.09 365.807 468.316 350.653 464.199C335.586 460.082 319.995 456.841 303.877 454.476C287.76 452.198 271.861 451.06 256.182 451.06C235.334 451.06 214.18 453.074 192.719 457.104C171.259 461.133 151.331 466.564 132.936 473.396C114.541 480.229 99.5625 487.849 88 496.259V468.929C111.388 452.899 136.965 440.548 164.733 431.876C192.588 423.292 223.071 419 256.182 419Z" fill="#92CFFF"/>
</svg>
