<svg width="512" height="512" viewBox="0 0 512 512" fill="none" xmlns="http://www.w3.org/2000/svg">
<path d="M212.881 344.803L212.892 344.811L212.903 344.819C232.054 357.954 254.064 364.5 278.845 364.5C295.862 364.5 310.817 362.541 323.67 358.571L323.689 358.565L323.707 358.559C336.684 354.333 348.218 349.187 358.292 343.107L359.997 342.078L359.375 340.186L347.752 304.832L346.757 301.806L344.054 303.492C335.105 309.076 325.904 313.624 316.449 317.143C307.174 320.595 296.127 322.356 283.254 322.356C266.433 322.356 251.474 317.315 238.291 307.216C225.342 297.092 215.03 282.862 207.416 264.398C200.08 245.961 196.377 224.363 196.377 199.552C196.377 173.532 200.218 151.504 207.806 133.391C215.414 115.228 225.714 101.457 238.636 91.9313C251.827 82.404 266.673 77.6436 283.254 77.6436C294.831 77.6436 304.719 78.9669 312.965 81.5564L312.976 81.5597L312.986 81.5628C321.641 84.1984 330.037 87.7135 338.177 92.1111L340.816 93.5373L341.743 90.6836L353.366 54.8825L354.016 52.8807L352.154 51.899C342.357 46.7332 331.888 42.7862 320.753 40.0546C309.558 37.0093 297.186 35.5 283.655 35.5C257.258 35.5 234.028 42.6502 214.064 57.0009C194.407 71.0249 179.177 90.6528 168.336 115.772L168.331 115.783C157.755 140.612 152.5 169.149 152.5 201.343C152.5 234.714 157.75 263.707 168.335 288.255L168.34 288.266C178.918 312.493 193.752 331.377 212.881 344.803Z" fill="#D89150" stroke="#D89150" stroke-width="5"/>
<path d="M165 388H375L365 412H155L165 388Z" fill="#92CFFF"/>
<path d="M235 476H305L295 500H225L235 476Z" fill="#92CFFF"/>
<path d="M195 433H345L335 457H185L195 433Z" fill="#92CFFF"/>
</svg>
