<svg width="25" height="36" viewBox="0 0 25 36" fill="none" xmlns="http://www.w3.org/2000/svg">
<path d="M18.0481 19.6139L12.8148 22.2472L18.4148 35.6139L20.4815 32.1472L24.5148 32.5472L18.0481 19.6139Z" fill="#E57373"/>
<path d="M15.1523 21.7057L10.0784 21.5287L9.49791 33.4865L12.4028 31.7918L15.4111 33.6948L15.1523 21.7057Z" fill="#0097A7"/>
<path d="M7.58149 19.6139L12.8148 22.2472L7.21482 35.6139L5.14815 32.1472L1.11482 32.5472L7.58149 19.6139Z" fill="#90CAF9"/>
<path d="M23.0481 8.34721L22.6815 9.74721C22.5815 10.2139 22.6481 10.7139 22.8815 11.1472L23.5815 12.4139C24.0148 13.1472 23.8815 14.1139 23.2148 14.7139L22.1481 15.6805C21.7815 16.0139 21.5815 16.4805 21.5481 16.9472L21.4815 18.3805C21.4148 19.2472 20.8148 19.9805 19.9481 20.1139L18.5148 20.3805C18.0481 20.4805 17.6148 20.7472 17.3148 21.1139L16.4815 22.2805C15.9815 22.9805 15.0481 23.2472 14.2815 22.9139L12.9481 22.3472C12.4815 22.1472 12.0148 22.1472 11.5481 22.3472L10.1815 22.8805C9.38146 23.1805 8.44812 22.9139 7.94812 22.2139L7.11479 20.9805C6.84812 20.5805 6.41479 20.3139 5.94812 20.2139L4.54812 19.9472C3.68146 19.7805 3.08146 19.0472 3.04812 18.1805L2.98146 16.7139C2.98146 16.2139 2.78146 15.7805 2.41479 15.4472L1.34812 14.4472C0.714791 13.8472 0.581457 12.9139 1.04812 12.1472L1.81479 10.8805C2.08146 10.4805 2.14812 9.98055 2.01479 9.51388L1.68146 8.08055C1.48146 7.24721 1.88146 6.38055 2.64812 5.98055L3.94812 5.34721C4.38146 5.14721 4.71479 4.74721 4.88146 4.31388L5.34812 2.91388C5.64812 2.11388 6.44812 1.58055 7.31479 1.68055L8.78146 1.81388C9.24812 1.88055 9.74812 1.74721 10.1481 1.41388L11.2815 0.513878C11.9481 -0.0194549 12.9148 -0.0194548 13.5815 0.547212L14.7148 1.44721C15.1148 1.74721 15.5815 1.91388 16.0481 1.84721L17.4815 1.71388C18.3481 1.61388 19.1481 2.14721 19.4148 2.98055L19.8481 4.34721C19.9815 4.81388 20.3481 5.21388 20.7815 5.41388L22.0815 6.08054C22.8481 6.64721 23.2815 7.51388 23.0481 8.34721Z" fill="#FFC54D"/>
<path d="M12.1148 20.2806C16.7908 20.2806 20.5815 16.4899 20.5815 11.8139C20.5815 7.13788 16.7908 3.34723 12.1148 3.34723C7.43879 3.34723 3.64813 7.13788 3.64813 11.8139C3.64813 16.4899 7.43879 20.2806 12.1148 20.2806Z" fill="#E8B04B"/>
</svg>
