<svg width="26" height="30" viewBox="0 0 26 30" fill="none" xmlns="http://www.w3.org/2000/svg">
<path d="M11.0501 13.6499L13.0001 29.8997L26 22.4248V7.47493L11.0501 13.6499Z" fill="#FB992D"/>
<path d="M13.0001 12.9999V29.8997L0.00019455 22.4248V7.47493L13.0001 12.9999Z" fill="#FFB739"/>
<path d="M0 7.47493L4.54443 10.0878L13.1542 7.55813L17.5439 2.61252L12.9999 0L0 7.47493Z" fill="#FB992D"/>
<path d="M8.45628 12.3371L12.9999 14.9499L25.9997 7.47493L21.4563 4.86182L12.7827 7.42806L8.45628 12.3371Z" fill="#F67A21"/>
<path d="M8.45629 18.837L4.54443 16.5878V10.0878L8.31511 10.3823L8.45629 12.3371V18.837Z" fill="#FF9473"/>
<path d="M4.54443 10.0878L17.5439 2.61252L21.4563 4.86182L8.45628 12.3371L4.54443 10.0878Z" fill="#AF4320"/>
</svg>
