<svg width="35" height="48" viewBox="0 0 35 48" fill="none" xmlns="http://www.w3.org/2000/svg">
<path d="M0.643173 10.0591H34.7239V46.6269C34.7239 47.1791 34.2762 47.6269 33.7239 47.6269H1.64317C1.09089 47.6269 0.643173 47.1791 0.643173 46.6269V10.0591Z" fill="#FFF59D"/>
<rect x="5.78743" y="12.65" width="23.7922" height="0.896844" fill="#8F8F8F"/>
<rect x="5.78743" y="18.031" width="23.7922" height="0.896843" fill="#8F8F8F"/>
<rect x="5.78743" y="23.4121" width="11.8961" height="0.896843" fill="#8F8F8F"/>
<rect x="5.78743" y="20.7216" width="23.7922" height="0.896844" fill="#8F8F8F"/>
<rect x="5.78743" y="15.3405" width="23.7922" height="0.896843" fill="#8F8F8F"/>
<rect x="29.5796" y="42.4451" width="23.7922" height="0.896843" transform="rotate(-180 29.5796 42.4451)" fill="#8F8F8F"/>
<rect x="29.5796" y="37.064" width="23.7922" height="0.896843" transform="rotate(-180 29.5796 37.064)" fill="#8F8F8F"/>
<rect x="29.5796" y="31.683" width="11.8961" height="0.896843" transform="rotate(-180 29.5796 31.683)" fill="#8F8F8F"/>
<rect x="29.5796" y="34.3735" width="23.7922" height="0.896843" transform="rotate(-180 29.5796 34.3735)" fill="#8F8F8F"/>
<rect x="29.5796" y="39.7546" width="23.7922" height="0.896843" transform="rotate(-180 29.5796 39.7546)" fill="#8F8F8F"/>
<rect x="1.64317" y="3.28645" width="32.0807" height="5.77264" fill="#F3B881" stroke="#666666" stroke-width="2"/>
<rect x="5.78743" y="6.17277" width="5.82948" height="1.28606" transform="rotate(-90 5.78743 6.17277)" fill="#8F8F8F"/>
<rect x="28.9366" y="6.17277" width="5.82948" height="1.28606" transform="rotate(-90 28.9366 6.17277)" fill="#8F8F8F"/>
<rect x="13.5038" y="6.17277" width="5.82948" height="1.28606" transform="rotate(-90 13.5038 6.17277)" fill="#8F8F8F"/>
<rect x="21.2202" y="6.17277" width="5.82948" height="1.28606" transform="rotate(-90 21.2202 6.17277)" fill="#8F8F8F"/>
</svg>
