<svg width="72" height="57" viewBox="0 0 72 57" fill="none" xmlns="http://www.w3.org/2000/svg">
<rect x="0.442039" y="7.82353" width="71" height="16.7647" rx="2" fill="#90CAF9"/>
<rect x="0.442039" width="71" height="5.58824" rx="1" fill="#E57373"/>
<rect x="0.442039" y="27.9412" width="21.3" height="11.1765" rx="2" fill="#D89150"/>
<rect x="25.292" y="27.9412" width="21.3" height="11.1765" rx="2" fill="#0097A7"/>
<rect x="50.142" y="27.9412" width="21.3" height="11.1765" rx="2" fill="#2196F3"/>
<rect x="0.442039" y="42.4706" width="21.3" height="1.11765" fill="#8F8F8F"/>
<rect x="0.442039" y="49.1765" width="21.3" height="1.11765" fill="#8F8F8F"/>
<rect x="0.442039" y="55.8824" width="10.65" height="1.11765" fill="#8F8F8F"/>
<rect x="0.442039" y="52.5294" width="21.3" height="1.11765" fill="#8F8F8F"/>
<rect x="0.442039" y="45.8235" width="21.3" height="1.11765" fill="#8F8F8F"/>
<rect x="50.142" y="42.4706" width="21.3" height="1.11765" fill="#8F8F8F"/>
<rect x="50.142" y="49.1765" width="21.3" height="1.11765" fill="#8F8F8F"/>
<rect x="50.142" y="55.8824" width="10.65" height="1.11765" fill="#8F8F8F"/>
<rect x="50.142" y="52.5294" width="21.3" height="1.11765" fill="#8F8F8F"/>
<rect x="50.142" y="45.8235" width="21.3" height="1.11765" fill="#8F8F8F"/>
<rect x="25.292" y="42.4706" width="21.3" height="1.11765" fill="#8F8F8F"/>
<rect x="25.292" y="49.1765" width="21.3" height="1.11765" fill="#8F8F8F"/>
<rect x="25.292" y="55.8824" width="10.65" height="1.11765" fill="#8F8F8F"/>
<rect x="25.292" y="52.5294" width="21.3" height="1.11765" fill="#8F8F8F"/>
<rect x="25.292" y="45.8235" width="21.3" height="1.11765" fill="#8F8F8F"/>
</svg>
