<svg width="200" height="211" viewBox="0 0 200 211" fill="none" xmlns="http://www.w3.org/2000/svg">
<rect x="4" y="19" width="192" height="192" rx="20" fill="#F0EFEF"/>
<path d="M103.731 203.231C101.743 205.459 98.2574 205.459 96.2692 203.231L20.829 118.682C17.9538 115.459 20.2411 110.353 24.5598 110.353L175.44 110.353C179.759 110.353 182.046 115.459 179.171 118.682L103.731 203.231Z" fill="#D0C6FF"/>
<path d="M103.731 164.231C101.743 166.459 98.2574 166.459 96.2692 164.231L20.829 79.6818C17.9538 76.4594 20.2411 71.3529 24.5598 71.3529L175.44 71.3529C179.759 71.3529 182.046 76.4594 179.171 79.6818L103.731 164.231Z" fill="#A895FF"/>
<path d="M103.634 118.375C101.661 120.464 98.3385 120.464 96.3655 118.375L21.3653 38.9893C18.3529 35.8008 20.6134 30.5556 24.9998 30.5556L175 30.5556C179.387 30.5556 181.647 35.8008 178.635 38.9893L103.634 118.375Z" fill="#8E75FF"/>
</svg>
