<svg width="192" height="192" viewBox="0 0 192 192" fill="none" xmlns="http://www.w3.org/2000/svg">
<path d="M95.5876 117.333V141.333" stroke="#434343"/>
<path d="M62.0257 151.059H86.4873" stroke="#434343"/>
<path d="M105.513 151.059H129.974" stroke="#434343"/>
<path d="M148.054 150.667C148.054 155.29 144.23 159.059 139.487 159.059C134.744 159.059 130.921 155.29 130.921 150.667C130.921 146.044 134.744 142.274 139.487 142.274C144.23 142.274 148.054 146.044 148.054 150.667Z" fill="#D9D9D9" stroke="#C0C0C0"/>
<path d="M104.133 150.392C104.133 155.015 100.31 158.784 95.5665 158.784C90.8232 158.784 87 155.015 87 150.392C87 145.769 90.8232 142 95.5665 142C100.31 142 104.133 145.769 104.133 150.392Z" fill="#D9D9D9" stroke="#C0C0C0"/>
<path d="M145.268 58H46.8393C45.2712 58 44 59.2641 44 60.8235V79.9608C44 81.5202 45.2712 82.7844 46.8393 82.7844H145.268C146.836 82.7844 148.107 81.5202 148.107 79.9608V60.8235C148.107 59.2641 146.836 58 145.268 58Z" fill="#D9D9D9" stroke="#C0C0C0"/>
<path d="M94.6947 72.1176H138.182" stroke="#8A8A8A"/>
<path d="M72.9511 75.7255C75.9532 75.7255 78.387 73.3377 78.387 70.3922C78.387 67.4466 75.9532 65.0588 72.9511 65.0588C69.9489 65.0588 67.5152 67.4466 67.5152 70.3922C67.5152 73.3377 69.9489 75.7255 72.9511 75.7255Z" fill="#FFA726"/>
<path d="M56.6433 75.7255C59.6455 75.7255 62.0792 73.3377 62.0792 70.3922C62.0792 67.4466 59.6455 65.0588 56.6433 65.0588C53.6412 65.0588 51.2074 67.4466 51.2074 70.3922C51.2074 73.3377 53.6412 75.7255 56.6433 75.7255Z" fill="#2FC822"/>
<path d="M145.268 88H46.8393C45.2712 88 44 89.2641 44 90.8235V109.961C44 111.52 45.2712 112.784 46.8393 112.784H145.268C146.836 112.784 148.107 111.52 148.107 109.961V90.8235C148.107 89.2641 146.836 88 145.268 88Z" fill="#D9D9D9" stroke="#C0C0C0"/>
<path d="M94.6947 102.118H138.182" stroke="#8A8A8A"/>
<path d="M72.9511 105.725C75.9532 105.725 78.387 103.338 78.387 100.392C78.387 97.4466 75.9532 95.0588 72.9511 95.0588C69.9489 95.0588 67.5152 97.4466 67.5152 100.392C67.5152 103.338 69.9489 105.725 72.9511 105.725Z" fill="#FFA726"/>
<path d="M56.6433 105.725C59.6455 105.725 62.0792 103.338 62.0792 100.392C62.0792 97.4466 59.6455 95.0588 56.6433 95.0588C53.6412 95.0588 51.2074 97.4466 51.2074 100.392C51.2074 103.338 53.6412 105.725 56.6433 105.725Z" fill="#2FC822"/>
<path d="M163.894 25.9431L168.788 17.4865C169.064 17.0125 168.897 16.4103 168.428 16.1348C167.959 15.8593 167.349 16.0195 167.079 16.4935L162.121 25.059C158.338 23.3357 154.079 22.3747 149.5 22.3747C144.921 22.3747 140.662 23.3357 136.879 25.059L131.921 16.4935C131.645 16.0195 131.041 15.8593 130.566 16.1348C130.09 16.4103 129.93 17.0125 130.206 17.4865L135.1 25.9431C126.66 30.5045 120.944 39.0252 120 49H179C178.056 39.0251 172.339 30.5045 163.894 25.9431ZM135.954 40.7357C134.586 40.7357 133.481 39.6274 133.481 38.2692C133.481 36.9046 134.593 35.8027 135.954 35.8027C137.322 35.8027 138.427 36.911 138.427 38.2692C138.433 39.6274 137.322 40.7357 135.954 40.7357ZM163.039 40.7357C161.671 40.7357 160.567 39.6274 160.567 38.2692C160.567 36.9046 161.678 35.8027 163.039 35.8027C164.407 35.8027 165.512 36.911 165.512 38.2692C165.519 39.6274 164.407 40.7357 163.039 40.7357Z" fill="#32DE84"/>
<path d="M58.4091 142.136C58.0528 142.415 51.7629 145.992 51.7629 153.947C51.7629 163.148 59.7666 166.403 60.0061 166.483C59.9693 166.682 58.7346 170.941 55.7862 175.281C53.1572 179.1 50.4115 182.913 46.2346 182.913C42.0577 182.913 40.9828 180.464 36.1609 180.464C31.4619 180.464 29.7912 182.994 25.9705 182.994C22.1499 182.994 19.484 179.46 16.4189 175.12C12.8686 170.023 10 162.106 10 154.592C10 142.539 17.7641 136.147 25.4054 136.147C29.4656 136.147 32.8501 138.837 35.3993 138.837C37.8256 138.837 41.6093 135.985 46.2285 135.985C47.9791 135.985 54.269 136.147 58.4091 142.136ZM44.0356 130.883C45.9459 128.595 47.2973 125.421 47.2973 122.246C47.2973 121.806 47.2604 121.36 47.1806 121C44.0725 121.118 40.3747 123.089 38.145 125.7C36.3943 127.708 34.7604 130.883 34.7604 134.101C34.7604 134.584 34.8403 135.068 34.8771 135.223C35.0737 135.26 35.3931 135.303 35.7125 135.303C38.5012 135.303 42.0086 133.419 44.0356 130.883Z" fill="#4D4D4D"/>
</svg>
