<svg width="74" height="86" viewBox="0 0 74 86" fill="none" xmlns="http://www.w3.org/2000/svg">
<rect x="6.04245" y="44.1429" width="14.4472" height="27.0884" rx="7.22359" transform="rotate(-10.2664 6.04245 44.1429)" fill="#00AD98"/>
<path fill-rule="evenodd" clip-rule="evenodd" d="M17.9782 69.5103C21.9038 68.7992 24.5098 65.0405 23.7987 61.1149L21.5457 48.676C20.8347 44.7504 17.076 42.1445 13.1504 42.8555L17.9782 69.5103Z" fill="#474747"/>
<rect x="51.3555" y="35.9356" width="14.4472" height="27.0884" rx="7.22359" transform="rotate(-10.2664 51.3555 35.9356)" fill="#00AD98"/>
<path fill-rule="evenodd" clip-rule="evenodd" d="M63.2956 61.3022L63.2913 61.3029L58.4635 34.6482C54.5379 35.3592 51.9319 39.1179 52.643 43.0435L54.8959 55.4824C55.607 59.408 59.3657 62.014 63.2913 61.3029C63.2913 61.3029 63.2913 61.3029 63.2913 61.3029C63.2927 61.3027 63.2941 61.3024 63.2956 61.3022Z" fill="#474747"/>
<path d="M11.9385 41.231C7.05717 13.3878 53.7999 5.97361 58.5025 32.7971" stroke="black" stroke-width="4" stroke-linecap="round"/>
<path d="M64.36 63.4035C62.0306 74.6077 49.1754 75.4067 46.7267 73.709" stroke="black" stroke-width="5" stroke-linecap="round"/>
<circle cx="46.9489" cy="73.6688" r="5.64343" transform="rotate(-10.2664 46.9489 73.6688)" fill="black"/>
</svg>
