<svg width="157" height="77" viewBox="0 0 157 77" fill="none" xmlns="http://www.w3.org/2000/svg">
<path d="M120.118 38.8114L59.4963 3.81135" stroke="#EDEDED" stroke-width="5" stroke-linecap="round"/>
<line x1="2.54696" y1="35.9633" x2="58.8386" y2="3.46328" stroke="#EDEDED" stroke-width="5" stroke-linecap="round"/>
<path d="M154.118 38.8114L93.4963 3.81135" stroke="#EDEDED" stroke-width="5" stroke-linecap="round"/>
<line x1="75.9151" y1="12.5849" x2="92.3695" y2="3.08494" stroke="#EDEDED" stroke-width="5" stroke-linecap="round"/>
<line x1="21" y1="25" x2="21" y2="5" stroke="#EDEDED" stroke-width="4" stroke-linecap="round"/>
<line x1="22" y1="5" x2="34" y2="5" stroke="#EDEDED" stroke-width="4" stroke-linecap="round"/>
<line x1="35" y1="17" x2="35" y2="5" stroke="#EDEDED" stroke-width="4" stroke-linecap="round"/>
<path d="M22.696 70V59.664H14.696V70H11.72V47.984H14.696V57.232H22.696V47.984H25.672V70H22.696Z" fill="white"/>
<path d="M42.8063 61.072C42.8063 61.52 42.7849 62.0213 42.7423 62.576H32.9503C33.0356 64.5387 33.4303 65.9573 34.1343 66.832C34.8383 67.6853 35.7983 68.112 37.0143 68.112C37.7823 68.112 38.4649 67.9947 39.0623 67.76C39.6809 67.5253 40.3209 67.1413 40.9823 66.608L42.2623 68.304C40.6836 69.712 38.8916 70.416 36.8863 70.416C34.6889 70.416 32.9823 69.6587 31.7663 68.144C30.5716 66.608 29.9743 64.464 29.9743 61.712C29.9743 58.96 30.5503 56.784 31.7023 55.184C32.8543 53.5627 34.4543 52.752 36.5023 52.752C38.5289 52.752 40.0863 53.4773 41.1743 54.928C42.2623 56.3573 42.8063 58.4053 42.8063 61.072ZM40.0223 60.208C40.0223 56.688 38.8596 54.928 36.5343 54.928C35.4676 54.928 34.6249 55.376 34.0063 56.272C33.3876 57.1467 33.0356 58.576 32.9503 60.56H40.0223V60.208Z" fill="white"/>
<path d="M49.9788 70.416C48.9548 70.416 48.1441 70.1067 47.5468 69.488C46.9494 68.8693 46.6508 68.0053 46.6508 66.896V46.352L49.5308 46.032V66.8C49.5308 67.632 49.8721 68.048 50.5548 68.048C50.8321 68.048 51.1414 67.984 51.4827 67.856L52.1228 69.872C51.4401 70.2347 50.7254 70.416 49.9788 70.416Z" fill="white"/>
<path d="M62.5123 52.752C64.3469 52.752 65.7229 53.5093 66.6403 55.024C67.5789 56.5387 68.0483 58.704 68.0483 61.52C68.0483 64.2507 67.5256 66.416 66.4803 68.016C65.4563 69.616 64.0163 70.416 62.1603 70.416C60.4963 70.416 59.1523 69.744 58.1283 68.4V76.4L55.2483 76.752V53.168H57.7763L57.9363 55.44C59.0883 53.648 60.6136 52.752 62.5123 52.752ZM61.4883 68.112C63.8563 68.112 65.0403 65.9253 65.0403 61.552C65.0403 59.2693 64.7629 57.616 64.2083 56.592C63.6749 55.5467 62.8536 55.024 61.7443 55.024C60.9976 55.024 60.3363 55.248 59.7603 55.696C59.1842 56.144 58.6403 56.752 58.1283 57.52V66.032C59.0029 67.4187 60.1229 68.112 61.4883 68.112Z" fill="white"/>
<path d="M83.3835 70V59.664H75.3835V70H72.4075V47.984H75.3835V57.232H83.3835V47.984H86.3595V70H83.3835Z" fill="white"/>
<path d="M97.5417 52.752C99.6964 52.752 101.371 53.5093 102.566 55.024C103.76 56.5387 104.358 58.7147 104.358 61.552C104.358 64.2827 103.75 66.448 102.534 68.048C101.318 69.6267 99.6431 70.416 97.5098 70.416C95.3551 70.416 93.6698 69.6373 92.4538 68.08C91.2591 66.5227 90.6618 64.3573 90.6618 61.584C90.6618 58.7893 91.2697 56.624 92.4857 55.088C93.7017 53.5307 95.3871 52.752 97.5417 52.752ZM97.5417 55.056C96.2831 55.056 95.3231 55.5893 94.6618 56.656C94.0004 57.7013 93.6698 59.344 93.6698 61.584C93.6698 65.9573 94.9498 68.144 97.5098 68.144C100.07 68.144 101.35 65.9467 101.35 61.552C101.35 59.312 101.03 57.6693 100.39 56.624C99.7498 55.5787 98.8004 55.056 97.5417 55.056Z" fill="white"/>
<path d="M124.082 52.752C125.298 52.752 126.268 53.2107 126.993 54.128C127.719 55.024 128.082 56.2293 128.082 57.744V70H125.234V58.064C125.234 56.016 124.572 54.992 123.25 54.992C121.97 54.992 120.796 55.9733 119.729 57.936V70H116.882V58.064C116.882 56.016 116.22 54.992 114.897 54.992C113.596 54.992 112.423 55.9733 111.378 57.936V70H108.53V53.168H111.026L111.25 55.632C112.487 53.712 113.98 52.752 115.729 52.752C116.647 52.752 117.425 53.0187 118.065 53.552C118.705 54.0853 119.164 54.8427 119.442 55.824C120.743 53.776 122.29 52.752 124.082 52.752Z" fill="white"/>
<path d="M144.931 61.072C144.931 61.52 144.91 62.0213 144.867 62.576H135.075C135.161 64.5387 135.555 65.9573 136.259 66.832C136.963 67.6853 137.923 68.112 139.139 68.112C139.907 68.112 140.59 67.9947 141.187 67.76C141.806 67.5253 142.446 67.1413 143.107 66.608L144.387 68.304C142.809 69.712 141.017 70.416 139.011 70.416C136.814 70.416 135.107 69.6587 133.891 68.144C132.697 66.608 132.099 64.464 132.099 61.712C132.099 58.96 132.675 56.784 133.827 55.184C134.979 53.5627 136.579 52.752 138.627 52.752C140.654 52.752 142.211 53.4773 143.299 54.928C144.387 56.3573 144.931 58.4053 144.931 61.072ZM142.147 60.208C142.147 56.688 140.985 54.928 138.659 54.928C137.593 54.928 136.75 55.376 136.131 56.272C135.513 57.1467 135.161 58.576 135.075 60.56H142.147V60.208Z" fill="white"/>
</svg>
