<svg width="66" height="39" viewBox="0 0 66 39" fill="none" xmlns="http://www.w3.org/2000/svg">
<path d="M0.295455 4.55682V4.20455C0.611742 4.20455 0.832386 4.13826 0.957386 4.00568C1.08428 3.87311 1.14773 3.65152 1.14773 3.34091V2.43182C1.14773 2.17045 1.17235 1.94413 1.22159 1.75284C1.27273 1.56155 1.35511 1.40341 1.46875 1.27841C1.58239 1.15341 1.7339 1.06061 1.9233 1C2.11269 0.939394 2.34659 0.909091 2.625 0.909091V1.46591C2.4053 1.46591 2.23201 1.5 2.10511 1.56818C1.98011 1.63636 1.8911 1.74242 1.83807 1.88636C1.78693 2.02841 1.76136 2.21023 1.76136 2.43182V3.56818C1.76136 3.71591 1.74148 3.85038 1.7017 3.97159C1.66383 4.0928 1.5928 4.19697 1.48864 4.28409C1.38447 4.37121 1.2358 4.43845 1.04261 4.4858C0.851326 4.53314 0.602273 4.55682 0.295455 4.55682ZM2.625 8.18182C2.34659 8.18182 2.11269 8.15152 1.9233 8.09091C1.7339 8.0303 1.58239 7.9375 1.46875 7.8125C1.35511 7.6875 1.27273 7.52936 1.22159 7.33807C1.17235 7.14678 1.14773 6.92045 1.14773 6.65909V5.75C1.14773 5.43939 1.08428 5.2178 0.957386 5.08523C0.832386 4.95265 0.611742 4.88636 0.295455 4.88636V4.53409C0.602273 4.53409 0.851326 4.55777 1.04261 4.60511C1.2358 4.65246 1.38447 4.7197 1.48864 4.80682C1.5928 4.89394 1.66383 4.99811 1.7017 5.11932C1.74148 5.24053 1.76136 5.375 1.76136 5.52273V6.65909C1.76136 6.88068 1.78693 7.0625 1.83807 7.20455C1.8911 7.34659 1.98011 7.4517 2.10511 7.51989C2.23201 7.58996 2.4053 7.625 2.625 7.625V8.18182ZM0.295455 4.88636V4.20455H0.965909V4.88636H0.295455ZM2.60227 34.5341V34.8864C2.28598 34.8864 2.06439 34.9527 1.9375 35.0852C1.8125 35.2178 1.75 35.4394 1.75 35.75V36.6591C1.75 36.9205 1.72443 37.1468 1.6733 37.3381C1.62405 37.5294 1.54261 37.6875 1.42898 37.8125C1.31534 37.9375 1.16383 38.0303 0.974432 38.0909C0.785038 38.1515 0.551136 38.1818 0.272727 38.1818V37.625C0.492424 37.625 0.664773 37.59 0.789773 37.5199C0.916667 37.4517 1.00568 37.3466 1.05682 37.2045C1.10985 37.0625 1.13636 36.8807 1.13636 36.6591V35.5227C1.13636 35.375 1.1553 35.2405 1.19318 35.1193C1.23295 34.9981 1.30492 34.8939 1.40909 34.8068C1.51326 34.7197 1.66098 34.6525 1.85227 34.6051C2.04545 34.5578 2.29545 34.5341 2.60227 34.5341ZM0.272727 30.9091C0.551136 30.9091 0.785038 30.9394 0.974432 31C1.16383 31.0606 1.31534 31.1534 1.42898 31.2784C1.54261 31.4034 1.62405 31.5616 1.6733 31.7528C1.72443 31.9441 1.75 32.1705 1.75 32.4318V33.3409C1.75 33.6515 1.8125 33.8731 1.9375 34.0057C2.06439 34.1383 2.28598 34.2045 2.60227 34.2045V34.5568C2.29545 34.5568 2.04545 34.5331 1.85227 34.4858C1.66098 34.4384 1.51326 34.3712 1.40909 34.2841C1.30492 34.197 1.23295 34.0928 1.19318 33.9716C1.1553 33.8504 1.13636 33.7159 1.13636 33.5682V32.4318C1.13636 32.2102 1.10985 32.0284 1.05682 31.8864C1.00568 31.7424 0.916667 31.6364 0.789773 31.5682C0.664773 31.5 0.492424 31.4659 0.272727 31.4659V30.9091ZM2.60227 34.2045V34.8864H1.93182V34.2045H2.60227Z" fill="#E3823B"/>
<path d="M32.1726 17.0455C32.0324 17.0455 31.9122 16.9953 31.8118 16.8949C31.7114 16.7945 31.6612 16.6742 31.6612 16.5341C31.6612 16.3939 31.7114 16.2737 31.8118 16.1733C31.9122 16.0729 32.0324 16.0227 32.1726 16.0227C32.3127 16.0227 32.433 16.0729 32.5334 16.1733C32.6338 16.2737 32.6839 16.3939 32.6839 16.5341C32.6839 16.6269 32.6603 16.7121 32.6129 16.7898C32.5675 16.8674 32.5059 16.9299 32.4283 16.9773C32.3525 17.0227 32.2673 17.0455 32.1726 17.0455ZM32.1726 13.8068C32.0324 13.8068 31.9122 13.7566 31.8118 13.6562C31.7114 13.5559 31.6612 13.4356 31.6612 13.2955C31.6612 13.1553 31.7114 13.035 31.8118 12.9347C31.9122 12.8343 32.0324 12.7841 32.1726 12.7841C32.3127 12.7841 32.433 12.8343 32.5334 12.9347C32.6338 13.035 32.6839 13.1553 32.6839 13.2955C32.6839 13.3883 32.6603 13.4735 32.6129 13.5511C32.5675 13.6288 32.5059 13.6913 32.4283 13.7386C32.3525 13.7841 32.2673 13.8068 32.1726 13.8068ZM52.8871 16.2045L52.8416 16.5114C52.8094 16.7273 52.7602 16.9583 52.6939 17.2045C52.6295 17.4508 52.5623 17.6828 52.4922 17.9006C52.4221 18.1184 52.3643 18.2917 52.3189 18.4205H51.8075C51.8321 18.2992 51.8643 18.1392 51.9041 17.9403C51.9439 17.7415 51.9837 17.5189 52.0234 17.2727C52.0651 17.0284 52.0992 16.7784 52.1257 16.5227L52.1598 16.2045H52.8871ZM47.9538 27.0455C47.8137 27.0455 47.6934 26.9953 47.593 26.8949C47.4927 26.7945 47.4425 26.6742 47.4425 26.5341C47.4425 26.3939 47.4927 26.2737 47.593 26.1733C47.6934 26.0729 47.8137 26.0227 47.9538 26.0227C48.094 26.0227 48.2143 26.0729 48.3146 26.1733C48.415 26.2737 48.4652 26.3939 48.4652 26.5341C48.4652 26.6269 48.4415 26.7121 48.3942 26.7898C48.3487 26.8674 48.2872 26.9299 48.2095 26.9773C48.1338 27.0227 48.0485 27.0455 47.9538 27.0455ZM47.9538 23.8068C47.8137 23.8068 47.6934 23.7566 47.593 23.6562C47.4927 23.5559 47.4425 23.4356 47.4425 23.2955C47.4425 23.1553 47.4927 23.035 47.593 22.9347C47.6934 22.8343 47.8137 22.7841 47.9538 22.7841C48.094 22.7841 48.2143 22.8343 48.3146 22.9347C48.415 23.035 48.4652 23.1553 48.4652 23.2955C48.4652 23.3883 48.4415 23.4735 48.3942 23.5511C48.3487 23.6288 48.2872 23.6913 48.2095 23.7386C48.1338 23.7841 48.0485 23.8068 47.9538 23.8068Z" fill="#393939"/>
<path d="M7.95455 11.1818V11.6932C7.95455 11.8485 7.92614 12.0142 7.86932 12.1903C7.81439 12.3646 7.73295 12.5341 7.625 12.6989C7.51894 12.8617 7.39015 13.0038 7.23864 13.125L6.875 12.8295C6.99432 12.6591 7.09754 12.482 7.18466 12.2983C7.27367 12.1127 7.31818 11.9148 7.31818 11.7045V11.1818H7.95455ZM9.40909 11.1818V11.6932C9.40909 11.8485 9.38068 12.0142 9.32386 12.1903C9.26894 12.3646 9.1875 12.5341 9.07955 12.6989C8.97348 12.8617 8.8447 13.0038 8.69318 13.125L8.32955 12.8295C8.44886 12.6591 8.55208 12.482 8.6392 12.2983C8.72822 12.1127 8.77273 11.9148 8.77273 11.7045V11.1818H9.40909ZM29.228 11.1818V11.6932C29.228 11.8485 29.1996 12.0142 29.1428 12.1903C29.0878 12.3646 29.0064 12.5341 28.8984 12.6989C28.7924 12.8617 28.6636 13.0038 28.5121 13.125L28.1484 12.8295C28.2678 12.6591 28.371 12.482 28.4581 12.2983C28.5471 12.1127 28.5916 11.9148 28.5916 11.7045V11.1818H29.228ZM30.6825 11.1818V11.6932C30.6825 11.8485 30.6541 12.0142 30.5973 12.1903C30.5424 12.3646 30.4609 12.5341 30.353 12.6989C30.2469 12.8617 30.1181 13.0038 29.9666 13.125L29.603 12.8295C29.7223 12.6591 29.8255 12.482 29.9126 12.2983C30.0017 12.1127 30.0462 11.9148 30.0462 11.7045V11.1818H30.6825ZM7.13636 23V22.4886C7.13636 22.3333 7.16383 22.1686 7.21875 21.9943C7.27557 21.8182 7.35701 21.6487 7.46307 21.4858C7.57102 21.321 7.70076 21.178 7.85227 21.0568L8.21591 21.3523C8.09659 21.5227 7.99242 21.7008 7.90341 21.8864C7.81629 22.0701 7.77273 22.267 7.77273 22.4773V23H7.13636ZM8.59091 23V22.4886C8.59091 22.3333 8.61837 22.1686 8.6733 21.9943C8.73011 21.8182 8.81155 21.6487 8.91761 21.4858C9.02557 21.321 9.1553 21.178 9.30682 21.0568L9.67045 21.3523C9.55114 21.5227 9.44697 21.7008 9.35795 21.8864C9.27083 22.0701 9.22727 22.267 9.22727 22.4773V23H8.59091ZM10.4105 27V22.6364H11.0582V23.3182H11.1151C11.206 23.0852 11.3527 22.9044 11.5554 22.7756C11.758 22.6449 12.0014 22.5795 12.2855 22.5795C12.5734 22.5795 12.813 22.6449 13.0043 22.7756C13.1974 22.9044 13.348 23.0852 13.456 23.3182H13.5014C13.6132 23.0928 13.7808 22.9138 14.0043 22.7812C14.2277 22.6468 14.4957 22.5795 14.8082 22.5795C15.1984 22.5795 15.5175 22.7017 15.7656 22.946C16.0137 23.1884 16.1378 23.5663 16.1378 24.0795V27H15.4673V24.0795C15.4673 23.7576 15.3793 23.5275 15.2031 23.3892C15.027 23.2509 14.8196 23.1818 14.581 23.1818C14.2741 23.1818 14.0365 23.2746 13.8679 23.4602C13.6993 23.6439 13.6151 23.8769 13.6151 24.1591V27H12.9332V24.0114C12.9332 23.7633 12.8527 23.5634 12.6918 23.4119C12.5308 23.2585 12.3234 23.1818 12.0696 23.1818C11.8954 23.1818 11.7325 23.2282 11.581 23.321C11.4313 23.4138 11.3101 23.5426 11.2173 23.7074C11.1264 23.8703 11.081 24.0587 11.081 24.2727V27H10.4105ZM19.1932 27.0909C18.7727 27.0909 18.41 26.9981 18.1051 26.8125C17.8021 26.625 17.5682 26.3636 17.4034 26.0284C17.2405 25.6913 17.1591 25.2992 17.1591 24.8523C17.1591 24.4053 17.2405 24.0114 17.4034 23.6705C17.5682 23.3277 17.7973 23.0606 18.0909 22.8693C18.3864 22.6761 18.7311 22.5795 19.125 22.5795C19.3523 22.5795 19.5767 22.6174 19.7983 22.6932C20.0199 22.7689 20.2216 22.892 20.4034 23.0625C20.5852 23.2311 20.7301 23.4545 20.8381 23.733C20.946 24.0114 21 24.3542 21 24.7614V25.0455H17.6364V24.4659H20.3182C20.3182 24.2197 20.2689 24 20.1705 23.8068C20.0739 23.6136 19.9356 23.4612 19.7557 23.3494C19.5777 23.2377 19.3674 23.1818 19.125 23.1818C18.858 23.1818 18.6269 23.2481 18.4318 23.3807C18.2386 23.5114 18.09 23.6818 17.9858 23.892C17.8816 24.1023 17.8295 24.3277 17.8295 24.5682V24.9545C17.8295 25.2841 17.8864 25.5634 18 25.7926C18.1155 26.0199 18.2756 26.1932 18.4801 26.3125C18.6847 26.4299 18.9223 26.4886 19.1932 26.4886C19.3693 26.4886 19.5284 26.464 19.6705 26.4148C19.8144 26.3636 19.9384 26.2879 20.0426 26.1875C20.1468 26.0852 20.2273 25.9583 20.2841 25.8068L20.9318 25.9886C20.8636 26.2083 20.7491 26.4015 20.5881 26.5682C20.4271 26.733 20.2282 26.8617 19.9915 26.9545C19.7547 27.0455 19.4886 27.0909 19.1932 27.0909ZM25.1108 23.6136L24.5085 23.7841C24.4706 23.6837 24.4148 23.5862 24.3409 23.4915C24.2689 23.3949 24.1705 23.3153 24.0455 23.2528C23.9205 23.1903 23.7604 23.1591 23.5653 23.1591C23.2983 23.1591 23.0758 23.2206 22.8977 23.3438C22.7216 23.465 22.6335 23.6193 22.6335 23.8068C22.6335 23.9735 22.6941 24.1051 22.8153 24.2017C22.9366 24.2983 23.1259 24.3788 23.3835 24.4432L24.0312 24.6023C24.4214 24.697 24.7121 24.8419 24.9034 25.0369C25.0947 25.2301 25.1903 25.4792 25.1903 25.7841C25.1903 26.0341 25.1184 26.2576 24.9744 26.4545C24.8324 26.6515 24.6335 26.8068 24.3778 26.9205C24.1222 27.0341 23.8248 27.0909 23.4858 27.0909C23.0407 27.0909 22.6723 26.9943 22.3807 26.8011C22.089 26.608 21.9044 26.3258 21.8267 25.9545L22.4631 25.7955C22.5237 26.0303 22.6383 26.2064 22.8068 26.3239C22.9773 26.4413 23.1998 26.5 23.4744 26.5C23.7869 26.5 24.035 26.4337 24.2188 26.3011C24.4044 26.1667 24.4972 26.0057 24.4972 25.8182C24.4972 25.6667 24.4441 25.5398 24.3381 25.4375C24.232 25.3333 24.0691 25.2557 23.8494 25.2045L23.1222 25.0341C22.7225 24.9394 22.429 24.7926 22.2415 24.5938C22.0559 24.393 21.9631 24.142 21.9631 23.8409C21.9631 23.5947 22.0322 23.3769 22.1705 23.1875C22.3106 22.9981 22.5009 22.8494 22.7415 22.7415C22.9839 22.6335 23.2585 22.5795 23.5653 22.5795C23.9972 22.5795 24.3362 22.6742 24.5824 22.8636C24.8305 23.053 25.0066 23.303 25.1108 23.6136ZM29.2905 23.6136L28.6882 23.7841C28.6503 23.6837 28.5945 23.5862 28.5206 23.4915C28.4486 23.3949 28.3501 23.3153 28.2251 23.2528C28.1001 23.1903 27.9401 23.1591 27.745 23.1591C27.478 23.1591 27.2554 23.2206 27.0774 23.3438C26.9013 23.465 26.8132 23.6193 26.8132 23.8068C26.8132 23.9735 26.8738 24.1051 26.995 24.2017C27.1162 24.2983 27.3056 24.3788 27.5632 24.4432L28.2109 24.6023C28.6011 24.697 28.8918 24.8419 29.0831 25.0369C29.2744 25.2301 29.37 25.4792 29.37 25.7841C29.37 26.0341 29.2981 26.2576 29.1541 26.4545C29.0121 26.6515 28.8132 26.8068 28.5575 26.9205C28.3018 27.0341 28.0045 27.0909 27.6655 27.0909C27.2204 27.0909 26.852 26.9943 26.5604 26.8011C26.2687 26.608 26.084 26.3258 26.0064 25.9545L26.6428 25.7955C26.7034 26.0303 26.8179 26.2064 26.9865 26.3239C27.157 26.4413 27.3795 26.5 27.6541 26.5C27.9666 26.5 28.2147 26.4337 28.3984 26.3011C28.584 26.1667 28.6768 26.0057 28.6768 25.8182C28.6768 25.6667 28.6238 25.5398 28.5178 25.4375C28.4117 25.3333 28.2488 25.2557 28.0291 25.2045L27.3018 25.0341C26.9022 24.9394 26.6087 24.7926 26.4212 24.5938C26.2356 24.393 26.1428 24.142 26.1428 23.8409C26.1428 23.5947 26.2119 23.3769 26.3501 23.1875C26.4903 22.9981 26.6806 22.8494 26.9212 22.7415C27.1636 22.6335 27.4382 22.5795 27.745 22.5795C28.1768 22.5795 28.5159 22.6742 28.7621 22.8636C29.0102 23.053 29.1863 23.303 29.2905 23.6136ZM31.6634 27.1023C31.3868 27.1023 31.1359 27.0502 30.9105 26.946C30.6851 26.84 30.5062 26.6875 30.3736 26.4886C30.241 26.2879 30.1747 26.0455 30.1747 25.7614C30.1747 25.5114 30.224 25.3087 30.3224 25.1534C30.4209 24.9962 30.5526 24.8731 30.7173 24.7841C30.8821 24.6951 31.0639 24.6288 31.2628 24.5852C31.4635 24.5398 31.6652 24.5038 31.8679 24.4773C32.133 24.4432 32.348 24.4176 32.5128 24.4006C32.6795 24.3816 32.8007 24.3504 32.8764 24.3068C32.9541 24.2633 32.9929 24.1875 32.9929 24.0795V24.0568C32.9929 23.7765 32.9162 23.5587 32.7628 23.4034C32.6113 23.2481 32.3812 23.1705 32.0724 23.1705C31.7524 23.1705 31.5014 23.2405 31.3196 23.3807C31.1378 23.5208 31.0099 23.6705 30.9361 23.8295L30.2997 23.6023C30.4134 23.3371 30.5649 23.1307 30.7543 22.983C30.9455 22.8333 31.1539 22.7292 31.3793 22.6705C31.6065 22.6098 31.83 22.5795 32.0497 22.5795C32.1899 22.5795 32.3509 22.5966 32.5327 22.6307C32.7164 22.6629 32.8935 22.7301 33.0639 22.8324C33.2363 22.9347 33.3793 23.089 33.4929 23.2955C33.6065 23.5019 33.6634 23.7784 33.6634 24.125V27H32.9929V26.4091H32.9588C32.9134 26.5038 32.8376 26.6051 32.7315 26.7131C32.6255 26.821 32.4844 26.9129 32.3082 26.9886C32.1321 27.0644 31.9171 27.1023 31.6634 27.1023ZM31.7656 26.5C32.0308 26.5 32.2543 26.4479 32.4361 26.3438C32.6198 26.2396 32.758 26.1051 32.8509 25.9403C32.9455 25.7756 32.9929 25.6023 32.9929 25.4205V24.8068C32.9645 24.8409 32.902 24.8722 32.8054 24.9006C32.7107 24.9271 32.6009 24.9508 32.4759 24.9716C32.3527 24.9905 32.2325 25.0076 32.1151 25.0227C31.9995 25.036 31.9058 25.0473 31.8338 25.0568C31.6596 25.0795 31.4967 25.1165 31.3452 25.1676C31.1955 25.2169 31.0743 25.2917 30.9815 25.392C30.8906 25.4905 30.8452 25.625 30.8452 25.7955C30.8452 26.0284 30.9313 26.2045 31.1037 26.3239C31.2779 26.4413 31.4986 26.5 31.7656 26.5ZM36.6484 28.7273C36.3246 28.7273 36.0462 28.6856 35.8132 28.6023C35.5803 28.5208 35.3861 28.4129 35.2308 28.2784C35.0774 28.1458 34.9553 28.0038 34.8643 27.8523L35.3984 27.4773C35.459 27.5568 35.5357 27.6477 35.6286 27.75C35.7214 27.8542 35.8482 27.9441 36.0092 28.0199C36.1721 28.0975 36.3852 28.1364 36.6484 28.1364C37.0007 28.1364 37.2914 28.0511 37.5206 27.8807C37.7498 27.7102 37.8643 27.4432 37.8643 27.0795V26.1932H37.8075C37.7583 26.2727 37.6882 26.3712 37.5973 26.4886C37.5083 26.6042 37.3795 26.7074 37.2109 26.7983C37.0443 26.8873 36.8189 26.9318 36.5348 26.9318C36.1825 26.9318 35.8662 26.8485 35.5859 26.6818C35.3075 26.5152 35.0869 26.2727 34.924 25.9545C34.763 25.6364 34.6825 25.25 34.6825 24.7955C34.6825 24.3485 34.7611 23.9593 34.9183 23.6278C35.0755 23.2945 35.2943 23.0369 35.5746 22.8551C35.8549 22.6714 36.1787 22.5795 36.5462 22.5795C36.8303 22.5795 37.0556 22.6269 37.2223 22.7216C37.3909 22.8144 37.5196 22.9205 37.6087 23.0398C37.6996 23.1572 37.7696 23.2538 37.8189 23.3295H37.8871V22.6364H38.5348V27.125C38.5348 27.5 38.4496 27.8049 38.2791 28.0398C38.1106 28.2765 37.8833 28.4498 37.5973 28.5597C37.3132 28.6714 36.9969 28.7273 36.6484 28.7273ZM36.6257 26.3295C36.8946 26.3295 37.1219 26.268 37.3075 26.1449C37.4931 26.0218 37.6342 25.8447 37.7308 25.6136C37.8274 25.3826 37.8757 25.1061 37.8757 24.7841C37.8757 24.4697 37.8284 24.1922 37.7337 23.9517C37.639 23.7112 37.4988 23.5227 37.3132 23.3864C37.1276 23.25 36.8984 23.1818 36.6257 23.1818C36.3416 23.1818 36.1049 23.2538 35.9155 23.3977C35.728 23.5417 35.5869 23.7348 35.4922 23.9773C35.3994 24.2197 35.353 24.4886 35.353 24.7841C35.353 25.0871 35.4003 25.3551 35.495 25.5881C35.5916 25.8191 35.7337 26.0009 35.9212 26.1335C36.1106 26.2642 36.3454 26.3295 36.6257 26.3295ZM41.5916 27.0909C41.1712 27.0909 40.8085 26.9981 40.5036 26.8125C40.2005 26.625 39.9666 26.3636 39.8018 26.0284C39.639 25.6913 39.5575 25.2992 39.5575 24.8523C39.5575 24.4053 39.639 24.0114 39.8018 23.6705C39.9666 23.3277 40.1958 23.0606 40.4893 22.8693C40.7848 22.6761 41.1295 22.5795 41.5234 22.5795C41.7507 22.5795 41.9751 22.6174 42.1967 22.6932C42.4183 22.7689 42.62 22.892 42.8018 23.0625C42.9837 23.2311 43.1286 23.4545 43.2365 23.733C43.3445 24.0114 43.3984 24.3542 43.3984 24.7614V25.0455H40.0348V24.4659H42.7166C42.7166 24.2197 42.6674 24 42.5689 23.8068C42.4723 23.6136 42.334 23.4612 42.1541 23.3494C41.9761 23.2377 41.7659 23.1818 41.5234 23.1818C41.2564 23.1818 41.0253 23.2481 40.8303 23.3807C40.6371 23.5114 40.4884 23.6818 40.3842 23.892C40.2801 24.1023 40.228 24.3277 40.228 24.5682V24.9545C40.228 25.2841 40.2848 25.5634 40.3984 25.7926C40.514 26.0199 40.674 26.1932 40.8786 26.3125C41.0831 26.4299 41.3208 26.4886 41.5916 26.4886C41.7678 26.4886 41.9268 26.464 42.0689 26.4148C42.2128 26.3636 42.3369 26.2879 42.4411 26.1875C42.5452 26.0852 42.6257 25.9583 42.6825 25.8068L43.3303 25.9886C43.2621 26.2083 43.1475 26.4015 42.9865 26.5682C42.8255 26.733 42.6267 26.8617 42.3899 26.9545C42.1532 27.0455 41.8871 27.0909 41.5916 27.0909ZM45.0092 21.1818V21.6932C45.0092 21.8485 44.9808 22.0142 44.924 22.1903C44.8691 22.3646 44.7876 22.5341 44.6797 22.6989C44.5736 22.8617 44.4448 23.0038 44.2933 23.125L43.9297 22.8295C44.049 22.6591 44.1522 22.482 44.2393 22.2983C44.3284 22.1127 44.3729 21.9148 44.3729 21.7045V21.1818H45.0092ZM46.4638 21.1818V21.6932C46.4638 21.8485 46.4354 22.0142 46.3786 22.1903C46.3236 22.3646 46.2422 22.5341 46.1342 22.6989C46.0282 22.8617 45.8994 23.0038 45.7479 23.125L45.3842 22.8295C45.5036 22.6591 45.6068 22.482 45.6939 22.2983C45.7829 22.1127 45.8274 21.9148 45.8274 21.7045V21.1818H46.4638Z" fill="#4C9B67"/>
<path d="M12.2401 17.0909C11.8196 17.0909 11.4569 16.9981 11.152 16.8125C10.849 16.625 10.6151 16.3636 10.4503 16.0284C10.2874 15.6913 10.206 15.2992 10.206 14.8523C10.206 14.4053 10.2874 14.0114 10.4503 13.6705C10.6151 13.3277 10.8442 13.0606 11.1378 12.8693C11.4332 12.6761 11.7779 12.5795 12.1719 12.5795C12.3991 12.5795 12.6236 12.6174 12.8452 12.6932C13.0668 12.7689 13.2685 12.892 13.4503 13.0625C13.6321 13.2311 13.777 13.4545 13.8849 13.733C13.9929 14.0114 14.0469 14.3542 14.0469 14.7614V15.0455H10.6832V14.4659H13.3651C13.3651 14.2197 13.3158 14 13.2173 13.8068C13.1207 13.6136 12.9825 13.4612 12.8026 13.3494C12.6245 13.2377 12.4143 13.1818 12.1719 13.1818C11.9048 13.1818 11.6738 13.2481 11.4787 13.3807C11.2855 13.5114 11.1368 13.6818 11.0327 13.892C10.9285 14.1023 10.8764 14.3277 10.8764 14.5682V14.9545C10.8764 15.2841 10.9332 15.5634 11.0469 15.7926C11.1624 16.0199 11.3224 16.1932 11.527 16.3125C11.7315 16.4299 11.9692 16.4886 12.2401 16.4886C12.4162 16.4886 12.5753 16.464 12.7173 16.4148C12.8613 16.3636 12.9853 16.2879 13.0895 16.1875C13.1937 16.0852 13.2741 15.9583 13.331 15.8068L13.9787 15.9886C13.9105 16.2083 13.7959 16.4015 13.6349 16.5682C13.474 16.733 13.2751 16.8617 13.0384 16.9545C12.8016 17.0455 12.5355 17.0909 12.2401 17.0909ZM15.0668 17V12.6364H15.7145V13.2955H15.7599C15.8395 13.0795 15.9834 12.9044 16.1918 12.7699C16.4001 12.6354 16.6349 12.5682 16.8963 12.5682C16.9455 12.5682 17.0071 12.5691 17.081 12.571C17.1548 12.5729 17.2107 12.5758 17.2486 12.5795V13.2614C17.2259 13.2557 17.1738 13.2472 17.0923 13.2358C17.0128 13.2225 16.9285 13.2159 16.8395 13.2159C16.6274 13.2159 16.438 13.2604 16.2713 13.3494C16.1065 13.4366 15.9759 13.5578 15.8793 13.7131C15.7846 13.8665 15.7372 14.0417 15.7372 14.2386V17H15.0668ZM18.0433 17V12.6364H18.6911V13.2955H18.7365C18.8161 13.0795 18.96 12.9044 19.1683 12.7699C19.3767 12.6354 19.6115 12.5682 19.8729 12.5682C19.9221 12.5682 19.9837 12.5691 20.0575 12.571C20.1314 12.5729 20.1873 12.5758 20.2251 12.5795V13.2614C20.2024 13.2557 20.1503 13.2472 20.0689 13.2358C19.9893 13.2225 19.9051 13.2159 19.8161 13.2159C19.6039 13.2159 19.4145 13.2604 19.2479 13.3494C19.0831 13.4366 18.9524 13.5578 18.8558 13.7131C18.7611 13.8665 18.7138 14.0417 18.7138 14.2386V17H18.0433ZM22.6598 17.0909C22.2659 17.0909 21.9202 16.9972 21.6229 16.8097C21.3274 16.6222 21.0964 16.3598 20.9297 16.0227C20.7649 15.6856 20.6825 15.2917 20.6825 14.8409C20.6825 14.3864 20.7649 13.9896 20.9297 13.6506C21.0964 13.3116 21.3274 13.0483 21.6229 12.8608C21.9202 12.6733 22.2659 12.5795 22.6598 12.5795C23.0537 12.5795 23.3984 12.6733 23.6939 12.8608C23.9912 13.0483 24.2223 13.3116 24.3871 13.6506C24.5537 13.9896 24.6371 14.3864 24.6371 14.8409C24.6371 15.2917 24.5537 15.6856 24.3871 16.0227C24.2223 16.3598 23.9912 16.6222 23.6939 16.8097C23.3984 16.9972 23.0537 17.0909 22.6598 17.0909ZM22.6598 16.4886C22.959 16.4886 23.2053 16.4119 23.3984 16.2585C23.5916 16.1051 23.7346 15.9034 23.8274 15.6534C23.9202 15.4034 23.9666 15.1326 23.9666 14.8409C23.9666 14.5492 23.9202 14.2775 23.8274 14.0256C23.7346 13.7737 23.5916 13.5701 23.3984 13.4148C23.2053 13.2595 22.959 13.1818 22.6598 13.1818C22.3606 13.1818 22.1143 13.2595 21.9212 13.4148C21.728 13.5701 21.585 13.7737 21.4922 14.0256C21.3994 14.2775 21.353 14.5492 21.353 14.8409C21.353 15.1326 21.3994 15.4034 21.4922 15.6534C21.585 15.9034 21.728 16.1051 21.9212 16.2585C22.1143 16.4119 22.3606 16.4886 22.6598 16.4886ZM25.6605 17V12.6364H26.3082V13.2955H26.3537C26.4332 13.0795 26.5772 12.9044 26.7855 12.7699C26.9938 12.6354 27.2287 12.5682 27.4901 12.5682C27.5393 12.5682 27.6009 12.5691 27.6747 12.571C27.7486 12.5729 27.8045 12.5758 27.8423 12.5795V13.2614C27.8196 13.2557 27.7675 13.2472 27.6861 13.2358C27.6065 13.2225 27.5223 13.2159 27.4332 13.2159C27.2211 13.2159 27.0317 13.2604 26.8651 13.3494C26.7003 13.4366 26.5696 13.5578 26.473 13.7131C26.3783 13.8665 26.331 14.0417 26.331 14.2386V17H25.6605Z" fill="#4C9B67"/>
<path d="M35.8303 12.6364V13.2045H33.478V12.6364H35.8303ZM34.1825 17V12.0341C34.1825 11.7841 34.2412 11.5758 34.3587 11.4091C34.4761 11.2424 34.6286 11.1174 34.8161 11.0341C35.0036 10.9508 35.2015 10.9091 35.4098 10.9091C35.5746 10.9091 35.709 10.9223 35.8132 10.9489C35.9174 10.9754 35.995 11 36.0462 11.0227L35.853 11.6023C35.8189 11.5909 35.7715 11.5767 35.7109 11.5597C35.6522 11.5426 35.5746 11.5341 35.478 11.5341C35.2564 11.5341 35.0964 11.59 34.9979 11.7017C34.9013 11.8134 34.853 11.9773 34.853 12.1932V17H34.1825ZM37.929 17.1023C37.6525 17.1023 37.4015 17.0502 37.1761 16.946C36.9508 16.84 36.7718 16.6875 36.6392 16.4886C36.5066 16.2879 36.4403 16.0455 36.4403 15.7614C36.4403 15.5114 36.4896 15.3087 36.5881 15.1534C36.6866 14.9962 36.8182 14.8731 36.983 14.7841C37.1477 14.6951 37.3295 14.6288 37.5284 14.5852C37.7292 14.5398 37.9309 14.5038 38.1335 14.4773C38.3987 14.4432 38.6136 14.4176 38.7784 14.4006C38.9451 14.3816 39.0663 14.3504 39.142 14.3068C39.2197 14.2633 39.2585 14.1875 39.2585 14.0795V14.0568C39.2585 13.7765 39.1818 13.5587 39.0284 13.4034C38.8769 13.2481 38.6468 13.1705 38.3381 13.1705C38.018 13.1705 37.767 13.2405 37.5852 13.3807C37.4034 13.5208 37.2756 13.6705 37.2017 13.8295L36.5653 13.6023C36.679 13.3371 36.8305 13.1307 37.0199 12.983C37.2112 12.8333 37.4195 12.7292 37.6449 12.6705C37.8722 12.6098 38.0956 12.5795 38.3153 12.5795C38.4555 12.5795 38.6165 12.5966 38.7983 12.6307C38.982 12.6629 39.1591 12.7301 39.3295 12.8324C39.5019 12.9347 39.6449 13.089 39.7585 13.2955C39.8722 13.5019 39.929 13.7784 39.929 14.125V17H39.2585V16.4091H39.2244C39.179 16.5038 39.1032 16.6051 38.9972 16.7131C38.8911 16.821 38.75 16.9129 38.5739 16.9886C38.3977 17.0644 38.1828 17.1023 37.929 17.1023ZM38.0312 16.5C38.2964 16.5 38.5199 16.4479 38.7017 16.3438C38.8854 16.2396 39.0237 16.1051 39.1165 15.9403C39.2112 15.7756 39.2585 15.6023 39.2585 15.4205V14.8068C39.2301 14.8409 39.1676 14.8722 39.071 14.9006C38.9763 14.9271 38.8665 14.9508 38.7415 14.9716C38.6184 14.9905 38.4981 15.0076 38.3807 15.0227C38.2652 15.036 38.1714 15.0473 38.0994 15.0568C37.9252 15.0795 37.7623 15.1165 37.6108 15.1676C37.4612 15.2169 37.34 15.2917 37.2472 15.392C37.1563 15.4905 37.1108 15.625 37.1108 15.7955C37.1108 16.0284 37.197 16.2045 37.3693 16.3239C37.5436 16.4413 37.7642 16.5 38.0312 16.5ZM41.8232 11.1818V17H41.1527V11.1818H41.8232ZM46.142 13.6136L45.5398 13.7841C45.5019 13.6837 45.446 13.5862 45.3722 13.4915C45.3002 13.3949 45.2017 13.3153 45.0767 13.2528C44.9517 13.1903 44.7917 13.1591 44.5966 13.1591C44.3295 13.1591 44.107 13.2206 43.929 13.3438C43.7528 13.465 43.6648 13.6193 43.6648 13.8068C43.6648 13.9735 43.7254 14.1051 43.8466 14.2017C43.9678 14.2983 44.1572 14.3788 44.4148 14.4432L45.0625 14.6023C45.4527 14.697 45.7434 14.8419 45.9347 15.0369C46.1259 15.2301 46.2216 15.4792 46.2216 15.7841C46.2216 16.0341 46.1496 16.2576 46.0057 16.4545C45.8636 16.6515 45.6648 16.8068 45.4091 16.9205C45.1534 17.0341 44.8561 17.0909 44.517 17.0909C44.072 17.0909 43.7036 16.9943 43.4119 16.8011C43.1203 16.608 42.9356 16.3258 42.858 15.9545L43.4943 15.7955C43.5549 16.0303 43.6695 16.2064 43.8381 16.3239C44.0085 16.4413 44.2311 16.5 44.5057 16.5C44.8182 16.5 45.0663 16.4337 45.25 16.3011C45.4356 16.1667 45.5284 16.0057 45.5284 15.8182C45.5284 15.6667 45.4754 15.5398 45.3693 15.4375C45.2633 15.3333 45.1004 15.2557 44.8807 15.2045L44.1534 15.0341C43.7538 14.9394 43.4602 14.7926 43.2727 14.5938C43.0871 14.393 42.9943 14.142 42.9943 13.8409C42.9943 13.5947 43.0634 13.3769 43.2017 13.1875C43.3419 12.9981 43.5322 12.8494 43.7727 12.7415C44.0152 12.6335 44.2898 12.5795 44.5966 12.5795C45.0284 12.5795 45.3674 12.6742 45.6136 12.8636C45.8617 13.053 46.0379 13.303 46.142 13.6136ZM49.0604 17.0909C48.6399 17.0909 48.2772 16.9981 47.9723 16.8125C47.6693 16.625 47.4354 16.3636 47.2706 16.0284C47.1077 15.6913 47.0263 15.2992 47.0263 14.8523C47.0263 14.4053 47.1077 14.0114 47.2706 13.6705C47.4354 13.3277 47.6645 13.0606 47.9581 12.8693C48.2536 12.6761 48.5982 12.5795 48.9922 12.5795C49.2195 12.5795 49.4439 12.6174 49.6655 12.6932C49.8871 12.7689 50.0888 12.892 50.2706 13.0625C50.4524 13.2311 50.5973 13.4545 50.7053 13.733C50.8132 14.0114 50.8672 14.3542 50.8672 14.7614V15.0455H47.5036V14.4659H50.1854C50.1854 14.2197 50.1361 14 50.0376 13.8068C49.9411 13.6136 49.8028 13.4612 49.6229 13.3494C49.4448 13.2377 49.2346 13.1818 48.9922 13.1818C48.7251 13.1818 48.4941 13.2481 48.299 13.3807C48.1058 13.5114 47.9571 13.6818 47.853 13.892C47.7488 14.1023 47.6967 14.3277 47.6967 14.5682V14.9545C47.6967 15.2841 47.7536 15.5634 47.8672 15.7926C47.9827 16.0199 48.1428 16.1932 48.3473 16.3125C48.5518 16.4299 48.7895 16.4886 49.0604 16.4886C49.2365 16.4886 49.3956 16.464 49.5376 16.4148C49.6816 16.3636 49.8056 16.2879 49.9098 16.1875C50.014 16.0852 50.0945 15.9583 50.1513 15.8068L50.799 15.9886C50.7308 16.2083 50.6162 16.4015 50.4553 16.5682C50.2943 16.733 50.0954 16.8617 49.8587 16.9545C49.6219 17.0455 49.3558 17.0909 49.0604 17.0909Z" fill="#6268FA"/>
<path d="M50.2592 21.1818V21.6932C50.2592 21.8485 50.2308 22.0142 50.174 22.1903C50.1191 22.3646 50.0376 22.5341 49.9297 22.6989C49.8236 22.8617 49.6948 23.0038 49.5433 23.125L49.1797 22.8295C49.299 22.6591 49.4022 22.482 49.4893 22.2983C49.5784 22.1127 49.6229 21.9148 49.6229 21.7045V21.1818H50.2592ZM51.7138 21.1818V21.6932C51.7138 21.8485 51.6854 22.0142 51.6286 22.1903C51.5736 22.3646 51.4922 22.5341 51.3842 22.6989C51.2782 22.8617 51.1494 23.0038 50.9979 23.125L50.6342 22.8295C50.7536 22.6591 50.8568 22.482 50.9439 22.2983C51.0329 22.1127 51.0774 21.9148 51.0774 21.7045V21.1818H51.7138ZM53.9879 27.0909C53.594 27.0909 53.2483 26.9972 52.951 26.8097C52.6555 26.6222 52.4245 26.3598 52.2578 26.0227C52.093 25.6856 52.0107 25.2917 52.0107 24.8409C52.0107 24.3864 52.093 23.9896 52.2578 23.6506C52.4245 23.3116 52.6555 23.0483 52.951 22.8608C53.2483 22.6733 53.594 22.5795 53.9879 22.5795C54.3819 22.5795 54.7266 22.6733 55.022 22.8608C55.3194 23.0483 55.5504 23.3116 55.7152 23.6506C55.8819 23.9896 55.9652 24.3864 55.9652 24.8409C55.9652 25.2917 55.8819 25.6856 55.7152 26.0227C55.5504 26.3598 55.3194 26.6222 55.022 26.8097C54.7266 26.9972 54.3819 27.0909 53.9879 27.0909ZM53.9879 26.4886C54.2872 26.4886 54.5334 26.4119 54.7266 26.2585C54.9197 26.1051 55.0627 25.9034 55.1555 25.6534C55.2483 25.4034 55.2947 25.1326 55.2947 24.8409C55.2947 24.5492 55.2483 24.2775 55.1555 24.0256C55.0627 23.7737 54.9197 23.5701 54.7266 23.4148C54.5334 23.2595 54.2872 23.1818 53.9879 23.1818C53.6887 23.1818 53.4425 23.2595 53.2493 23.4148C53.0561 23.5701 52.9131 23.7737 52.8203 24.0256C52.7275 24.2775 52.6811 24.5492 52.6811 24.8409C52.6811 25.1326 52.7275 25.4034 52.8203 25.6534C52.9131 25.9034 53.0561 26.1051 53.2493 26.2585C53.4425 26.4119 53.6887 26.4886 53.9879 26.4886ZM57.6136 25.4091L57.6023 24.5795H57.7386L59.6477 22.6364H60.4773L58.4432 24.6932H58.3864L57.6136 25.4091ZM56.9886 27V21.1818H57.6591V27H56.9886ZM59.7614 27L58.0568 24.8409L58.5341 24.375L60.6136 27H59.7614ZM62.2266 21.1818L62.1697 25.3636H61.5107L61.4538 21.1818H62.2266ZM61.8402 27.0455C61.7 27.0455 61.5798 26.9953 61.4794 26.8949C61.379 26.7945 61.3288 26.6742 61.3288 26.5341C61.3288 26.3939 61.379 26.2737 61.4794 26.1733C61.5798 26.0729 61.7 26.0227 61.8402 26.0227C61.9804 26.0227 62.1006 26.0729 62.201 26.1733C62.3014 26.2737 62.3516 26.3939 62.3516 26.5341C62.3516 26.6269 62.3279 26.7121 62.2805 26.7898C62.2351 26.8674 62.1735 26.9299 62.0959 26.9773C62.0201 27.0227 61.9349 27.0455 61.8402 27.0455ZM64.1577 21.1818V21.6932C64.1577 21.8485 64.1293 22.0142 64.0724 22.1903C64.0175 22.3646 63.9361 22.5341 63.8281 22.6989C63.7221 22.8617 63.5933 23.0038 63.4418 23.125L63.0781 22.8295C63.1974 22.6591 63.3007 22.482 63.3878 22.2983C63.4768 22.1127 63.5213 21.9148 63.5213 21.7045V21.1818H64.1577ZM65.6122 21.1818V21.6932C65.6122 21.8485 65.5838 22.0142 65.527 22.1903C65.4721 22.3646 65.3906 22.5341 65.2827 22.6989C65.1766 22.8617 65.0478 23.0038 64.8963 23.125L64.5327 22.8295C64.652 22.6591 64.7552 22.482 64.8423 22.2983C64.9313 22.1127 64.9759 21.9148 64.9759 21.7045V21.1818H65.6122Z" fill="#FF8E26"/>
</svg>
