<svg width="35" height="34" viewBox="0 0 35 34" fill="none" xmlns="http://www.w3.org/2000/svg">
<path d="M9.4039 3.74447L1.81969 7.48894L1.81172 8.09961L1.8064 8.71304H17.0014H32.1964L32.1911 8.09961L32.1831 7.48894L24.5909 3.7417C20.4176 1.6821 16.9987 -0.00277138 16.9934 3.8147e-06C16.9908 3.8147e-06 13.5746 1.68488 9.4039 3.74447Z" fill="#797C8B"/>
<path d="M4.74179 9.30427C4.73382 9.32092 4.73117 9.77614 4.73382 10.3091L4.74179 11.2806H17.0014H29.261V10.2813V9.28206L17.0067 9.27374C7.1884 9.26818 4.74976 9.27374 4.74179 9.30427Z" fill="#0097A7"/>
<path d="M5.86018 11.9384C5.85221 11.9884 5.83361 12.6546 5.81767 13.4179C5.80174 14.1812 5.77783 15.2666 5.76454 15.8328C5.75126 16.3963 5.72735 17.3706 5.71142 17.9979C5.69548 18.6224 5.67157 19.63 5.65829 20.2323C5.645 20.8347 5.6211 21.8395 5.60516 22.4668C5.58922 23.0914 5.56531 24.0656 5.55203 24.6319C5.53875 25.1954 5.51749 26.0558 5.50952 26.5388L5.49093 27.4215H7.27873H9.06388L9.04794 26.9552C9.032 26.5888 8.63353 12.0217 8.63353 11.8857C8.63353 11.8579 8.36788 11.8496 7.25217 11.8496H5.87346L5.86018 11.9384Z" fill="#CCB975"/>
<path d="M12.342 12.1327C12.334 12.291 12.3154 12.9877 12.2995 13.6816C12.2835 14.3755 12.2596 15.4192 12.2463 15.9993C12.233 16.5795 12.2091 17.5621 12.1932 18.1839C12.1799 18.8084 12.1534 19.8188 12.1401 20.4322C12.0072 25.8976 11.9807 27.044 11.9807 27.2189V27.4215H13.7605H15.5403V27.3299C15.5403 27.255 15.4394 23.5188 15.3278 19.5107C15.3119 18.9694 15.288 18.1006 15.2747 17.5815C15.2588 17.0625 15.2242 15.7495 15.195 14.667C15.1684 13.5817 15.1366 12.5047 15.1259 12.2715L15.11 11.8496H13.734H12.3579L12.342 12.1327Z" fill="#D89150"/>
<path d="M18.8237 12.2993C18.8078 12.6907 18.4625 27.1384 18.4625 27.3438V27.4215H20.2423H22.0221V27.316C22.0248 27.0773 21.621 12.3409 21.6077 12.105L21.5918 11.8496H20.2157H18.8397L18.8237 12.2993Z" fill="#90CAF9"/>
<path d="M25.3055 12.4381C25.2949 12.7628 25.2763 13.5234 25.263 14.1257C25.2471 14.7281 25.2258 15.7246 25.2099 16.338C25.1966 16.9542 25.1727 17.9562 25.1567 18.5669C25.1435 19.1776 25.1196 20.1768 25.1036 20.7875C25.0903 21.3982 25.0664 22.3974 25.0505 23.0081C25.0372 23.6187 25.0133 24.6208 24.9974 25.2342C24.9841 25.8504 24.9655 26.5943 24.9549 26.8858L24.9389 27.4215H26.7214H28.5039V27.2744C28.5066 26.9829 28.1028 12.0273 28.0895 11.9384L28.0762 11.8496H26.7002H25.3241L25.3055 12.4381Z" fill="#E57373"/>
<path d="M3.24089 28.9898V30.0057L2.42535 30.0029L1.60716 30.0002L1.59919 30.9994L1.59388 32.0015H0.79694H0V33.0007V34H17.0014H34.0028V33.0007V32.0015H33.2058H32.4089V31.0022V30.0029H31.5854H30.7619V28.9898V27.9766H17.0014H3.24089V28.9898Z" fill="#797C8B"/>
</svg>
