<svg width="91" height="95" viewBox="0 0 91 95" fill="none" xmlns="http://www.w3.org/2000/svg">
<path d="M84.5 42.9452H6.5C2.91015 42.9452 0 45.8584 0 49.4521V88.4932C0 92.0868 2.91015 95 6.5 95H84.5C88.0899 95 91 92.0868 91 88.4932V49.4521C91 45.8584 88.0899 42.9452 84.5 42.9452Z" fill="#FFD66C"/>
<path d="M43.8133 18.919C44.8497 18.2891 46.1503 18.2891 47.1867 18.919L86.0373 42.5318C88.2089 43.8515 88.0965 47.043 85.8371 48.206L46.9864 68.2074C46.0535 68.6876 44.9465 68.6876 44.0136 68.2074L5.16293 48.206C2.90385 47.043 2.79119 43.8515 4.96263 42.5318L43.8133 18.919Z" fill="#FFEBA5"/>
<path fill-rule="evenodd" clip-rule="evenodd" d="M80.3192 51.0466L46.9864 68.2074C46.0535 68.6876 44.9465 68.6876 44.0136 68.2074L8.12084 49.7288L7.95847 48.4049C7.87092 47.6916 8.37772 47.0422 9.09032 46.9547L77.4768 38.549C78.1892 38.4614 78.8379 38.9687 78.9256 39.6821L80.3192 51.0466Z" fill="#E39595"/>
<path d="M45.9447 85.8904C42.9879 85.8904 40.3554 85.4811 38.0475 84.6632C35.7395 83.8544 33.7884 82.6643 32.194 81.0936C30.5998 79.5326 29.3855 77.6235 28.5513 75.3662C27.7171 73.109 27.3 70.5414 27.3 67.6634C27.3 64.823 27.7171 62.246 28.5513 59.9323C29.3948 57.6187 30.6229 55.6342 32.2358 53.9789C33.8486 52.3142 35.8183 51.0351 38.1448 50.1416C40.4806 49.2481 43.1408 48.8014 46.1254 48.8014C48.8876 48.8014 51.3532 49.2105 53.5222 50.0288C55.7004 50.847 57.545 52.0132 59.0558 53.5274C60.5759 55.0323 61.7299 56.8239 62.5178 58.9025C63.3149 60.9716 63.7088 63.2617 63.6996 65.7732C63.7088 67.5034 63.5606 69.093 63.2547 70.5414C62.9488 71.9898 62.4668 73.2548 61.8087 74.3362C61.1599 75.4085 60.3071 76.2596 59.2504 76.8895C58.1938 77.5102 56.9147 77.8629 55.4131 77.9475C54.3379 78.0327 53.4665 77.9527 52.7992 77.708C52.1318 77.4634 51.622 77.1016 51.2698 76.6214C50.9269 76.1327 50.7044 75.5634 50.6024 74.9147H50.4356C50.2131 75.4788 49.7775 75.9915 49.1286 76.4522C48.4798 76.9038 47.6873 77.2565 46.7511 77.5102C45.8242 77.7549 44.8371 77.844 43.7897 77.7783C42.6959 77.7126 41.6578 77.4543 40.6752 77.0027C39.702 76.5511 38.8354 75.8972 38.0753 75.0415C37.3245 74.1859 36.7312 73.1279 36.2956 71.8675C35.8693 70.6071 35.6514 69.1496 35.6422 67.4942C35.6514 65.8578 35.8785 64.4326 36.3234 63.2194C36.7776 62.0061 37.3755 60.9857 38.117 60.158C38.8678 59.3304 39.702 58.6814 40.6196 58.2112C41.5373 57.7409 42.4596 57.44 43.3865 57.3083C44.4339 57.1484 45.4256 57.1484 46.3618 57.3083C47.298 57.4682 48.0859 57.7268 48.7254 58.0842C49.3743 58.4416 49.7775 58.8272 49.935 59.241H50.1297V57.661H54.4815V71.4302C54.4908 72.079 54.6345 72.582 54.9125 72.9398C55.1906 73.2971 55.566 73.476 56.0387 73.476C56.6783 73.476 57.2112 73.189 57.6376 72.6151C58.0733 72.0412 58.3977 71.1622 58.6109 69.9773C58.8333 68.7917 58.9445 67.2821 58.9445 65.4485C58.9445 63.6803 58.7128 62.1284 58.2494 60.7929C57.7952 59.4479 57.1557 58.3052 56.3307 57.3647C55.515 56.4148 54.565 55.6436 53.4804 55.0511C52.396 54.4586 51.2188 54.0259 49.9489 53.7531C48.6884 53.4804 47.3907 53.3441 46.0559 53.3441C43.7479 53.3441 41.732 53.7014 40.0079 54.4162C38.2838 55.1216 36.8471 56.1138 35.6977 57.393C34.5484 58.672 33.6864 60.1722 33.1117 61.8933C32.5463 63.605 32.2589 65.4719 32.2497 67.4942C32.2589 69.7228 32.5648 71.6983 33.1673 73.4194C33.7791 75.1307 34.6782 76.57 35.8646 77.736C37.051 78.9027 38.5156 79.7863 40.2581 80.3882C42.0007 80.9901 44.0029 81.2914 46.2645 81.2914C47.3305 81.2914 48.3732 81.2113 49.3928 81.0513C50.4124 80.901 51.3347 80.7129 52.1596 80.4871C52.9846 80.2711 53.6473 80.059 54.1478 79.8521L55.5243 83.9436C54.9403 84.2819 54.1478 84.5975 53.1468 84.889C52.155 85.1896 51.0335 85.4297 49.7821 85.608C48.5401 85.7961 47.2609 85.8904 45.9447 85.8904ZM45.3051 73.137C46.436 73.137 47.3351 72.9158 48.0024 72.4739C48.6791 72.0321 49.1611 71.3782 49.4484 70.5128C49.745 69.6383 49.8841 68.5614 49.8655 67.2821C49.8562 66.1538 49.7126 65.1993 49.4345 64.4185C49.1657 63.6285 48.6976 63.0313 48.0303 62.6269C47.3721 62.213 46.4545 62.0061 45.2773 62.0061C44.2485 62.0061 43.3726 62.2271 42.6496 62.6692C41.9359 63.1112 41.3889 63.732 41.009 64.5314C40.6382 65.3216 40.4481 66.2527 40.4389 67.3244C40.4481 68.3219 40.6058 69.2667 40.9116 70.1601C41.2175 71.0444 41.7227 71.764 42.4271 72.3191C43.1315 72.8643 44.0909 73.137 45.3051 73.137Z" fill="white"/>
</svg>
