<svg width="152" height="150" viewBox="0 0 152 150" fill="none" xmlns="http://www.w3.org/2000/svg">
<path d="M15.6905 121.063L31.3849 105.575C31.3849 105.575 36.0751 105.575 40.7654 110.257C45.4556 114.94 45.4556 119.622 45.4556 119.622L29.7613 135.29C38.6006 137.452 49.2439 134.57 55.7381 128.087C65.4795 118.362 56.8205 105.935 59.346 103.414C73.056 89.1865 84.748 76.7895 84.748 76.7895L65.9271 73.4737C65.3859 74.0139 60.9696 78.561 47.44 92.068C44.9145 94.5893 33.0084 85.4045 22.9063 95.3097C16.5925 101.793 13.5258 112.238 15.6905 121.063Z" fill="#6E8E9D"/>
<path d="M31.3849 105.575V105.075H31.1797L31.0336 105.219L15.981 120.074C14.2591 111.617 17.2704 101.817 23.2605 95.6626C28.1536 90.8677 33.4661 90.6847 37.9339 91.4134C39.4207 91.6559 40.7792 91.9916 42.0132 92.2966C42.6617 92.4569 43.2759 92.6087 43.8562 92.734C44.6774 92.9113 45.4358 93.0353 46.0831 93.0248C46.7293 93.0144 47.3458 92.8686 47.7932 92.4218C54.5587 85.6677 59.0458 81.1535 61.9096 78.26C63.8224 76.3273 65.0078 75.1209 65.6653 74.4517C65.8496 74.2642 65.9924 74.1188 66.0981 74.0115L83.7473 77.1209C83.4062 77.4819 82.9338 77.9817 82.3437 78.6051C81.0336 79.9894 79.1439 81.9834 76.8259 84.4219C72.1903 89.2983 65.8419 95.9523 58.989 103.064C58.5469 103.508 58.3919 104.127 58.3659 104.779C58.3396 105.437 58.4414 106.212 58.5948 107.055C58.7063 107.667 58.8445 108.316 58.9906 109.001C59.2569 110.251 59.5492 111.622 59.7526 113.116C60.3736 117.677 60.0988 123.027 55.3849 127.733C49.2298 133.878 39.2498 136.731 30.7585 135.001L45.8089 119.976L45.9556 119.83V119.622H45.4556C45.9556 119.622 45.9556 119.622 45.9556 119.622V119.621L45.9556 119.62L45.9556 119.615L45.9554 119.601C45.9553 119.589 45.9549 119.573 45.9542 119.552C45.9529 119.511 45.9503 119.453 45.9454 119.379C45.9354 119.23 45.9159 119.016 45.8773 118.747C45.8003 118.208 45.6473 117.447 45.3436 116.537C44.7357 114.717 43.5249 112.306 41.1186 109.904C38.7124 107.501 36.2978 106.293 34.4741 105.686C33.5632 105.383 32.8008 105.23 32.2616 105.153C31.9919 105.115 31.7779 105.095 31.6288 105.085C31.5542 105.08 31.4958 105.078 31.4548 105.076C31.4342 105.076 31.4181 105.075 31.4064 105.075L31.3922 105.075L31.3877 105.075L31.386 105.075L31.3854 105.075C31.3851 105.075 31.3849 105.075 31.3849 105.575Z" stroke="black" stroke-opacity="0.15"/>
<path d="M134.309 30.9369L118.615 46.425C118.615 46.425 113.925 46.425 109.235 41.7426C104.544 37.0601 104.544 32.3777 104.544 32.3777L120.239 16.7095C111.399 14.5484 100.756 17.4299 94.2619 23.9133C84.5205 33.6383 93.1795 46.0648 90.654 48.5861C76.944 62.8135 66.2879 72.9334 65.9271 73.4737L84.7479 76.7895C84.7479 76.7895 89.0304 73.439 102.56 59.932C105.086 57.4107 116.992 66.5955 127.094 56.6903C133.408 50.207 136.474 39.7615 134.309 30.9369Z" fill="#8AA1AC"/>
<path d="M84.6409 76.2329C84.6304 76.2415 84.6204 76.2497 84.6108 76.2576L66.9279 73.1423C67.2757 72.7918 67.7588 72.3129 68.366 71.7137C68.7923 71.2932 69.2794 70.8137 69.8229 70.2788C70.8889 69.2296 72.1715 67.9672 73.6362 66.518C78.0601 62.1411 84.1535 56.0524 91.011 48.9362C91.4531 48.4922 91.6081 47.8734 91.6341 47.2209C91.6604 46.5631 91.5586 45.7878 91.4052 44.9453C91.2937 44.3332 91.1555 43.6845 91.0094 42.9991C90.7431 41.7493 90.4508 40.3776 90.2474 38.8836C89.6264 34.3226 89.9012 28.9732 94.6151 24.2671C100.77 18.1223 110.75 15.269 119.242 16.9985L104.191 32.0238L104.044 32.1703V32.3777H104.544C104.044 32.3777 104.044 32.3779 104.044 32.3782V32.3789L104.044 32.3805L104.044 32.385L104.045 32.3992C104.045 32.4109 104.045 32.4271 104.046 32.4475C104.047 32.4885 104.05 32.5468 104.055 32.6213C104.065 32.7703 104.084 32.984 104.123 33.2533C104.2 33.7917 104.353 34.553 104.656 35.4625C105.264 37.2834 106.475 39.6941 108.881 42.0964C111.288 44.4986 113.702 45.7072 115.526 46.3141C116.437 46.6172 117.199 46.7699 117.738 46.8468C118.008 46.8853 118.222 46.9048 118.371 46.9147C118.446 46.9197 118.504 46.9223 118.545 46.9236C118.555 46.9239 118.564 46.9241 118.571 46.9243C118.58 46.9245 118.587 46.9247 118.594 46.9248L118.608 46.925L118.612 46.925L118.614 46.925L118.615 46.925C118.615 46.925 118.615 46.925 118.615 46.425V46.925H118.82L118.966 46.7809L134.019 31.9261C135.741 40.3835 132.73 50.1834 126.74 56.3374C121.846 61.1323 116.534 61.3153 112.066 60.5866C110.579 60.3441 109.221 60.0084 107.987 59.7034C107.338 59.5431 106.724 59.3913 106.144 59.266C105.323 59.0887 104.564 58.9647 103.917 58.9752C103.271 58.9856 102.654 59.1314 102.207 59.5782C95.4458 66.3279 90.9981 70.537 88.2429 73.0569C86.8654 74.3168 85.9114 75.1541 85.3032 75.6753C84.9991 75.9358 84.7815 76.1172 84.6409 76.2329Z" stroke="white" stroke-opacity="0.2"/>
<path d="M37.6481 41.3743L37.7996 41.2199L39.4295 39.5596L39.5834 39.4027L39.803 39.4101C43.5866 39.5368 45.4546 39.5292 46.4175 39.4003C46.9001 39.3357 47.0748 39.2491 47.1442 39.1963C47.1983 39.1552 47.2251 39.1143 47.3115 38.9072C47.312 38.9061 47.3124 38.905 47.3129 38.904L49.3748 33.7561L49.4701 33.4524L49.3662 33.1876L49.366 33.1872C49.3654 33.1857 49.3647 33.1839 49.364 33.1818C49.3468 33.1355 49.276 32.9438 48.6504 32.2201C47.9962 31.4633 46.7626 30.1549 44.4114 27.8559L44.261 27.7088V27.4984V25.0766V24.8677L44.4096 24.7209C47.1346 22.0287 48.4314 20.6484 49.0141 19.8499C49.3062 19.4497 49.372 19.2561 49.3852 19.1613C49.3954 19.0875 49.3842 19.0383 49.303 18.8323L47.2405 13.6066C47.1586 13.3992 47.1333 13.3587 47.081 13.3174C47.0143 13.2646 46.8435 13.1752 46.3668 13.1047C45.415 12.9641 43.5614 12.9371 39.8057 13.0424L39.5818 13.0486L39.4281 12.8857L37.7982 11.1585L37.6486 11L37.663 10.7824C37.8275 8.29416 37.7461 5.79531 37.42 3.32404L37.3142 3.07795L32.1062 0.743334L32.0987 0.739954L32.0987 0.739892C31.8852 0.639903 31.8419 0.630777 31.784 0.637171C31.7093 0.645419 31.5325 0.699124 31.1499 0.998772C30.3875 1.59586 29.0779 2.94473 26.5261 5.79469L26.3739 5.96462L26.1458 5.9611L23.8604 5.92581L23.6446 5.92248L23.499 5.7631C20.8723 2.88764 19.5303 1.51442 18.7533 0.894528C18.362 0.582407 18.1785 0.515938 18.0962 0.502903C18.0381 0.493708 17.9997 0.499445 17.792 0.585515C17.792 0.585526 17.792 0.585536 17.792 0.585546L12.7848 2.66183L12.7847 2.66186C12.5784 2.74737 12.5425 2.772 12.5039 2.82441C12.4511 2.89595 12.3648 3.07782 12.3029 3.57834C12.1796 4.57401 12.1833 6.50809 12.3359 10.4207L12.3443 10.636L12.1937 10.7899L10.5765 12.4428L10.4225 12.6002L10.2024 12.5928C6.42078 12.4661 4.5537 12.4747 3.59182 12.604C3.10969 12.6688 2.93556 12.7554 2.86665 12.8079C2.81336 12.8485 2.78701 12.8887 2.70132 13.0954L0.632994 18.2519L0.531444 18.5609L0.63476 18.8224L37.6481 41.3743ZM37.6481 41.3743L37.6569 41.5904M37.6481 41.3743L37.6569 41.5904M37.6569 41.5904C37.8158 45.5051 37.823 47.4395 37.7011 48.4345C37.6398 48.9348 37.5536 49.1151 37.5015 49.1852C37.4636 49.2364 37.4282 49.2607 37.2201 49.3454L37.2171 49.3466L32.2207 51.4174L32.2207 51.4174C32.019 51.501 31.9824 51.5062 31.925 51.497C31.8418 51.4836 31.6565 51.4161 31.2635 51.104C30.4833 50.4843 29.1344 49.111 26.5046 46.2324L26.3585 46.0725L26.142 46.0697L23.8566 46.04L23.6293 46.037L23.4777 46.2063C20.9334 49.0456 19.6277 50.3941 18.8674 50.997C18.4857 51.2997 18.3065 51.3597 18.2277 51.3705C18.1684 51.3786 18.1262 51.3708 17.9191 51.2821L12.6811 48.9346L12.5748 48.6855C12.2527 46.2173 12.1736 43.722 12.3388 41.2375L12.3532 41.0206L12.2045 40.8621L10.5746 39.1256L10.421 38.962L10.1967 38.968C6.4412 39.0686 4.58922 39.045 3.63754 38.9064C3.16094 38.837 2.99135 38.7483 2.92519 38.6959C2.87287 38.6544 2.84689 38.6129 2.76333 38.4007L2.76329 38.4006L0.702441 33.1689L0.702179 33.1682C0.62037 32.9614 0.608956 32.9118 0.619068 32.8377C0.631986 32.7429 0.697397 32.5494 0.989015 32.1493C1.57094 31.3508 2.86713 29.9705 5.59225 27.2783L5.74086 27.1315V26.9226V24.5083V24.2977M37.6569 41.5904L5.74086 24.2977M5.74086 24.2977L5.59022 24.1506M5.74086 24.2977L5.59022 24.1506M5.59022 24.1506C3.23359 21.8488 2.00006 20.5409 1.34734 19.7859M5.59022 24.1506L1.34734 19.7859M1.34734 19.7859C0.726361 19.0675 0.654862 18.8761 0.637052 18.8284M1.34734 19.7859L0.637052 18.8284M0.637052 18.8284C0.636383 18.8266 0.635794 18.8251 0.635251 18.8236L0.637052 18.8284ZM0.238391 33.3517L0.237233 33.3522L0.238391 33.3517ZM16.2139 29.6287L16.2139 29.6288L16.2159 29.634C17.1466 32.0447 18.9722 33.9831 21.2972 35.0209C23.6227 36.059 26.2555 36.1101 28.6178 35.1627L28.6178 35.1627L28.6233 35.1605C30.3553 34.4422 31.8399 33.2161 32.8922 31.6382C33.9444 30.0603 34.518 28.2002 34.5424 26.2913C34.5668 24.3823 34.041 22.5075 33.0297 20.902C32.0183 19.2964 30.5657 18.031 28.8528 17.2664C27.1398 16.5017 25.2438 16.2727 23.4034 16.6086C21.563 16.9446 19.8621 17.8302 18.5135 19.1523C17.165 20.4742 16.2286 22.1737 15.82 24.0367C15.4114 25.8996 15.5483 27.8448 16.2139 29.6287Z" fill="#99B8C4" stroke="#6C95A5"/>
<ellipse cx="126" cy="124" rx="26" ry="26" transform="rotate(-180 126 124)" fill="#2196F3"/>
<path fill-rule="evenodd" clip-rule="evenodd" d="M126 109V133.872L135.246 139L133.481 128.139L141 120.427L130.642 118.852L126 109Z" fill="#FBDA66"/>
<path fill-rule="evenodd" clip-rule="evenodd" d="M118.519 128.139L111 120.427L121.358 118.852L126 109V133.872L116.754 139L118.519 128.139Z" fill="#FFE791"/>
</svg>
