<svg width="36" height="43" viewBox="0 0 36 43" fill="none" xmlns="http://www.w3.org/2000/svg">
<path d="M22.0786 24.4967L16.2429 25.0125L16.5139 39.5023L19.7142 37.0432L23.3151 38.9037L22.0786 24.4967Z" fill="#E57373"/>
<path d="M18.6152 25.372L13.9649 23.3347L9.01185 34.2339L12.3371 33.7311L14.4307 36.6101L18.6152 25.372Z" fill="#0097A7"/>
<path d="M12.351 20.6335L16.2429 25.0125L6.10474 35.3685L5.46352 31.3838L1.56734 30.2669L12.351 20.6335Z" fill="#90CAF9"/>
<path d="M30.884 15.871L30.0265 17.0368C29.7614 17.4337 29.6388 17.923 29.6957 18.4118L29.8787 19.8474C30.0108 20.6889 29.5301 21.5381 28.6891 21.8497L27.3409 22.3544C26.8771 22.5289 26.519 22.8888 26.3158 23.3102L25.7248 24.6177C25.3429 25.3986 24.5146 25.8587 23.6599 25.6627L22.2294 25.3815C21.7587 25.3022 21.2576 25.3901 20.8434 25.6201L19.6383 26.3968C18.9153 26.8629 17.9494 26.7662 17.3599 26.1735L16.3299 25.1547C15.97 24.7966 15.5363 24.6243 15.0287 24.6379L13.5617 24.6292C12.7075 24.6127 11.9385 24.0204 11.7321 23.1853L11.4128 21.7315C11.3126 21.2613 11.0083 20.8535 10.6115 20.5883L9.4088 19.8237C8.66485 19.349 8.37788 18.446 8.66678 17.6282L9.14616 16.2405C9.3307 15.7758 9.30477 15.2992 9.08702 14.8541L8.46476 13.531C8.0976 12.7396 8.31817 11.823 9.03486 11.2827L10.2149 10.3884C10.6104 10.1151 10.8569 9.67498 10.9052 9.19205L11.1245 7.73689C11.2462 6.88858 11.9378 6.23074 12.798 6.14196L14.2399 6.03317C14.7165 6.00723 15.1739 5.7585 15.4888 5.41728L16.4392 4.28838C17.0133 3.65559 17.9537 3.45519 18.7222 3.86801L20.0361 4.53327C20.4452 4.76747 20.9591 4.8281 21.4539 4.66594L22.8394 4.24779C23.6559 3.99818 24.5543 4.35497 24.9647 5.12769L25.6859 6.38244C25.9469 6.8089 26.3191 7.13604 26.7774 7.24633L28.1587 7.65144C29.0011 7.87838 29.5478 8.66933 29.4881 9.54225L29.3864 10.9724C29.338 11.4553 29.5312 11.9624 29.8601 12.3082L30.8222 13.4076C31.3256 14.2172 31.4085 15.1827 30.884 15.871Z" fill="#FFC54D"/>
<path d="M16.3182 22.9264C20.664 24.6522 25.5861 22.5283 27.312 18.1825C29.0379 13.8367 26.914 8.91454 22.5682 7.18865C18.2223 5.46277 13.3002 7.58666 11.5743 11.9325C9.84843 16.2784 11.9723 21.2005 16.3182 22.9264Z" fill="#E8B04B"/>
</svg>
