<svg width="113" height="99" viewBox="0 0 113 99" fill="none" xmlns="http://www.w3.org/2000/svg">
<path d="M0.5 4C0.5 2.067 2.067 0.5 4 0.5H109C110.933 0.5 112.5 2.067 112.5 4V67.1098H0.5V4Z" fill="#C0F0FF" stroke="#727272"/>
<path d="M113 76.4878C113 78.697 111.209 80.4878 109 80.4878L4.00001 80.4878C1.79087 80.4878 7.7864e-06 78.6969 7.98007e-06 76.4878L8.7584e-06 67.6098L113 67.6098L113 76.4878Z" fill="#C6C6C6"/>
<path d="M46.1224 80.4878H66.8775L71.0286 96.5854H41.9714L46.1224 80.4878Z" fill="#C6C6C6"/>
<path d="M46.1225 80.4878H66.8776L69.0107 88.5366L44.7964 85.7195L46.1225 80.4878Z" fill="#626262"/>
<rect x="33.0928" y="96.5854" width="46.8143" height="2.41463" fill="#626262"/>
<path d="M69.6432 20.0591H103.724V56.6269C103.724 57.1791 103.276 57.6269 102.724 57.6269H70.6432C70.0909 57.6269 69.6432 57.1792 69.6432 56.6269V20.0591Z" fill="#FFF59D"/>
<rect x="74.7874" y="22.65" width="23.7922" height="0.896844" fill="#8F8F8F"/>
<rect x="74.7874" y="28.031" width="23.7922" height="0.896843" fill="#8F8F8F"/>
<rect x="74.7874" y="33.4121" width="11.8961" height="0.896843" fill="#8F8F8F"/>
<rect x="74.7874" y="30.7216" width="23.7922" height="0.896844" fill="#8F8F8F"/>
<rect x="74.7874" y="25.3405" width="23.7922" height="0.896843" fill="#8F8F8F"/>
<rect x="98.5796" y="52.4451" width="23.7922" height="0.896843" transform="rotate(-180 98.5796 52.4451)" fill="#8F8F8F"/>
<rect x="98.5796" y="47.064" width="23.7922" height="0.896843" transform="rotate(-180 98.5796 47.064)" fill="#8F8F8F"/>
<rect x="98.5796" y="41.683" width="11.8961" height="0.896843" transform="rotate(-180 98.5796 41.683)" fill="#8F8F8F"/>
<rect x="98.5796" y="44.3735" width="23.7922" height="0.896843" transform="rotate(-180 98.5796 44.3735)" fill="#8F8F8F"/>
<rect x="98.5796" y="49.7546" width="23.7922" height="0.896843" transform="rotate(-180 98.5796 49.7546)" fill="#8F8F8F"/>
<rect x="70.6432" y="13.2864" width="32.0807" height="5.77264" fill="#F3B881" stroke="#666666" stroke-width="2"/>
<rect x="74.7874" y="16.1728" width="5.82948" height="1.28606" transform="rotate(-90 74.7874 16.1728)" fill="#8F8F8F"/>
<rect x="97.9366" y="16.1728" width="5.82948" height="1.28606" transform="rotate(-90 97.9366 16.1728)" fill="#8F8F8F"/>
<rect x="82.5038" y="16.1728" width="5.82948" height="1.28606" transform="rotate(-90 82.5038 16.1728)" fill="#8F8F8F"/>
<rect x="90.2202" y="16.1728" width="5.82948" height="1.28606" transform="rotate(-90 90.2202 16.1728)" fill="#8F8F8F"/>
<ellipse cx="21.4166" cy="18.4701" rx="11.0443" ry="11.0821" fill="#90CAF9"/>
<path fill-rule="evenodd" clip-rule="evenodd" d="M29.4124 10.8052L21.5739 18.3316L17.8273 7.99311C18.9581 7.60102 20.1722 7.38806 21.4358 7.38806C24.5715 7.38806 27.402 8.69933 29.4124 10.8052Z" fill="#E57373"/>
<path fill-rule="evenodd" clip-rule="evenodd" d="M29.4771 10.7065C31.0114 12.2913 32.0775 14.3349 32.4515 16.6127L21.5547 18.3316L29.4771 10.7065Z" fill="#D89150"/>
<path fill-rule="evenodd" clip-rule="evenodd" d="M32.4933 19.9437C32.5629 19.4408 32.5989 18.9271 32.5989 18.4049C32.5989 17.7662 32.5451 17.14 32.4417 16.5308L21.6928 18.2664L32.4933 19.9437Z" fill="#2196F3"/>
<rect x="14.345" y="50.6923" width="2.05848" height="8.30769" fill="#E57373"/>
<rect x="22.0643" y="44.3986" width="2.05848" height="14.6014" fill="#24BBCB"/>
<rect x="25.924" y="52.2028" width="2.05848" height="6.7972" fill="#2196F3"/>
<rect x="29.7836" y="48.4266" width="2.05848" height="10.5734" fill="#F3B881"/>
<rect x="18.2047" y="48.4266" width="2.05848" height="10.5734" fill="#90CAF9"/>
<path d="M11 50.1888L17.6901 46.4126L21.807 41L26.3099 44.5245L33 41" stroke="#BFBFBF"/>
</svg>
