<svg width="140" height="123" viewBox="0 0 140 123" fill="none" xmlns="http://www.w3.org/2000/svg">
<path d="M0 4C0 1.79086 1.79086 0 4 0H136C138.209 0 140 1.79086 140 4V84H0V4Z" fill="#252525"/>
<path d="M140 96C140 98.2091 138.209 100 136 100L4 100C1.79086 100 1.56562e-07 98.2091 3.49691e-07 96L1.39876e-06 84L140 84L140 96Z" fill="#C6C6C6"/>
<path d="M57.1429 100H82.8571L88 120H52L57.1429 100Z" fill="#C6C6C6"/>
<path d="M57.1429 100H82.8571L85.5 110L55.5 106.5L57.1429 100Z" fill="#626262"/>
<rect x="41" y="120" width="58" height="3" fill="#626262"/>
</svg>
