<svg width="173" height="148" viewBox="0 0 173 148" fill="none" xmlns="http://www.w3.org/2000/svg">
<path d="M0.5 4C0.5 2.067 2.067 0.5 4 0.5H109C110.933 0.5 112.5 2.067 112.5 4V67.1098H0.5V4Z" fill="#C0F0FF" stroke="#727272"/>
<path d="M113 76.4878C113 78.697 111.209 80.4878 109 80.4878L4.00001 80.4878C1.79087 80.4878 7.7864e-06 78.6969 7.98007e-06 76.4878L8.7584e-06 67.6098L113 67.6098L113 76.4878Z" fill="#C6C6C6"/>
<path d="M46.1224 80.4878H66.8775L71.0286 96.5854H41.9714L46.1224 80.4878Z" fill="#C6C6C6"/>
<path d="M46.1225 80.4878H66.8776L69.0107 88.5366L44.7964 85.7195L46.1225 80.4878Z" fill="#626262"/>
<rect x="33.0928" y="96.5854" width="46.8143" height="2.41463" fill="#626262"/>
<path d="M69.6432 20.0591H103.724V56.6269C103.724 57.1791 103.276 57.6269 102.724 57.6269H70.6432C70.0909 57.6269 69.6432 57.1791 69.6432 56.6269V20.0591Z" fill="#FFF59D"/>
<rect x="74.7874" y="22.65" width="23.7922" height="0.896844" fill="#8F8F8F"/>
<rect x="74.7874" y="28.031" width="23.7922" height="0.896843" fill="#8F8F8F"/>
<rect x="74.7874" y="33.4121" width="11.8961" height="0.896843" fill="#8F8F8F"/>
<rect x="74.7874" y="30.7216" width="23.7922" height="0.896844" fill="#8F8F8F"/>
<rect x="74.7874" y="25.3405" width="23.7922" height="0.896843" fill="#8F8F8F"/>
<rect x="98.5796" y="52.4451" width="23.7922" height="0.896843" transform="rotate(-180 98.5796 52.4451)" fill="#8F8F8F"/>
<rect x="98.5796" y="47.064" width="23.7922" height="0.896843" transform="rotate(-180 98.5796 47.064)" fill="#8F8F8F"/>
<rect x="98.5796" y="41.683" width="11.8961" height="0.896843" transform="rotate(-180 98.5796 41.683)" fill="#8F8F8F"/>
<rect x="98.5796" y="44.3735" width="23.7922" height="0.896843" transform="rotate(-180 98.5796 44.3735)" fill="#8F8F8F"/>
<rect x="98.5796" y="49.7546" width="23.7922" height="0.896843" transform="rotate(-180 98.5796 49.7546)" fill="#8F8F8F"/>
<rect x="70.6432" y="13.2864" width="32.0807" height="5.77264" fill="#F3B881" stroke="#666666" stroke-width="2"/>
<rect x="74.7874" y="16.1728" width="5.82948" height="1.28606" transform="rotate(-90 74.7874 16.1728)" fill="#8F8F8F"/>
<rect x="97.9366" y="16.1728" width="5.82948" height="1.28606" transform="rotate(-90 97.9366 16.1728)" fill="#8F8F8F"/>
<rect x="82.5038" y="16.1728" width="5.82948" height="1.28606" transform="rotate(-90 82.5038 16.1728)" fill="#8F8F8F"/>
<rect x="90.2202" y="16.1728" width="5.82948" height="1.28606" transform="rotate(-90 90.2202 16.1728)" fill="#8F8F8F"/>
<ellipse cx="21.4166" cy="18.4701" rx="11.0443" ry="11.0821" fill="#90CAF9"/>
<path fill-rule="evenodd" clip-rule="evenodd" d="M29.4124 10.8052L21.5739 18.3316L17.8273 7.99311C18.9581 7.60102 20.1722 7.38806 21.4358 7.38806C24.5715 7.38806 27.402 8.69933 29.4124 10.8052Z" fill="#E57373"/>
<path fill-rule="evenodd" clip-rule="evenodd" d="M29.4771 10.7065C31.0114 12.2913 32.0775 14.3349 32.4515 16.6127L21.5547 18.3316L29.4771 10.7065Z" fill="#D89150"/>
<path fill-rule="evenodd" clip-rule="evenodd" d="M32.4933 19.9437C32.5629 19.4408 32.5989 18.9271 32.5989 18.4049C32.5989 17.7662 32.5451 17.14 32.4417 16.5308L21.6928 18.2664L32.4933 19.9437Z" fill="#2196F3"/>
<rect x="14.345" y="50.6923" width="2.05848" height="8.30769" fill="#E57373"/>
<rect x="22.0643" y="44.3986" width="2.05848" height="14.6014" fill="#24BBCB"/>
<rect x="25.924" y="52.2028" width="2.05848" height="6.7972" fill="#2196F3"/>
<rect x="29.7836" y="48.4266" width="2.05848" height="10.5734" fill="#F3B881"/>
<rect x="18.2047" y="48.4266" width="2.05848" height="10.5734" fill="#90CAF9"/>
<path d="M11 50.1888L17.6901 46.4126L21.807 41L26.3099 44.5245L33 41" stroke="#BFBFBF"/>
<g clip-path="url(#clip0_1_148)">
<path d="M135.791 141.874C134.415 141.874 133.001 142.976 133.001 144.905C133.001 146.669 134.244 147.914 135.791 147.914C137.067 147.914 137.636 147.058 137.636 147.058V147.431C137.636 147.608 137.803 147.804 138.009 147.804H138.932V142.005H137.636V142.741C137.636 142.741 137.062 141.874 135.791 141.874ZM136.021 143.059C137.154 143.059 137.748 144.055 137.748 144.905C137.748 145.851 137.042 146.749 136.024 146.749C135.172 146.749 134.319 146.059 134.319 144.892C134.319 143.838 135.053 143.059 136.021 143.059Z" fill="black"/>
<path d="M140.733 147.804C140.534 147.804 140.36 147.662 140.36 147.431V142.005H141.656V142.723C141.949 142.282 142.523 141.872 143.404 141.872C144.843 141.872 145.609 143.019 145.609 144.092V147.804H144.709C144.473 147.804 144.313 147.607 144.313 147.409V144.378C144.313 143.783 143.949 143.061 143.106 143.061C142.197 143.061 141.656 143.92 141.656 144.729V147.804L140.733 147.804Z" fill="black"/>
<path d="M149.387 141.874C148.012 141.874 146.598 142.976 146.598 144.905C146.598 146.669 147.841 147.914 149.387 147.914C150.664 147.914 151.233 147.058 151.233 147.058V147.431C151.233 147.608 151.399 147.804 151.606 147.804H152.529V139.106H151.233V142.741C151.233 142.741 150.659 141.874 149.387 141.874ZM149.618 143.059C150.751 143.059 151.345 144.055 151.345 144.905C151.345 145.851 150.639 146.749 149.621 146.749C148.769 146.749 147.916 146.059 147.916 144.892C147.916 143.838 148.65 143.059 149.618 143.059Z" fill="black"/>
<path d="M154.33 147.804C154.131 147.804 153.956 147.662 153.956 147.431V142.005H155.252V142.972C155.475 142.43 155.957 141.939 156.812 141.939C157.05 141.939 157.273 141.983 157.273 141.983V143.323C157.273 143.323 156.995 143.213 156.658 143.213C155.749 143.213 155.252 144.073 155.252 144.882V147.804H154.33Z" fill="black"/>
<path d="M165.137 147.804C164.938 147.804 164.764 147.662 164.764 147.431V142.005H166.06V147.804L165.137 147.804Z" fill="black"/>
<path d="M169.86 141.874C168.484 141.874 167.07 142.976 167.07 144.905C167.07 146.669 168.313 147.914 169.86 147.914C171.136 147.914 171.705 147.058 171.705 147.058V147.431C171.705 147.608 171.872 147.804 172.078 147.804H173.001V139.106H171.705V142.741C171.705 142.741 171.131 141.874 169.86 141.874ZM170.091 143.059C171.223 143.059 171.817 144.055 171.817 144.905C171.817 145.851 171.112 146.749 170.093 146.749C169.241 146.749 168.389 146.059 168.389 144.892C168.389 143.838 169.123 143.059 170.091 143.059Z" fill="black"/>
<path d="M165.402 140.755C165.876 140.755 166.259 140.371 166.259 139.898C166.259 139.425 165.876 139.041 165.402 139.041C164.929 139.041 164.546 139.425 164.546 139.898C164.546 140.371 164.929 140.755 165.402 140.755Z" fill="black"/>
<path d="M160.691 141.872C159.251 141.872 157.668 142.947 157.668 144.895C157.668 146.669 159.016 147.914 160.688 147.914C162.749 147.914 163.755 146.258 163.755 144.906C163.755 143.246 162.459 141.872 160.691 141.872ZM160.696 143.082C161.692 143.082 162.435 143.885 162.435 144.898C162.435 145.929 161.646 146.725 160.699 146.725C159.819 146.725 158.965 146.009 158.965 144.916C158.965 143.804 159.778 143.082 160.696 143.082Z" fill="black"/>
<path d="M162.763 119.753L166.078 114.009C166.266 113.687 166.152 113.278 165.835 113.091C165.517 112.904 165.104 113.013 164.921 113.335L161.562 119.153C158.999 117.982 156.113 117.33 153.011 117.33C149.908 117.33 147.023 117.982 144.46 119.153L141.101 113.335C140.913 113.013 140.504 112.904 140.182 113.091C139.86 113.278 139.752 113.687 139.939 114.009L143.255 119.753C137.537 122.852 133.664 128.639 133.024 135.415H172.997C172.358 128.639 168.485 122.852 162.763 119.753ZM143.833 129.801C142.906 129.801 142.158 129.048 142.158 128.126C142.158 127.199 142.911 126.45 143.833 126.45C144.76 126.45 145.509 127.203 145.509 128.126C145.513 129.048 144.76 129.801 143.833 129.801ZM162.184 129.801C161.257 129.801 160.509 129.048 160.509 128.126C160.509 127.199 161.261 126.45 162.184 126.45C163.111 126.45 163.859 127.203 163.859 128.126C163.864 129.048 163.111 129.801 162.184 129.801Z" fill="#32DE84"/>
</g>
<defs>
<clipPath id="clip0_1_148">
<rect width="40" height="34.9152" fill="white" transform="translate(133 113)"/>
</clipPath>
</defs>
</svg>
