<svg width="37" height="35" viewBox="0 0 37 35" fill="none" xmlns="http://www.w3.org/2000/svg">
<rect y="7.24693" width="28" height="28" transform="rotate(-15 0 7.24693)" fill="#F3F3F3"/>
<rect x="5" y="6.99999" width="14" height="28" fill="#FFF59D"/>
<rect x="19" y="6.99999" width="14" height="28" fill="#FFDB94"/>
<path d="M30.5982 2.6412C30.913 2.28365 31.4363 2.19777 31.8488 2.43595L33.8942 3.61686C34.3068 3.85504 34.494 4.35115 34.3418 4.80252L32.6754 9.74227C32.4736 10.3405 31.7747 10.6044 31.2279 10.2887L27.404 8.08096C26.8572 7.76526 26.7362 7.02807 27.1535 6.55416L30.5982 2.6412Z" fill="#2196F3"/>
<path d="M30.6934 1.08463C30.8571 0.801194 31.2195 0.704083 31.5029 0.867723L35.4253 3.13227C35.7087 3.29591 35.8058 3.65834 35.6422 3.94177V3.94177C35.4785 4.2252 35.1161 4.32231 34.8327 4.15867L30.9104 1.89412C30.6269 1.73048 30.5298 1.36806 30.6934 1.08463V1.08463Z" fill="#0063B3"/>
<path d="M25.5555 7.69801C25.7192 7.41457 26.0816 7.31746 26.365 7.4811L32.2668 10.8885C32.5503 11.0522 32.6474 11.4146 32.4837 11.698V11.698C32.3201 11.9814 31.9577 12.0786 31.6742 11.9149L25.7724 8.5075C25.489 8.34386 25.3919 7.98144 25.5555 7.69801V7.69801Z" fill="#0063B3"/>
<path d="M29.2182 10.4969L26.5516 15.1157L24.9692 15.5707L28.2285 9.92549L29.2182 10.4969Z" fill="#A8A8A8"/>
</svg>
