<svg width="55" height="69" viewBox="0 0 55 69" fill="none" xmlns="http://www.w3.org/2000/svg">
<path d="M6.73906 35.6986L26.4221 30.4246L35.2122 63.2296L20.3588 67.2096C17.6914 67.9243 14.9498 66.3414 14.235 63.674L6.73906 35.6986Z" fill="#FABE45"/>
<path d="M26.4221 30.4246L46.1051 25.1505L53.6011 53.1259C54.3158 55.7933 52.7329 58.5349 50.0655 59.2496L35.2122 63.2296L26.4221 30.4246Z" fill="#FECE62"/>
<path fill-rule="evenodd" clip-rule="evenodd" d="M32.117 46.0546C33.0861 45.2379 33.5535 43.9174 33.2073 42.6255C32.7281 40.837 30.8709 39.7806 29.0591 40.2661C27.2473 40.7515 26.1671 42.595 26.6463 44.3835C26.9925 45.6754 28.0576 46.5853 29.3051 46.808L30.8762 52.6713L33.6881 51.9179L32.117 46.0546Z" fill="#646464"/>
<path fill-rule="evenodd" clip-rule="evenodd" d="M20.0146 5.18548C16.828 6.05715 14.1974 7.60291 12.1228 9.82277C10.0257 12.0666 8.64295 14.8287 7.97436 18.109C7.30578 21.3893 7.50368 25.0156 8.56805 28.9879C8.75819 29.6975 8.92476 30.4241 9.09027 31.1461C9.38213 32.4193 9.67067 33.678 10.0793 34.8036L15.2787 33.4104C14.3448 31.8257 13.5888 29.9548 13.0107 27.7975C12.1369 24.5363 11.9424 21.6384 12.4272 19.1038C12.9243 16.5658 13.9441 14.4727 15.4864 12.8242C17.0176 11.1973 18.9081 10.0733 21.1579 9.45215L20.0146 5.18548Z" fill="#DDDDDD"/>
<path fill-rule="evenodd" clip-rule="evenodd" d="M21.1578 9.45216C21.1923 9.44266 21.2268 9.43327 21.2614 9.42399C23.5568 8.80895 25.7844 8.82965 27.9443 9.48611C30.1166 10.1393 32.0463 11.4421 33.7334 13.3948C35.4329 15.3441 36.7196 17.9493 37.5935 21.2105C38.1715 23.3678 38.4496 25.3669 38.4277 27.2077L43.9112 25.7384C43.6877 24.7721 43.3218 23.7742 42.949 22.7577L42.949 22.7576L42.949 22.7576C42.6187 21.8568 42.283 20.9414 42.0361 20.0201C40.9718 16.0478 39.33 12.8084 37.1108 10.3019C34.8917 7.79539 32.3131 6.09477 29.3751 5.20003C26.4371 4.30529 23.3515 4.2911 20.1182 5.15745C20.0836 5.16672 20.0491 5.17607 20.0146 5.1855L21.1578 9.45216Z" fill="#C0C0C0"/>
</svg>
