<svg width="56" height="68" viewBox="0 0 56 68" fill="none" xmlns="http://www.w3.org/2000/svg">
<rect x="0.5" y="0.500008" width="55" height="13.1667" rx="1.5" fill="#D9D9D9" stroke="#C0C0C0"/>
<rect x="0.5" y="31.6667" width="55" height="13.1667" rx="1.5" fill="#D9D9D9" stroke="#C0C0C0"/>
<rect x="0.5" y="16.0833" width="55" height="13.1667" rx="1.5" fill="#D9D9D9" stroke="#C0C0C0"/>
<line x1="27.7821" y1="45.3333" x2="27.7821" y2="58.0833" stroke="#434343"/>
<line x1="10.0513" y1="63.25" x2="22.9744" y2="63.25" stroke="#434343"/>
<line x1="33.0256" y1="63.25" x2="45.9487" y2="63.25" stroke="#434343"/>
<line x1="27.2821" y1="39.1667" x2="50.2564" y2="39.1667" stroke="#8A8A8A"/>
<line x1="27.2821" y1="8.00001" x2="50.2564" y2="8.00001" stroke="#8A8A8A"/>
<line x1="27.2821" y1="23.5833" x2="50.2564" y2="23.5833" stroke="#8A8A8A"/>
<path d="M32.5256 63.0417C32.5256 65.4976 30.5058 67.5 28 67.5C25.4942 67.5 23.4744 65.4976 23.4744 63.0417C23.4744 60.5857 25.4942 58.5833 28 58.5833C30.5058 58.5833 32.5256 60.5857 32.5256 63.0417Z" fill="#D9D9D9" stroke="#C0C0C0"/>
<path d="M55.5 63.0417C55.5 65.4976 53.4802 67.5 50.9744 67.5C48.4685 67.5 46.4487 65.4976 46.4487 63.0417C46.4487 60.5857 48.4685 58.5833 50.9744 58.5833C53.4802 58.5833 55.5 60.5857 55.5 63.0417Z" fill="#D9D9D9" stroke="#C0C0C0"/>
<path d="M9.55128 63.0417C9.55128 65.4976 7.53146 67.5 5.02564 67.5C2.51982 67.5 0.5 65.4976 0.5 63.0417C0.5 60.5857 2.51982 58.5833 5.02564 58.5833C7.53146 58.5833 9.55128 60.5857 9.55128 63.0417Z" fill="#D9D9D9" stroke="#C0C0C0"/>
<ellipse cx="15.7949" cy="7.08334" rx="2.87179" ry="2.83333" fill="#FFA726"/>
<ellipse cx="7.17949" cy="7.08334" rx="2.87179" ry="2.83333" fill="#2FC822"/>
<ellipse cx="15.7949" cy="38.25" rx="2.87179" ry="2.83333" fill="#FFA726"/>
<ellipse cx="7.17949" cy="38.25" rx="2.87179" ry="2.83333" fill="#2FC822"/>
<ellipse cx="15.7949" cy="22.6667" rx="2.87179" ry="2.83333" fill="#FFA726"/>
<ellipse cx="7.17949" cy="22.6667" rx="2.87179" ry="2.83333" fill="#2FC822"/>
</svg>
