<svg width="84" height="108" viewBox="0 0 84 108" fill="none" xmlns="http://www.w3.org/2000/svg">
<rect y="19.6128" width="52.4924" height="94.3222" rx="5" transform="rotate(-21.9398 0 19.6128)" fill="#D9D9D9"/>
<rect x="4.02977" y="21.1237" width="46.8366" height="78.7385" rx="3" transform="rotate(-21.9398 4.02977 21.1237)" fill="#00C2FF"/>
<circle cx="57.6691" cy="91.4384" r="4.51106" transform="rotate(-21.9398 57.6691 91.4384)" fill="#6F6F6F"/>
<g clip-path="url(#clip0_1_30)">
<path d="M63.9468 68.8095L64.1227 68.5066L64.4493 68.3797L65.0827 68.1336C66.4544 67.6007 67.1383 66.0495 66.6002 64.6644L63.9318 57.7962C63.3937 56.4112 61.8419 55.7285 60.4702 56.2615L46.7838 61.5789C45.4121 62.1118 44.7282 63.6631 45.2663 65.0481L47.9347 71.9163C48.4728 73.3013 50.0246 73.984 51.3963 73.451L60.2399 70.0151L61.6329 69.4739L61.6018 70.968L61.5614 72.9151L63.9468 68.8095Z" fill="#FFFBD3" stroke="#AECFFF" stroke-width="2"/>
<path d="M61.5077 63.7972C60.6762 64.1202 59.7393 63.7056 59.4151 62.8711C59.0909 62.0366 59.5021 61.0982 60.3336 60.7752C61.165 60.4521 62.1019 60.8668 62.4261 61.7013C62.7503 62.5358 62.3391 63.4741 61.5077 63.7972Z" fill="#8C8C8C"/>
<path d="M51.106 67.8384C50.2745 68.1615 49.3376 67.7468 49.0134 66.9123C48.6892 66.0778 49.1004 65.1394 49.9319 64.8164C50.7633 64.4934 51.7002 64.908 52.0244 65.7425C52.3486 66.577 51.9374 67.5154 51.106 67.8384Z" fill="#8C8C8C"/>
<path d="M56.3068 65.8178C55.4753 66.1408 54.5385 65.7262 54.2143 64.8917C53.89 64.0572 54.3012 63.1188 55.1327 62.7958C55.9642 62.4728 56.9011 62.8874 57.2253 63.7219C57.5495 64.5564 57.1383 65.4948 56.3068 65.8178Z" fill="#8C8C8C"/>
</g>
<defs>
<clipPath id="clip0_1_30">
<rect width="22.0247" height="20.1893" fill="white" transform="matrix(-0.932122 0.362144 0.362144 0.932122 63.5297 54)"/>
</clipPath>
</defs>
</svg>
