<svg width="84" height="108" viewBox="0 0 84 108" fill="none" xmlns="http://www.w3.org/2000/svg">
<rect y="19.6128" width="52.4924" height="94.3222" rx="5" transform="rotate(-21.9398 0 19.6128)" fill="#D9D9D9"/>
<rect x="4.02977" y="21.1237" width="46.8366" height="78.7385" rx="3" transform="rotate(-21.9398 4.02977 21.1237)" fill="#00C2FF"/>
<circle cx="57.6691" cy="91.4384" r="4.51106" transform="rotate(-21.9398 57.6691 91.4384)" fill="#6F6F6F"/>
<g clip-path="url(#clip0_1_30)">
<path d="M28.0117 58.4892L27.6745 58.3943L27.3518 58.5306L26.7258 58.795C25.3701 59.3675 23.7992 58.7301 23.2211 57.3613L20.3545 50.5734C19.7765 49.2046 20.415 47.6342 21.7706 47.0617L35.297 41.3493C36.6526 40.7768 38.2236 41.4142 38.8016 42.783L41.6682 49.5708C42.2463 50.9396 41.6078 52.5101 40.2521 53.0826L31.5119 56.7737L30.1352 57.3551L31.1978 58.4059L32.5825 59.7753L28.0117 58.4892Z" fill="#FFFBD3" stroke="#AECFFF" stroke-width="2"/>
<path d="M26.2727 53.1931C27.0944 52.8461 27.4782 51.8962 27.1299 51.0714C26.7816 50.2467 25.8331 49.8594 25.0114 50.2065C24.1896 50.5535 23.8058 51.5034 24.1541 52.3282C24.5024 53.1529 25.4509 53.5402 26.2727 53.1931Z" fill="#8C8C8C"/>
<path d="M36.5527 48.8517C37.3745 48.5047 37.7583 47.5548 37.41 46.73C37.0617 45.9053 36.1132 45.518 35.2914 45.8651C34.4697 46.2121 34.0859 47.162 34.4342 47.9868C34.7825 48.8115 35.731 49.1988 36.5527 48.8517Z" fill="#8C8C8C"/>
<path d="M31.4127 51.0224C32.2345 50.6754 32.6183 49.7255 32.27 48.9007C31.9217 48.076 30.9731 47.6887 30.1514 48.0358C29.3297 48.3828 28.9459 49.3327 29.2942 50.1575C29.6425 50.9822 30.591 51.3695 31.4127 51.0224Z" fill="#8C8C8C"/>
</g>
<g clip-path="url(#clip1_1_30)">
<path d="M45.9468 26.8095L46.1227 26.5066L46.4493 26.3797L47.0827 26.1336C48.4544 25.6007 49.1383 24.0495 48.6002 22.6644L45.9318 15.7962C45.3937 14.4112 43.8419 13.7285 42.4702 14.2615L28.7838 19.5789C27.4121 20.1118 26.7282 21.6631 27.2663 23.0481L29.9347 29.9163C30.4728 31.3013 32.0246 31.984 33.3963 31.451L42.2399 28.0151L43.6329 27.4739L43.6018 28.968L43.5614 30.9151L45.9468 26.8095Z" fill="#FFFBD3" stroke="#AECFFF" stroke-width="2"/>
<path d="M43.5077 21.7972C42.6762 22.1202 41.7393 21.7056 41.4151 20.8711C41.0909 20.0366 41.5021 19.0982 42.3336 18.7752C43.165 18.4521 44.1019 18.8668 44.4261 19.7013C44.7503 20.5358 44.3391 21.4741 43.5077 21.7972Z" fill="#8C8C8C"/>
<path d="M33.106 25.8384C32.2745 26.1615 31.3376 25.7468 31.0134 24.9123C30.6892 24.0778 31.1004 23.1394 31.9319 22.8164C32.7633 22.4934 33.7002 22.908 34.0244 23.7425C34.3486 24.577 33.9374 25.5154 33.106 25.8384Z" fill="#8C8C8C"/>
<path d="M38.3068 23.8178C37.4753 24.1408 36.5385 23.7262 36.2143 22.8917C35.89 22.0572 36.3012 21.1188 37.1327 20.7958C37.9642 20.4728 38.9011 20.8874 39.2253 21.7219C39.5495 22.5564 39.1383 23.4948 38.3068 23.8178Z" fill="#8C8C8C"/>
</g>
<g clip-path="url(#clip2_1_30)">
<path d="M63.9468 68.8095L64.1227 68.5066L64.4493 68.3797L65.0827 68.1336C66.4544 67.6007 67.1383 66.0495 66.6002 64.6644L63.9318 57.7962C63.3937 56.4112 61.8419 55.7285 60.4702 56.2615L46.7838 61.5789C45.4121 62.1118 44.7282 63.6631 45.2663 65.0481L47.9347 71.9163C48.4728 73.3013 50.0246 73.984 51.3963 73.451L60.2399 70.0151L61.6329 69.4739L61.6018 70.968L61.5614 72.9151L63.9468 68.8095Z" fill="#FFFBD3" stroke="#AECFFF" stroke-width="2"/>
<path d="M61.5077 63.7972C60.6762 64.1202 59.7393 63.7056 59.4151 62.8711C59.0909 62.0366 59.5021 61.0982 60.3336 60.7752C61.165 60.4521 62.1019 60.8668 62.4261 61.7013C62.7503 62.5358 62.3391 63.4741 61.5077 63.7972Z" fill="#8C8C8C"/>
<path d="M51.106 67.8384C50.2745 68.1615 49.3376 67.7468 49.0134 66.9123C48.6892 66.0778 49.1004 65.1394 49.9319 64.8164C50.7633 64.4934 51.7002 64.908 52.0244 65.7425C52.3486 66.577 51.9374 67.5154 51.106 67.8384Z" fill="#8C8C8C"/>
<path d="M56.3068 65.8178C55.4753 66.1408 54.5385 65.7262 54.2143 64.8917C53.89 64.0572 54.3012 63.1188 55.1327 62.7958C55.9642 62.4728 56.9011 62.8874 57.2253 63.7219C57.5495 64.5564 57.1383 65.4948 56.3068 65.8178Z" fill="#8C8C8C"/>
</g>
<defs>
<clipPath id="clip0_1_30">
<rect width="22.0247" height="20.1893" fill="white" transform="translate(18 47.5686) rotate(-22.895)"/>
</clipPath>
<clipPath id="clip1_1_30">
<rect width="22.0247" height="20.1893" fill="white" transform="matrix(-0.932122 0.362144 0.362144 0.932122 45.5297 12)"/>
</clipPath>
<clipPath id="clip2_1_30">
<rect width="22.0247" height="20.1893" fill="white" transform="matrix(-0.932122 0.362144 0.362144 0.932122 63.5297 54)"/>
</clipPath>
</defs>
</svg>
