<svg width="55" height="55" viewBox="0 0 55 55" fill="none" xmlns="http://www.w3.org/2000/svg">
<path d="M0.311855 47.5285L7.39983 40.522C7.39983 40.522 9.51808 40.522 11.6363 42.6403C13.7546 44.7585 13.7546 46.8768 13.7546 46.8768L6.66659 53.9647C10.6587 54.9424 15.4655 53.6389 18.3984 50.7059C22.7978 46.3065 18.8872 40.685 20.0278 39.5444C26.2196 33.1082 31.5 27.5 31.5 27.5L23 26C22.7556 26.2444 20.7611 28.3014 14.6507 34.4117C13.5102 35.5523 8.13307 31.3973 3.57069 35.8782C0.719212 38.8111 -0.665794 43.5364 0.311855 47.5285Z" fill="#6E8E9D"/>
<path d="M7.39983 40.522V40.022H7.19441L7.04833 40.1664L0.621912 46.519C0.0753689 42.9064 1.40068 38.8303 3.92519 36.2308C6.04846 34.1483 8.34361 34.064 10.3133 34.3858C10.9757 34.494 11.5667 34.6405 12.1165 34.7768C12.4128 34.8502 12.6971 34.9207 12.9742 34.9806C13.3487 35.0616 13.7169 35.1236 14.0424 35.1183C14.3669 35.1131 14.73 35.0396 15.0043 34.7653C18.0601 31.7095 20.087 29.667 21.3808 28.3576C22.2477 27.4801 22.7824 26.9351 23.0781 26.6336C23.1125 26.5985 23.1437 26.5667 23.1718 26.538L30.5002 27.8313C30.4132 27.9233 30.318 28.0242 30.2148 28.1335C29.6232 28.7596 28.7699 29.6614 27.7232 30.7644C25.6303 32.9698 22.7642 35.9788 19.6704 39.1948C19.4019 39.466 19.3241 39.8271 19.3112 40.1511C19.2981 40.4802 19.3488 40.8555 19.4188 41.2403C19.4719 41.5327 19.5359 41.8329 19.6026 42.1461C19.7214 42.7036 19.8489 43.3022 19.9397 43.9704C20.2145 45.9921 20.0881 48.3091 18.0449 50.3523C15.4534 52.9438 11.3119 54.2133 7.68174 53.6567L14.1081 47.2303L14.2546 47.0839V46.8768H13.7546C14.2546 46.8768 14.2546 46.8765 14.2546 46.8762L14.2546 46.8757L14.2546 46.8744L14.2545 46.8713L14.2544 46.8627L14.2538 46.8363C14.2531 46.8148 14.2518 46.7853 14.2493 46.7483C14.2444 46.6745 14.2349 46.571 14.2164 46.442C14.1796 46.184 14.107 45.8235 13.9641 45.3947C13.6777 44.5355 13.1101 43.4069 11.9899 42.2867C10.8697 41.1665 9.74104 40.5989 8.88185 40.3125C8.45312 40.1696 8.09257 40.097 7.83461 40.0601C7.70559 40.0417 7.60205 40.0322 7.52824 40.0273C7.49133 40.0248 7.46183 40.0235 7.44026 40.0228L7.41391 40.0222L7.40531 40.022L7.40218 40.022L7.40091 40.022L7.40034 40.022C7.40008 40.022 7.39983 40.022 7.39983 40.522Z" stroke="black" stroke-opacity="0.15"/>
<path d="M53.8833 6.75718L46.7953 13.7637C46.7953 13.7637 44.6771 13.7637 42.5588 11.6454C40.4406 9.52719 40.4406 7.40895 40.4406 7.40895L47.5286 0.320972C43.5365 -0.656679 38.7297 0.646855 35.7967 3.57981C31.3973 7.97924 35.3079 13.6007 34.1673 14.7413C27.9755 21.1775 23.1629 25.7556 23 26L31.5 27.5C31.5 27.5 33.4341 25.9843 39.5444 19.874C40.685 18.7334 46.0621 22.8884 50.6244 18.4075C53.4759 15.4746 54.8609 10.7493 53.8833 6.75718Z" fill="#8AA1AC"/>
<path d="M31.3606 26.9677L24.0181 25.6719C24.1025 25.5882 24.1947 25.497 24.2944 25.3985C24.4865 25.2085 24.7064 24.9918 24.9518 24.7498C25.4334 24.275 26.0132 23.7034 26.6748 23.0477C28.6733 21.0671 31.4263 18.3116 34.5248 15.0909C34.7933 14.8197 34.871 14.4586 34.884 14.1346C34.8971 13.8055 34.8463 13.4302 34.7764 13.0454C34.7232 12.753 34.6592 12.4528 34.5925 12.1396C34.4737 11.5821 34.3462 10.9835 34.2554 10.3153C33.9806 8.29357 34.1071 5.97658 36.1503 3.93337C38.7417 1.34193 42.8833 0.0724329 46.5134 0.629012L40.087 7.05539L39.9406 7.20184V7.40895L40.4406 7.40895C39.9406 7.40895 39.9406 7.4092 39.9406 7.40946L39.9406 7.41002L39.9406 7.41129L39.9406 7.41443L39.9407 7.42302L39.9414 7.44937C39.942 7.47094 39.9434 7.50045 39.9458 7.53736C39.9507 7.61117 39.9603 7.71471 39.9787 7.84373C40.0155 8.10168 40.0881 8.46223 40.231 8.89096C40.5174 9.75016 41.0851 10.8788 42.2053 11.999C43.3255 13.1192 44.4541 13.6868 45.3133 13.9732C45.742 14.1162 46.1026 14.1887 46.3605 14.2256C46.4895 14.244 46.5931 14.2535 46.6669 14.2584C46.7038 14.2609 46.7333 14.2622 46.7549 14.2629L46.7812 14.2636L46.7898 14.2637L46.793 14.2637L46.7942 14.2637L46.7948 14.2637C46.7951 14.2637 46.7953 14.2637 46.7953 13.7637V14.2637H47.0007L47.1468 14.1193L53.5732 7.76672C54.1198 11.3793 52.7945 15.4554 50.27 18.0549C48.1467 20.1374 45.8515 20.2217 43.8819 19.8999C43.2195 19.7917 42.6285 19.6452 42.0787 19.5089C41.7824 19.4355 41.4981 19.365 41.2209 19.3051C40.8465 19.2241 40.4783 19.1621 40.1527 19.1674C39.8283 19.1726 39.4652 19.2461 39.1908 19.5205C36.1395 22.5718 34.1338 24.473 32.8931 25.6097C32.2728 26.178 31.8441 26.5547 31.572 26.7883C31.4864 26.8618 31.4163 26.9211 31.3606 26.9677Z" stroke="white" stroke-opacity="0.2"/>
</svg>
