<svg width="155" height="174" viewBox="0 0 155 174" fill="none" xmlns="http://www.w3.org/2000/svg">
<rect x="15" y="48.5098" width="140" height="33.2353" rx="2" fill="#90CAF9"/>
<rect x="15" y="33" width="140" height="11.0784" rx="1" fill="#E57373"/>
<rect x="15" y="88" width="42" height="58" rx="2" fill="#FED2AA"/>
<rect x="64" y="88.3922" width="42" height="22.1569" rx="2" fill="#88D5DD"/>
<rect x="113" y="88.3922" width="42" height="22.1569" rx="2" fill="#EBC3F1"/>
<rect x="113" y="117.196" width="42" height="2.21569" fill="#8F8F8F"/>
<rect x="113" y="130.49" width="42" height="2.21569" fill="#8F8F8F"/>
<rect x="113" y="143.784" width="21" height="2.21569" fill="#8F8F8F"/>
<rect x="113" y="137.137" width="42" height="2.21569" fill="#8F8F8F"/>
<rect x="113" y="123.843" width="42" height="2.21569" fill="#8F8F8F"/>
<rect x="64" y="117.196" width="42" height="2.21569" fill="#8F8F8F"/>
<rect x="64" y="130.49" width="42" height="2.21569" fill="#8F8F8F"/>
<rect x="64" y="143.784" width="21" height="2.21569" fill="#8F8F8F"/>
<rect x="64" y="137.137" width="42" height="2.21569" fill="#8F8F8F"/>
<rect x="64" y="123.843" width="42" height="2.21569" fill="#8F8F8F"/>
<path d="M139.894 9.94311L144.788 1.48655C145.064 1.01247 144.897 0.410256 144.428 0.134776C143.959 -0.140699 143.349 0.0194578 143.079 0.493538L138.121 9.05901C134.338 7.33566 130.079 6.37468 125.5 6.37468C120.921 6.37468 116.662 7.33565 112.879 9.05901L107.921 0.493538C107.645 0.0194578 107.041 -0.140699 106.566 0.134776C106.09 0.410256 105.93 1.01247 106.206 1.48655L111.1 9.94311C102.66 14.5045 96.9441 23.0252 96 33H155C154.056 23.0251 148.339 14.5045 139.894 9.94311ZM111.954 24.7357C110.586 24.7357 109.481 23.6274 109.481 22.2692C109.481 20.9046 110.593 19.8027 111.954 19.8027C113.322 19.8027 114.427 20.911 114.427 22.2692C114.433 23.6274 113.322 24.7357 111.954 24.7357ZM139.039 24.7357C137.671 24.7357 136.567 23.6274 136.567 22.2692C136.567 20.9046 137.678 19.8027 139.039 19.8027C140.407 19.8027 141.512 20.911 141.512 22.2692C141.519 23.6274 140.407 24.7357 139.039 24.7357Z" fill="#32DE84"/>
<g clip-path="url(#clip0_1_8)">
<path d="M48.4091 133.136C48.0528 133.415 41.7629 136.992 41.7629 144.947C41.7629 154.148 49.7666 157.403 50.0061 157.483C49.9693 157.682 48.7346 161.941 45.7862 166.281C43.1572 170.1 40.4115 173.913 36.2346 173.913C32.0577 173.913 30.9828 171.464 26.1609 171.464C21.4619 171.464 19.7912 173.994 15.9705 173.994C12.1499 173.994 9.48403 170.46 6.41892 166.12C2.86855 161.023 0 153.106 0 145.592C0 133.539 7.76413 127.147 15.4054 127.147C19.4656 127.147 22.8501 129.837 25.3993 129.837C27.8256 129.837 31.6093 126.985 36.2285 126.985C37.9791 126.985 44.269 127.147 48.4091 133.136ZM34.0356 121.883C35.9459 119.595 37.2973 116.421 37.2973 113.246C37.2973 112.806 37.2604 112.36 37.1806 112C34.0725 112.118 30.3747 114.089 28.145 116.7C26.3943 118.708 24.7604 121.883 24.7604 125.101C24.7604 125.584 24.8403 126.068 24.8771 126.223C25.0737 126.26 25.3931 126.303 25.7125 126.303C28.5012 126.303 32.0086 124.419 34.0356 121.883Z" fill="#4D4D4D"/>
</g>
<defs>
<clipPath id="clip0_1_8">
<rect width="50" height="62" fill="white" transform="translate(0 112)"/>
</clipPath>
</defs>
</svg>
