<svg width="163" height="161" viewBox="0 0 163 161" fill="none" xmlns="http://www.w3.org/2000/svg">
<rect y="15" width="146" height="146" rx="20" fill="#D2EBFF"/>
<path d="M24.375 88.5747C24.375 108.05 35.6931 124.88 52.1054 132.856L28.6349 68.5509C25.9048 74.67 24.375 81.4417 24.375 88.5747Z" fill="#363636"/>
<path d="M106.794 86.0918C106.794 80.0111 104.61 75.8 102.736 72.5224C100.242 68.4695 97.9042 65.0373 97.9042 60.9845C97.9042 56.4616 101.335 52.2515 106.167 52.2515C106.385 52.2515 106.592 52.2786 106.804 52.2908C98.0503 44.2712 86.3876 39.3748 73.578 39.3748C56.3887 39.3748 41.2656 48.1939 32.4678 61.5518C33.6222 61.5864 34.7101 61.6108 35.6342 61.6108C40.7807 61.6108 48.7471 60.9863 48.7471 60.9863C51.3995 60.83 51.7122 64.7256 49.0626 65.0392C49.0626 65.0392 46.3971 65.3528 43.4311 65.5082L61.3488 118.802L72.1165 86.5094L64.4506 65.5064C61.801 65.351 59.291 65.0373 59.291 65.0373C56.6396 64.8819 56.9504 60.8281 59.6018 60.9845C59.6018 60.9845 67.7274 61.6089 72.5621 61.6089C77.7077 61.6089 85.6751 60.9845 85.6751 60.9845C88.3293 60.8281 88.6411 64.7237 85.9906 65.0373C85.9906 65.0373 83.3195 65.351 80.3591 65.5064L98.1402 118.397L103.048 101.997C105.175 95.1918 106.794 90.3039 106.794 86.0918Z" fill="#363636"/>
<path d="M74.4412 92.8785L59.6786 135.775C64.0864 137.071 68.7479 137.779 73.578 137.779C79.3077 137.779 84.8025 136.789 89.9172 134.99C89.7852 134.78 89.6653 134.556 89.567 134.312L74.4412 92.8785Z" fill="#363636"/>
<path d="M116.752 64.969C116.963 66.5362 117.083 68.2186 117.083 70.0283C117.083 75.0211 116.151 80.6337 113.342 87.6516L98.3124 131.104C112.94 122.574 122.779 106.727 122.779 88.5756C122.78 80.0214 120.595 71.9775 116.752 64.969Z" fill="#363636"/>
<path d="M73.578 31.2222C41.9528 31.2222 16.2222 56.9503 16.2222 88.5747C16.2222 120.203 41.9528 145.93 73.578 145.93C105.202 145.93 130.937 120.203 130.937 88.5747C130.936 56.9503 105.202 31.2222 73.578 31.2222ZM73.578 143.301C43.403 143.301 18.8521 118.751 18.8521 88.5747C18.8521 58.4005 43.4021 33.852 73.578 33.852C103.752 33.852 128.301 58.4005 128.301 88.5747C128.301 118.751 103.752 143.301 73.578 143.301Z" fill="#363636"/>
<ellipse cx="139.5" cy="23.5" rx="23.5" ry="23.5" transform="rotate(-180 139.5 23.5)" fill="#2196F3"/>
<path fill-rule="evenodd" clip-rule="evenodd" d="M140 8V32.8721L149.246 38L147.481 27.1386L155 19.4266L144.642 17.852L140 8Z" fill="#FBDA66"/>
<path fill-rule="evenodd" clip-rule="evenodd" d="M132.519 27.1386L125 19.4266L135.358 17.852L140 8V32.8721L130.754 38L132.519 27.1386Z" fill="#FFE791"/>
</svg>
